<svg width="649" height="639" viewBox="0 0 649 639" fill="none" xmlns="http://www.w3.org/2000/svg">
<path d="M528.293 598.293C528.683 597.902 529.317 597.902 529.707 598.293L536.071 604.657C536.462 605.047 536.462 605.681 536.071 606.071C535.681 606.462 535.047 606.462 534.657 606.071L529 600.414L523.343 606.071C522.953 606.462 522.319 606.462 521.929 606.071C521.538 605.681 521.538 605.047 521.929 604.657L528.293 598.293ZM570 599C570 617.828 559.761 628.352 549.031 628.687C543.693 628.854 538.398 626.461 534.466 621.487C530.541 616.524 528 609.036 528 599L530 599C530 608.714 532.459 615.726 536.034 620.247C539.602 624.758 544.307 626.834 548.969 626.688C558.239 626.398 568 617.173 568 599L570 599Z" fill="#F9F0D5"/>
<path d="M369.207 353.707C368.817 354.098 368.183 354.098 367.793 353.707L361.429 347.343C361.038 346.953 361.038 346.319 361.429 345.929C361.819 345.538 362.453 345.538 362.843 345.929L368.5 351.586L374.157 345.929C374.547 345.538 375.181 345.538 375.571 345.929C375.962 346.319 375.962 346.953 375.571 347.343L369.207 353.707ZM285.5 353C285.5 344.139 290.946 337.545 298.831 333.21C306.703 328.881 317.13 326.719 327.497 326.687C337.864 326.656 348.292 328.754 356.168 333.068C364.06 337.391 369.5 344.019 369.5 353H367.5C367.5 344.981 362.69 338.921 355.207 334.822C347.708 330.714 337.636 328.657 327.503 328.687C317.37 328.718 307.297 330.838 299.794 334.962C292.304 339.08 287.5 345.111 287.5 353H285.5Z" fill="#F9F0D5"/>
<path d="M30.2929 298.707C29.9024 298.317 29.9024 297.683 30.2929 297.293L36.6569 290.929C37.0474 290.538 37.6805 290.538 38.0711 290.929C38.4616 291.319 38.4616 291.953 38.0711 292.343L32.4142 298L38.0711 303.657C38.4616 304.047 38.4616 304.681 38.0711 305.071C37.6805 305.462 37.0474 305.462 36.6569 305.071L30.2929 298.707ZM49.5 352C49.5 347.616 49.5626 343.484 49.6261 339.614C49.6896 335.742 49.7539 332.138 49.7578 328.796C49.7656 322.098 49.5293 316.533 48.5843 312.083C47.6418 307.644 46.0181 304.428 43.3388 302.299C40.6534 300.165 36.7537 299 31 299V297C36.9963 297 41.4091 298.21 44.5831 300.733C47.7632 303.26 49.5457 306.981 50.5407 311.667C51.5332 316.342 51.7656 322.09 51.7578 328.798C51.7539 332.159 51.6893 335.781 51.6258 339.647C51.5624 343.516 51.5 347.634 51.5 352H49.5Z" fill="#F9F0D5"/>
<path d="M29.7929 137.707C29.4024 137.317 29.4024 136.683 29.7929 136.293L36.1569 129.929C36.5474 129.538 37.1805 129.538 37.5711 129.929C37.9616 130.319 37.9616 130.953 37.5711 131.343L31.9142 137L37.5711 142.657C37.9616 143.047 37.9616 143.681 37.5711 144.071C37.1805 144.462 36.5474 144.462 36.1568 144.071L29.7929 137.707ZM30.5 178.5C46.2542 178.5 54.7745 168.258 55.1883 158.209C55.3959 153.169 53.5755 148.143 49.5719 144.368C45.5687 140.594 39.3022 138 30.5 138L30.5 136C39.6978 136 46.4938 138.718 50.9438 142.913C55.3932 147.107 57.4166 152.706 57.1867 158.291C56.7255 169.491 47.2458 180.5 30.5 180.5V178.5Z" fill="#F9F0D5"/>
<path d="M136.707 272.707C136.316 273.098 135.683 273.098 135.293 272.707L128.929 266.343C128.538 265.953 128.538 265.32 128.929 264.929C129.319 264.538 129.953 264.538 130.343 264.929L136 270.586L141.657 264.929C142.047 264.538 142.68 264.538 143.071 264.929C143.462 265.32 143.462 265.953 143.071 266.343L136.707 272.707ZM111.5 247C115.543 247 119.242 246.813 122.335 246.954C125.456 247.097 128.222 247.576 130.48 249.035C132.772 250.516 134.401 252.912 135.453 256.584C136.5 260.233 137 265.218 137 272H135C135 265.282 134.5 260.517 133.531 257.135C132.568 253.776 131.165 251.859 129.395 250.715C127.591 249.549 125.262 249.09 122.243 248.952C119.196 248.813 115.707 249 111.5 249V247Z" fill="#F9F0D5"/>
<path d="M345.806 183.207C346.197 182.817 346.197 182.183 345.806 181.793L339.442 175.429C339.052 175.038 338.419 175.038 338.028 175.429C337.638 175.819 337.638 176.453 338.028 176.843L343.685 182.5L338.028 188.157C337.638 188.547 337.638 189.181 338.028 189.571C338.419 189.962 339.052 189.962 339.442 189.571L345.806 183.207ZM320.099 158C320.099 162.043 319.912 165.742 320.053 168.835C320.196 171.956 320.675 174.722 322.134 176.98C323.615 179.272 326.011 180.901 329.683 181.954C333.332 183 338.317 183.5 345.099 183.5V181.5C338.382 181.5 333.616 181 330.234 180.031C326.875 179.068 324.958 177.665 323.814 175.895C322.648 174.091 322.19 171.762 322.051 168.743C321.912 165.696 322.099 162.207 322.099 158H320.099Z" fill="#F9F0D5"/>
<path d="M247.207 273.207C246.817 273.598 246.183 273.598 245.793 273.207L239.429 266.843C239.038 266.453 239.038 265.82 239.429 265.429C239.819 265.038 240.453 265.038 240.843 265.429L246.5 271.086L252.157 265.429C252.547 265.038 253.181 265.038 253.571 265.429C253.962 265.82 253.962 266.453 253.571 266.843L247.207 273.207ZM326 271.5C326 260.97 321.141 252.684 313.804 246.919C306.447 241.139 296.597 237.9 286.716 237.562C276.834 237.224 267.016 239.791 259.693 245.5C252.4 251.184 247.5 260.044 247.5 272.5H245.5C245.5 259.456 250.662 250.003 258.463 243.922C266.234 237.865 276.541 235.213 286.784 235.563C297.028 235.913 307.303 239.268 315.04 245.347C322.796 251.441 328 260.28 328 271.5H326Z" fill="#F9F0D5"/>
<path d="M207.707 77.2929C207.317 76.9024 206.683 76.9024 206.293 77.2929L199.929 83.6569C199.538 84.0474 199.538 84.6805 199.929 85.0711C200.319 85.4616 200.953 85.4616 201.343 85.0711L207 79.4142L212.657 85.0711C213.047 85.4616 213.681 85.4616 214.071 85.0711C214.462 84.6805 214.462 84.0474 214.071 83.6569L207.707 77.2929ZM286.5 79C286.5 85.8361 281.855 91.1893 274.473 94.8954C267.101 98.5966 257.202 100.532 247.247 100.563C237.291 100.593 227.4 98.7194 220.037 94.9162C212.686 91.1188 208 85.4937 208 78H206C206 86.5063 211.377 92.6937 219.119 96.6932C226.85 100.687 237.084 102.594 247.253 102.562C257.423 102.531 267.649 100.56 275.371 96.6827C283.083 92.8107 288.5 86.9139 288.5 79H286.5Z" fill="#F9F0D5"/>
<path d="M426.207 98.2071C426.598 97.8166 426.598 97.1834 426.207 96.7929L419.843 90.4289C419.453 90.0384 418.819 90.0384 418.429 90.4289C418.038 90.8195 418.038 91.4526 418.429 91.8431L424.086 97.5L418.429 103.157C418.038 103.547 418.038 104.181 418.429 104.571C418.819 104.962 419.453 104.962 419.843 104.571L426.207 98.2071ZM368.5 80C368.5 84.6031 369.925 88.1597 372.705 90.8374C375.448 93.4802 379.418 95.1761 384.342 96.2879C394.165 98.5061 408.302 98.5 425.5 98.5V96.5C408.198 96.5 394.335 96.4939 384.783 94.3371C380.019 93.2614 376.458 91.6761 374.092 89.397C371.762 87.1528 370.5 84.1469 370.5 80H368.5Z" fill="#F9F0D5"/>
<path d="M528.922 78.614C528.709 78.1045 528.123 77.8643 527.614 78.0775L519.312 81.5516C518.802 81.7648 518.562 82.3506 518.775 82.8601C518.988 83.3696 519.574 83.6098 520.084 83.3966L527.463 80.3085L530.552 87.6885C530.765 88.1979 531.351 88.4381 531.86 88.225C532.37 88.0118 532.61 87.4259 532.397 86.9164L528.922 78.614ZM473 139C483.137 139 490.48 138.44 496.082 136.771C501.745 135.084 505.618 132.266 508.811 127.835C511.963 123.461 514.441 117.526 517.389 109.664C520.351 101.765 523.808 91.8608 528.925 79.3794L527.075 78.6206C521.942 91.1392 518.461 101.11 515.517 108.961C512.559 116.849 510.162 122.539 507.189 126.665C504.257 130.734 500.755 133.291 495.511 134.854C490.207 136.435 483.113 137 473 137V139Z" fill="#F9F0D5"/>
<path d="M545.707 297.707C546.098 297.317 546.098 296.683 545.707 296.293L539.343 289.929C538.953 289.538 538.319 289.538 537.929 289.929C537.538 290.32 537.538 290.953 537.929 291.343L543.586 297L537.929 302.657C537.538 303.047 537.538 303.681 537.929 304.071C538.319 304.462 538.953 304.462 539.343 304.071L545.707 297.707ZM545 336.5C529.42 336.5 519.807 326.675 518.807 317.146C518.309 312.396 519.926 307.66 524.067 304.085C528.228 300.493 535.029 298 545 298V296C534.721 296 527.396 298.569 522.761 302.571C518.105 306.59 516.254 311.979 516.818 317.354C517.943 328.075 528.58 338.5 545 338.5V336.5Z" fill="#F9F0D5"/>
<path d="M486.793 479.793C487.183 479.402 487.817 479.402 488.207 479.793L494.571 486.157C494.962 486.547 494.962 487.18 494.571 487.571C494.18 487.962 493.547 487.962 493.157 487.571L487.5 481.914L481.843 487.571C481.453 487.962 480.819 487.962 480.429 487.571C480.038 487.18 480.038 486.547 480.429 486.157L486.793 479.793ZM530.5 480.5C530.5 492.51 527.847 501.476 523.762 507.433C519.669 513.401 514.121 516.355 508.47 516.187C497.134 515.85 486.5 503.186 486.5 480.5H488.5C488.5 502.814 498.865 513.9 508.53 514.188C513.379 514.332 518.33 511.817 522.113 506.302C525.903 500.774 528.5 492.24 528.5 480.5H530.5Z" fill="#F9F0D5"/>
<path d="M250.707 478.293C250.316 477.902 249.683 477.902 249.293 478.293L242.929 484.657C242.538 485.047 242.538 485.681 242.929 486.071C243.319 486.462 243.953 486.462 244.343 486.071L250 480.414L255.657 486.071C256.047 486.462 256.68 486.462 257.071 486.071C257.462 485.681 257.462 485.047 257.071 484.657L250.707 478.293ZM207 479C207 491.01 209.653 499.976 213.738 505.933C217.83 511.901 223.379 514.855 229.03 514.687C240.365 514.35 251 501.686 251 479H249C249 501.314 238.634 512.4 228.97 512.688C224.121 512.832 219.169 510.317 215.387 504.802C211.597 499.274 209 490.74 209 479H207Z" fill="#F9F0D5"/>
<path d="M89.707 481.293C89.3165 480.902 88.6833 480.902 88.2928 481.293L81.9288 487.657C81.5383 488.047 81.5383 488.681 81.9288 489.071C82.3194 489.462 82.9525 489.462 83.3431 489.071L88.9999 483.414L94.6568 489.071C95.0473 489.462 95.6805 489.462 96.071 489.071C96.4615 488.681 96.4615 488.047 96.071 487.657L89.707 481.293ZM30.9999 498C37.9647 498 45.0306 499.835 51.7885 501.939C58.4813 504.023 64.9628 506.408 70.5185 507.361C76.0949 508.317 81.1215 507.903 84.6836 504.002C88.1654 500.19 89.9999 493.288 89.9999 482H87.9999C87.9999 493.212 86.147 499.435 83.2068 502.654C80.3471 505.785 76.2174 506.308 70.8564 505.389C65.4745 504.467 59.2372 502.164 52.3832 500.03C45.5943 497.915 38.2851 496 30.9999 496V498Z" fill="#F9F0D5"/>
<path d="M8.20708 598.293C7.81656 597.903 7.18339 597.903 6.79287 598.293L0.428907 604.657C0.0383811 605.048 0.0383811 605.681 0.428907 606.071C0.819433 606.462 1.4526 606.462 1.84312 606.071L7.49997 600.414L13.1568 606.071C13.5474 606.462 14.1805 606.462 14.571 606.071C14.9616 605.681 14.9616 605.048 14.571 604.657L8.20708 598.293ZM86.4999 599C86.4999 612.359 81.6086 621.946 74.3518 628.121C67.0731 634.316 57.3297 637.15 47.5343 636.813C27.91 636.139 8.49997 622.812 8.49997 599H6.49997C6.49997 624.188 27.0899 638.112 47.4656 638.812C57.6702 639.163 67.9268 636.216 75.6481 629.644C83.3913 623.055 88.4999 612.891 88.4999 599H86.4999Z" fill="#F9F0D5"/>
<path d="M246.293 434.707C246.683 435.098 247.317 435.098 247.707 434.707L254.071 428.343C254.462 427.953 254.462 427.319 254.071 426.929C253.68 426.538 253.047 426.538 252.657 426.929L247 432.586L241.343 426.929C240.953 426.538 240.319 426.538 239.929 426.929C239.538 427.319 239.538 427.953 239.929 428.343L246.293 434.707ZM246 399L246 434L248 434L248 399H246Z" fill="#F9F0D5"/>
<path d="M489.707 398.293C489.317 397.902 488.683 397.902 488.293 398.293L481.929 404.657C481.538 405.047 481.538 405.68 481.929 406.071C482.319 406.462 482.953 406.462 483.343 406.071L489 400.414L494.657 406.071C495.047 406.462 495.681 406.462 496.071 406.071C496.462 405.68 496.462 405.047 496.071 404.657L489.707 398.293ZM326.5 399C326.5 403.378 326.539 407.013 327.996 409.805C329.516 412.716 332.442 414.519 337.593 415.679C342.731 416.836 350.306 417.402 361.437 417.666C372.587 417.93 387.384 417.891 407.004 417.813L406.996 415.813C387.366 415.891 372.601 415.93 361.485 415.666C350.351 415.403 342.956 414.836 338.032 413.728C333.12 412.622 330.89 411.026 329.769 408.879C328.586 406.611 328.5 403.529 328.5 399H326.5ZM407.004 417.813C426.623 417.734 441.574 417.695 452.955 417.402C464.321 417.109 472.198 416.562 477.638 415.448C483.072 414.336 486.3 412.615 488.074 409.785C489.804 407.025 490 403.412 490 399H488C488 403.494 487.759 406.522 486.379 408.723C485.044 410.853 482.49 412.414 477.237 413.489C471.989 414.563 464.273 415.11 452.904 415.403C441.551 415.695 426.627 415.734 406.996 415.813L407.004 417.813Z" fill="#F9F0D5"/>
<path d="M326.793 33.2071C327.183 33.5976 327.817 33.5976 328.207 33.2071L334.571 26.8431C334.962 26.4526 334.962 25.8194 334.571 25.4289C334.181 25.0384 333.547 25.0384 333.157 25.4289L327.5 31.0858L321.843 25.4289C321.453 25.0384 320.82 25.0384 320.429 25.4289C320.038 25.8194 320.038 26.4526 320.429 26.8431L326.793 33.2071ZM648.5 32.5C648.5 28.6338 648.47 25.1825 648.095 22.1451C647.719 19.0985 646.989 16.4004 645.547 14.0544C642.638 9.32201 637.039 6.34365 626.749 4.3925C616.439 2.43772 601.16 1.46893 578.545 0.984604C555.914 0.499945 525.87 0.5 486 0.5V2.5C525.88 2.5 555.898 2.50006 578.502 2.98415C601.122 3.46857 616.249 4.43728 626.376 6.3575C636.523 8.28134 641.393 11.1155 643.843 15.1018C645.081 17.1152 645.754 19.5031 646.11 22.3901C646.468 25.2862 646.5 28.6162 646.5 32.5L648.5 32.5ZM486 0.5C446.13 0.5 416.273 0.499943 393.924 0.98461C371.591 1.4689 356.683 2.43759 346.744 4.39382C336.818 6.34751 331.579 9.33628 328.96 14.0961C327.668 16.4437 327.064 19.1385 326.773 22.1722C326.483 25.1976 326.5 28.644 326.5 32.5H328.5C328.5 28.606 328.485 25.2711 328.764 22.3629C329.042 19.463 329.605 17.072 330.712 15.0602C332.89 11.1012 337.369 8.27749 347.131 6.35617C356.879 4.43741 371.627 3.4686 393.967 2.98414C416.289 2.50006 446.12 2.5 486 2.5V0.5Z" fill="#F9F0D5"/>
<path d="M446.293 479.293C446.683 478.902 447.317 478.902 447.707 479.293L454.071 485.657C454.462 486.047 454.462 486.68 454.071 487.071C453.681 487.462 453.047 487.462 452.657 487.071L447 481.414L441.343 487.071C440.953 487.462 440.319 487.462 439.929 487.071C439.538 486.68 439.538 486.047 439.929 485.657L446.293 479.293ZM367.5 480C367.5 491.556 372.38 500.014 379.684 505.571C387.017 511.151 396.848 513.841 406.734 513.688C416.62 513.534 426.463 510.539 433.811 504.872C441.134 499.225 446 490.914 446 480H448C448 491.586 442.804 500.463 435.033 506.456C427.286 512.43 417.005 515.528 406.766 515.687C396.527 515.846 386.232 513.067 378.473 507.163C370.683 501.236 365.5 492.194 365.5 480H367.5Z" fill="#F9F0D5"/>
</svg>
