<svg width="638" height="555" viewBox="0 0 638 555" fill="none" xmlns="http://www.w3.org/2000/svg">
<path d="M88.7071 300.793C88.3166 300.402 87.6834 300.402 87.2929 300.793L80.9289 307.157C80.5384 307.547 80.5384 308.181 80.9289 308.571C81.3195 308.962 81.9526 308.962 82.3431 308.571L88 302.914L93.6569 308.571C94.0474 308.962 94.6805 308.962 95.0711 308.571C95.4616 308.181 95.4616 307.547 95.0711 307.157L88.7071 300.793ZM29 359.64C38.2323 359.64 46.6113 359.642 53.9501 358.74C61.2968 357.837 67.6996 356.02 72.9514 352.315C83.5079 344.868 89 330.118 89 301.5L87 301.5C87 330.023 81.4921 343.843 71.7986 350.681C66.9254 354.118 60.8907 355.872 53.7062 356.755C46.5137 357.639 38.2677 357.64 29 357.64L29 359.64Z" fill="#F9F0D5"/>
<path d="M7.08565 252.966C7.47956 253.353 8.1127 253.347 8.49981 252.953L14.8082 246.534C15.1953 246.14 15.1898 245.507 14.7959 245.12C14.402 244.733 13.7689 244.738 13.3817 245.132L7.77429 250.838L2.06846 245.231C1.67455 244.844 1.04141 244.849 0.654297 245.243C0.267181 245.637 0.27269 246.27 0.666595 246.657L7.08565 252.966ZM66.2788 193.601C57.0468 193.681 48.6681 193.753 41.3375 194.718C33.9989 195.685 27.6121 197.558 22.3927 201.308C11.9014 208.847 6.53778 223.645 6.78662 252.261L8.78655 252.244C8.53853 223.722 13.9261 209.855 23.5598 202.933C28.4029 199.453 34.4221 197.647 41.5987 196.701C48.7832 195.755 57.0289 195.682 66.2962 195.601L66.2788 193.601Z" fill="#F9F0D5"/>
<path d="M248.556 52.8309C248.097 53.1382 247.476 53.0153 247.169 52.5564L242.162 45.0779C241.854 44.619 241.977 43.9979 242.436 43.6906C242.895 43.3833 243.516 43.5063 243.823 43.9652L248.274 50.6127L254.922 46.1618C255.381 45.8545 256.002 45.9774 256.309 46.4363C256.616 46.8953 256.494 47.5164 256.035 47.8237L248.556 52.8309ZM351.811 114.275C379.576 87.8794 387.903 65.005 384.897 47.1031C381.89 29.1998 367.478 15.8585 348.828 8.68331C330.189 1.51196 307.513 0.590959 288.357 7.38005C269.239 14.1558 253.652 28.5915 248.981 52.1942L247.019 51.8058C251.848 27.4085 268.011 12.4692 287.689 5.49494C307.33 -1.46596 330.498 -0.511961 349.547 6.81669C368.585 14.1415 383.704 27.9252 386.869 46.7719C390.034 65.62 381.174 89.1206 353.189 115.725L351.811 114.275Z" fill="#F9F0D5"/>
<path d="M206.293 219.293C206.683 218.902 207.317 218.902 207.707 219.293L214.071 225.657C214.462 226.047 214.462 226.681 214.071 227.071C213.681 227.462 213.047 227.462 212.657 227.071L207 221.414L201.343 227.071C200.953 227.462 200.319 227.462 199.929 227.071C199.538 226.681 199.538 226.047 199.929 225.657L206.293 219.293ZM206 371V220H208V371H206Z" fill="#F9F0D5"/>
<path d="M246.293 257.793C246.683 257.402 247.317 257.402 247.707 257.793L254.071 264.157C254.462 264.547 254.462 265.181 254.071 265.571C253.681 265.962 253.047 265.962 252.657 265.571L247 259.914L241.343 265.571C240.953 265.962 240.319 265.962 239.929 265.571C239.538 265.181 239.538 264.547 239.929 264.157L246.293 257.793ZM345.5 317.5C325.482 317.5 309.272 316.75 296.219 314.896C283.172 313.044 273.211 310.08 265.737 305.608C258.232 301.118 253.274 295.132 250.21 287.335C247.159 279.571 246 270.052 246 258.5L248 258.5C248 269.948 249.154 279.179 252.071 286.603C254.976 293.993 259.643 299.632 266.763 303.892C273.914 308.17 283.578 311.081 296.5 312.916C309.416 314.75 325.518 315.5 345.5 315.5V317.5Z" fill="#F9F0D5"/>
<path d="M567.293 499.293C567.683 498.902 568.317 498.902 568.707 499.293L575.071 505.657C575.462 506.047 575.462 506.681 575.071 507.071C574.681 507.462 574.047 507.462 573.657 507.071L568 501.414L562.343 507.071C561.953 507.462 561.319 507.462 560.929 507.071C560.538 506.681 560.538 506.047 560.929 505.657L567.293 499.293ZM490 500C490 508.919 494.696 515.629 501.877 520.154C509.086 524.696 518.763 527 528.5 527C538.237 527 547.914 524.696 555.123 520.154C562.304 515.629 567 508.919 567 500H569C569 509.748 563.821 517.038 556.189 521.846C548.586 526.637 538.513 529 528.5 529C518.487 529 508.414 526.637 500.811 521.846C493.179 517.038 488 509.748 488 500H490Z" fill="#F9F0D5"/>
<path d="M289.707 498.293C289.317 497.902 288.683 497.902 288.293 498.293L281.929 504.657C281.538 505.047 281.538 505.681 281.929 506.071C282.319 506.462 282.953 506.462 283.343 506.071L289 500.414L294.657 506.071C295.047 506.462 295.681 506.462 296.071 506.071C296.462 505.681 296.462 505.047 296.071 504.657L289.707 498.293ZM367 499C367 508.223 362.291 515.087 355.118 519.673C347.913 524.279 338.24 526.562 328.506 526.5C318.773 526.438 309.095 524.033 301.885 519.393C294.7 514.77 290 507.965 290 499H288C288 508.785 293.175 516.167 300.803 521.075C308.405 525.967 318.477 528.437 328.494 528.5C338.51 528.563 348.587 526.221 356.195 521.358C363.834 516.475 369 509.027 369 499H367Z" fill="#F9F0D5"/>
<path d="M407.793 498.293C408.183 497.902 408.817 497.902 409.207 498.293L415.571 504.657C415.962 505.047 415.962 505.681 415.571 506.071C415.181 506.462 414.547 506.462 414.157 506.071L408.5 500.414L402.843 506.071C402.453 506.462 401.819 506.462 401.429 506.071C401.038 505.681 401.038 505.047 401.429 504.657L407.793 498.293ZM171 499C171 517.114 185.389 530.647 207.64 539.627C229.838 548.586 259.51 552.843 289.241 552.563C318.97 552.282 348.648 547.465 370.855 538.364C393.139 529.231 407.5 515.971 407.5 499L409.5 499C409.5 517.279 394.048 531.019 371.614 540.214C349.102 549.441 319.155 554.28 289.259 554.562C259.365 554.844 229.412 550.57 206.891 541.482C184.424 532.415 169 518.386 169 499H171Z" fill="#F9F0D5"/>
<path d="M546.208 277.707C546.599 277.317 546.599 276.683 546.208 276.293L539.844 269.929C539.454 269.538 538.821 269.538 538.43 269.929C538.04 270.319 538.04 270.953 538.43 271.343L544.087 277L538.43 282.657C538.04 283.047 538.04 283.681 538.43 284.071C538.821 284.462 539.454 284.462 539.844 284.071L546.208 277.707ZM545.501 355C536.278 355 529.414 350.291 524.828 343.118C520.223 335.913 517.94 326.24 518.001 316.506C518.063 306.773 520.468 297.095 525.108 289.885C529.731 282.7 536.536 278 545.501 278V276C535.716 276 528.334 281.175 523.426 288.803C518.534 296.405 516.065 306.477 516.001 316.494C515.938 326.51 518.28 336.587 523.143 344.195C528.026 351.834 535.474 357 545.501 357V355Z" fill="#F9F0D5"/>
<path d="M589.793 396.793C589.402 397.183 589.402 397.817 589.793 398.207L596.157 404.571C596.547 404.962 597.181 404.962 597.571 404.571C597.962 404.181 597.962 403.547 597.571 403.157L591.914 397.5L597.571 391.843C597.962 391.453 597.962 390.819 597.571 390.429C597.181 390.038 596.547 390.038 596.157 390.429L589.793 396.793ZM590.5 238C606.12 238 617.587 247.688 625.116 262.531C632.653 277.389 636.155 297.277 635.813 317.233C635.471 337.187 631.288 357.087 623.573 371.961C615.852 386.847 604.718 396.5 590.5 396.5V398.5C605.782 398.5 617.46 388.091 625.349 372.882C633.243 357.663 637.467 337.438 637.812 317.267C638.158 297.098 634.628 276.861 626.9 261.626C619.163 246.375 607.13 236 590.5 236V238Z" fill="#F9F0D5"/>
<path d="M408.707 132.707C408.317 133.098 407.683 133.098 407.293 132.707L400.929 126.343C400.538 125.953 400.538 125.319 400.929 124.929C401.319 124.538 401.953 124.538 402.343 124.929L408 130.586L413.657 124.929C414.047 124.538 414.681 124.538 415.071 124.929C415.462 125.319 415.462 125.953 415.071 126.343L408.707 132.707ZM545 79.5C519.1 79.5 497.633 79.1563 479.953 79.5622C462.266 79.9683 448.484 81.1243 437.958 84.0876C427.466 87.0414 420.294 91.7663 415.705 99.2717C411.089 106.82 409 117.319 409 132H407C407 117.181 409.098 106.242 413.998 98.2283C418.925 90.1711 426.596 85.2086 437.417 82.1624C448.203 79.1257 462.203 77.9692 479.907 77.5628C497.617 77.1562 519.15 77.5 545 77.5V79.5Z" fill="#F9F0D5"/>
</svg>
