<svg width="436" height="578" viewBox="0 0 436 578" fill="none" xmlns="http://www.w3.org/2000/svg">
<path d="M434.207 497.293C434.598 497.683 434.598 498.316 434.207 498.707L427.843 505.071C427.453 505.462 426.819 505.462 426.429 505.071C426.038 504.68 426.038 504.047 426.429 503.657L432.086 498L426.429 492.343C426.038 491.953 426.038 491.319 426.429 490.929C426.819 490.538 427.453 490.538 427.843 490.929L434.207 497.293ZM433.5 577.5C421.316 577.5 412.246 572.451 406.276 564.852C400.328 557.281 397.498 547.233 397.625 537.237C397.752 527.241 400.839 517.204 406.842 509.644C412.864 502.059 421.803 497 433.5 497L433.5 499C422.447 499 414.073 503.753 408.408 510.887C402.724 518.046 399.748 527.634 399.625 537.263C399.502 546.892 402.234 556.469 407.849 563.617C413.442 570.736 421.934 575.5 433.5 575.5V577.5Z" fill="#F9F0D5"/>
<path d="M435.586 296.293C435.977 296.683 435.977 297.317 435.586 297.707L429.222 304.071C428.832 304.462 428.198 304.462 427.808 304.071C427.417 303.681 427.417 303.047 427.808 302.657L433.465 297L427.808 291.343C427.417 290.953 427.417 290.319 427.808 289.929C428.198 289.538 428.832 289.538 429.222 289.929L435.586 296.293ZM434.879 376.5C422.695 376.5 413.625 371.451 407.655 363.852C401.707 356.281 398.877 346.233 399.004 336.237C399.131 326.241 402.218 316.204 408.221 308.644C414.243 301.059 423.182 296 434.879 296L434.879 298C423.826 298 415.452 302.753 409.787 309.888C404.103 317.046 401.127 326.634 401.004 336.263C400.881 345.892 403.613 355.469 409.228 362.617C414.821 369.736 423.313 374.5 434.879 374.5V376.5Z" fill="#F9F0D5"/>
<path d="M432.207 259.293C432.598 259.684 432.598 260.317 432.207 260.707L425.843 267.071C425.453 267.462 424.819 267.462 424.429 267.071C424.038 266.681 424.038 266.047 424.429 265.657L430.086 260L424.429 254.343C424.038 253.953 424.038 253.32 424.429 252.929C424.819 252.538 425.453 252.538 425.843 252.929L432.207 259.293ZM418 201.5C418 209.192 415.631 216.74 412.956 223.658C410.25 230.657 407.293 236.886 405.906 242.25C404.528 247.579 404.836 251.554 408.148 254.31C409.864 255.739 412.471 256.92 416.3 257.739C420.123 258.557 425.102 259 431.5 259L431.5 261C425.023 261 419.892 260.553 415.882 259.695C411.876 258.838 408.925 257.558 406.868 255.847C402.633 252.322 402.535 247.296 403.969 241.75C405.394 236.24 408.469 229.718 411.091 222.936C413.744 216.072 416 208.808 416 201.5L418 201.5Z" fill="#F9F0D5"/>
<path d="M135.293 199.793C135.683 199.402 136.317 199.402 136.707 199.793L143.071 206.157C143.462 206.547 143.462 207.181 143.071 207.571C142.681 207.962 142.047 207.962 141.657 207.571L136 201.914L130.343 207.571C129.953 207.962 129.319 207.962 128.929 207.571C128.538 207.181 128.538 206.547 128.929 206.157L135.293 199.793ZM18.5 200.5C18.5 211.743 25.5599 220.149 36.4733 225.767C47.3975 231.391 62.0375 234.124 76.7416 234C91.4445 233.876 106.091 230.896 117.023 225.207C127.957 219.517 135 211.23 135 200.5H137C137 212.271 129.231 221.108 117.946 226.981C106.659 232.854 91.6805 235.874 76.7584 236C61.8375 236.126 46.8525 233.36 35.5579 227.545C24.2526 221.726 16.5 212.757 16.5 200.5H18.5Z" fill="#F9F0D5"/>
<path d="M216.207 34.707C215.817 35.0976 215.183 35.0976 214.793 34.707L208.429 28.3431C208.038 27.9526 208.038 27.3194 208.429 26.9289C208.819 26.5383 209.453 26.5383 209.843 26.9289L215.5 32.5857L221.157 26.9289C221.547 26.5383 222.181 26.5383 222.571 26.9289C222.962 27.3194 222.962 27.9526 222.571 28.3431L216.207 34.707ZM257 33.9999C257 12.236 246.556 2.25967 236.762 2.37489C226.941 2.49043 216.5 12.7494 216.5 33.9999H214.5C214.5 12.2505 225.309 0.509491 236.738 0.375029C248.194 0.24025 259 11.7639 259 33.9999H257Z" fill="#F9F0D5"/>
<path d="M0.292893 418.207C-0.0976309 417.817 -0.0976311 417.183 0.292893 416.793L6.65685 410.429C7.04738 410.038 7.68054 410.038 8.07107 410.429C8.46159 410.819 8.46159 411.453 8.07107 411.843L2.41421 417.5L8.07107 423.157C8.46159 423.547 8.46159 424.181 8.07107 424.571C7.68054 424.962 7.04738 424.962 6.65686 424.571L0.292893 418.207ZM1 298.5C21.0227 298.5 35.5039 305.989 44.8037 317.303C54.0828 328.59 58.1324 343.596 57.4991 358.542C56.2348 388.38 36.2137 418.5 1 418.5L1 416.5C34.7863 416.5 54.2652 387.62 55.5009 358.458C56.1176 343.904 52.1672 329.41 43.2588 318.573C34.3711 307.761 20.4773 300.5 1 300.5L1 298.5Z" fill="#F9F0D5"/>
</svg>
