<svg width="673" height="567" viewBox="0 0 673 567" fill="none" xmlns="http://www.w3.org/2000/svg">
<path d="M313.707 510.207C314.097 509.817 314.097 509.183 313.707 508.793L307.343 502.429C306.952 502.038 306.319 502.038 305.929 502.429C305.538 502.819 305.538 503.453 305.929 503.843L311.586 509.5L305.929 515.157C305.538 515.547 305.538 516.181 305.929 516.571C306.319 516.962 306.952 516.962 307.343 516.571L313.707 510.207ZM240.5 510.5L313 510.5L313 508.5L240.5 508.5L240.5 510.5Z" fill="#F9F0D5"/>
<path d="M593.207 511.207C593.598 510.817 593.598 510.183 593.207 509.793L586.843 503.429C586.453 503.038 585.82 503.038 585.429 503.429C585.039 503.819 585.039 504.453 585.429 504.843L591.086 510.5L585.429 516.157C585.039 516.547 585.039 517.181 585.429 517.571C585.82 517.962 586.453 517.962 586.843 517.571L593.207 511.207ZM498.5 566.5C498.5 551.667 506.755 537.956 522.659 527.908C538.578 517.851 562.126 511.5 592.5 511.5V509.5C561.875 509.5 537.922 515.899 521.591 526.217C505.245 536.544 496.5 550.833 496.5 566.5H498.5Z" fill="#F9F0D5"/>
<path d="M0.513604 188.336C0.422809 188.88 0.790829 189.396 1.3356 189.486L10.2131 190.966C10.7579 191.057 11.2731 190.689 11.3639 190.144C11.4547 189.599 11.0867 189.084 10.5419 188.993L2.65079 187.678L3.96598 179.787C4.05678 179.242 3.68876 178.727 3.14399 178.636C2.59922 178.545 2.08399 178.913 1.99319 179.458L0.513604 188.336ZM91.174 93.0547C69.0581 100.681 60.4009 114.597 50.3303 131.36C40.2809 148.088 28.7427 167.812 0.918759 187.686L2.08124 189.314C30.2572 169.188 41.9691 149.162 52.0447 132.39C62.0991 115.654 70.442 102.319 91.826 94.9454L91.174 93.0547Z" fill="#F9F0D5"/>
<path d="M593.207 471.207C593.598 470.817 593.598 470.183 593.207 469.793L586.843 463.429C586.453 463.038 585.82 463.038 585.429 463.429C585.039 463.819 585.039 464.453 585.429 464.843L591.086 470.5L585.429 476.157C585.039 476.547 585.039 477.181 585.429 477.571C585.82 477.962 586.453 477.962 586.843 477.571L593.207 471.207ZM473.5 310C457.388 310 445.166 315.463 437.082 324.318C429.008 333.161 425.15 345.29 425.563 358.469C426.389 384.821 444.269 415.502 480.053 433.394L480.947 431.606C445.731 413.997 428.362 383.929 427.562 358.406C427.163 345.647 430.898 334.057 438.559 325.666C446.209 317.287 457.862 312 473.5 312V310ZM480.053 433.394C497.796 442.266 510.721 449.072 520.886 454.303C531.039 459.528 538.46 463.193 545.143 465.747C558.581 470.881 568.996 471.5 592.5 471.5V469.5C569.004 469.5 558.919 468.869 545.857 463.878C539.291 461.369 531.961 457.753 521.802 452.525C511.654 447.303 498.704 440.484 480.947 431.606L480.053 433.394Z" fill="#F9F0D5"/>
<path d="M538.207 95.2929C537.816 94.9024 537.183 94.9024 536.793 95.2929L530.429 101.657C530.038 102.047 530.038 102.681 530.429 103.071C530.819 103.462 531.452 103.462 531.843 103.071L537.5 97.4142L543.157 103.071C543.547 103.462 544.18 103.462 544.571 103.071C544.961 102.681 544.961 102.047 544.571 101.657L538.207 95.2929ZM641 351.5C651.142 351.5 658.544 343.379 663.543 331.08C668.566 318.725 671.341 301.782 672.062 283.289C673.503 246.318 666.747 202.746 652.884 176.533L651.116 177.467C664.753 203.254 671.497 246.432 670.063 283.211C669.347 301.593 666.59 318.275 661.691 330.327C656.769 342.434 649.857 349.5 641 349.5V351.5ZM652.884 176.533C645.869 163.267 635.057 155.666 622.886 150.692C610.76 145.735 597.183 143.353 584.653 140.586C572.046 137.802 560.521 134.633 552.133 128.184C543.83 121.8 538.5 112.114 538.5 96H536.5C536.5 112.636 542.045 122.95 550.914 129.769C559.698 136.523 571.641 139.761 584.222 142.539C596.88 145.334 610.209 147.671 622.13 152.543C634.006 157.397 644.381 164.733 651.116 177.467L652.884 176.533Z" fill="#F9F0D5"/>
<path d="M215.793 165.707C216.183 166.098 216.817 166.098 217.207 165.707L223.571 159.343C223.962 158.953 223.962 158.32 223.571 157.929C223.181 157.538 222.547 157.538 222.157 157.929L216.5 163.586L210.843 157.929C210.453 157.538 209.819 157.538 209.429 157.929C209.038 158.32 209.038 158.953 209.429 159.343L215.793 165.707ZM433 109.5C383.413 109.5 367.09 115.886 355.753 122.382C350.087 125.629 345.926 128.724 339.425 131.075C332.962 133.413 324.181 135 309.5 135V137C324.319 137 333.35 135.4 340.106 132.956C346.824 130.526 351.288 127.246 356.747 124.118C367.66 117.864 383.587 111.5 433 111.5V109.5ZM309.5 135C280.054 135 256.665 134.994 240.652 138.65C232.632 140.482 226.329 143.258 222.03 147.525C217.697 151.824 215.5 157.535 215.5 165H217.5C217.5 157.965 219.552 152.801 223.439 148.944C227.358 145.055 233.243 142.393 241.098 140.6C256.835 137.006 279.946 137 309.5 137V135Z" fill="#F9F0D5"/>
<path d="M296 118L296 117H296V118ZM156.5 120.5L156.53 121.5L156.5 120.5ZM2.29289 149.293C1.90236 149.683 1.90236 150.317 2.29289 150.707L8.65685 157.071C9.04737 157.462 9.68054 157.462 10.0711 157.071C10.4616 156.681 10.4616 156.047 10.0711 155.657L4.41421 150L10.0711 144.343C10.4616 143.953 10.4616 143.319 10.0711 142.929C9.68054 142.538 9.04737 142.538 8.65685 142.929L2.29289 149.293ZM434 190.5C422.429 190.5 413.776 186.04 405.845 179.256C397.844 172.411 390.721 163.345 382.043 154.067C373.413 144.841 363.368 135.56 349.728 128.594C336.082 121.624 318.892 117 296 117L296 119C318.608 119 335.481 123.563 348.819 130.375C362.163 137.19 372.025 146.284 380.582 155.433C389.091 164.53 396.437 173.839 404.545 180.776C412.724 187.772 421.821 192.5 434 192.5V190.5ZM296 117C254.736 117 189.473 118.5 156.47 119.5L156.53 121.5C189.527 120.5 254.766 119 296 119V117ZM156.47 119.5C148.093 119.754 139.122 121.751 129.218 124.569C119.364 127.374 108.353 131.065 96.1544 134.666C71.643 141.901 41.6193 149 3 149V151C41.8807 151 72.107 143.849 96.7206 136.584C109.084 132.935 119.855 129.314 129.766 126.493C139.628 123.687 148.407 121.746 156.53 121.5L156.47 119.5Z" fill="#F9F0D5"/>
<path d="M335.793 47.207C336.183 47.5976 336.817 47.5976 337.207 47.207L343.571 40.8431C343.962 40.4526 343.962 39.8194 343.571 39.4289C343.181 39.0383 342.547 39.0383 342.157 39.4289L336.5 45.0857L330.843 39.4289C330.453 39.0383 329.819 39.0383 329.429 39.4289C329.038 39.8194 329.038 40.4526 329.429 40.8431L335.793 47.207ZM498 46.4999C498 42.6116 497.856 38.8947 496.25 35.6085C494.618 32.2671 491.556 29.5157 486.057 27.3312C480.582 25.1566 472.612 23.5105 461.025 22.4029C449.425 21.2941 434.14 20.72 414 20.72V22.72C434.11 22.72 449.325 23.2936 460.835 24.3938C472.356 25.4952 480.105 27.1193 485.318 29.1899C490.506 31.2506 493.101 33.7193 494.453 36.4865C495.832 39.3088 496 42.589 496 46.4999H498ZM414 20.72C393.865 20.72 378.925 21.1848 367.842 22.1567C356.78 23.1268 349.475 24.6082 344.666 26.688C339.792 28.7953 337.413 31.5508 336.334 35.0136C335.3 38.3364 335.5 42.2661 335.5 46.4999H337.5C337.5 42.0616 337.325 38.5577 338.244 35.6082C339.119 32.7987 341.02 30.4432 345.459 28.5237C349.962 26.5765 357.002 25.115 368.017 24.149C379.013 23.1847 393.885 22.72 414 22.72V20.72Z" fill="#F9F0D5"/>
<path d="M375.793 46.2071C376.183 46.5976 376.817 46.5976 377.207 46.2071L383.571 39.8431C383.962 39.4526 383.962 38.8195 383.571 38.4289C383.181 38.0384 382.547 38.0384 382.157 38.4289L376.5 44.0858L370.843 38.4289C370.453 38.0384 369.82 38.0384 369.429 38.4289C369.038 38.8195 369.038 39.4526 369.429 39.8431L375.793 46.2071ZM578 45.5C578 37.3655 577.536 30.3597 575.286 24.4785C573.012 18.5376 568.942 13.8096 561.896 10.1738C554.894 6.56092 544.957 4.02754 530.921 2.38955C516.872 0.750139 498.64 -1.10269e-06 475 -1.10269e-06V2C498.61 2 516.753 2.74986 530.689 4.37607C544.637 6.00371 554.293 8.50157 560.979 11.9512C567.62 15.3779 571.332 19.7436 573.418 25.1934C575.526 30.7028 576 37.3845 576 45.5H578ZM475 -1.10269e-06C451.37 -1.10269e-06 433.362 0.468516 419.649 1.75437C405.954 3.03849 396.44 5.14515 389.86 8.4832C383.212 11.8561 379.579 16.4772 377.647 22.6384C375.743 28.7133 375.5 36.2716 375.5 45.5H377.5C377.5 36.2284 377.757 28.9742 379.556 23.2366C381.327 17.5853 384.601 13.3939 390.765 10.2668C396.998 7.10485 406.202 5.02401 419.836 3.74563C433.451 2.46898 451.38 2 475 2V-1.10269e-06Z" fill="#F9F0D5"/>
<path d="M98.0207 292.901C97.4137 292.337 96.4646 292.372 95.9009 292.979L86.7148 302.872C86.1511 303.479 86.1862 304.428 86.7933 304.992C87.4004 305.556 88.3495 305.52 88.9132 304.913L97.0786 296.12L105.872 304.285C106.479 304.849 107.428 304.814 107.992 304.207C108.556 303.6 108.521 302.651 107.913 302.087L98.0207 292.901ZM175 390C156.776 390 143.127 388.966 132.826 386.207C122.577 383.462 115.728 379.033 110.978 372.263C106.185 365.434 103.413 356.065 101.674 343.205C99.9358 330.354 99.2498 314.214 98.499 293.944L95.5011 294.056C96.2504 314.286 96.9394 330.583 98.7011 343.607C100.462 356.623 103.315 366.566 108.522 373.987C113.772 381.467 121.298 386.225 132.049 389.105C142.748 391.971 156.724 393 175 393V390Z" fill="#4182FF"/>
<path d="M55.4394 487.561C56.0252 488.146 56.975 488.146 57.5608 487.561L67.1067 478.015C67.6925 477.429 67.6925 476.479 67.1067 475.893C66.5209 475.308 65.5712 475.308 64.9854 475.893L56.5001 484.379L48.0148 475.893C47.429 475.308 46.4793 475.308 45.8935 475.893C45.3077 476.479 45.3077 477.429 45.8935 478.015L55.4394 487.561ZM175 390.5C138.555 390.5 108.493 392.717 87.5745 405.919C66.4542 419.248 55.0001 443.5 55.0001 486.5L58.0001 486.5C58.0001 444 69.296 421.002 89.1756 408.456C109.257 395.783 138.445 393.5 175 393.5V390.5Z" fill="#4182FF"/>
<path d="M177.439 393.061C176.854 392.475 176.854 391.525 177.439 390.939L186.985 381.393C187.571 380.808 188.521 380.808 189.107 381.393C189.692 381.979 189.692 382.929 189.107 383.515L180.621 392L189.107 400.485C189.692 401.071 189.692 402.021 189.107 402.607C188.521 403.192 187.571 403.192 186.985 402.607L177.439 393.061ZM336.5 447C336.5 435.56 334.286 426.659 329.23 419.668C324.174 412.676 316.135 407.398 304.099 403.489C279.93 395.639 240.307 393.5 178.5 393.5V390.5C240.193 390.5 280.32 392.611 305.026 400.636C317.427 404.664 326.108 410.23 331.661 417.91C337.215 425.59 339.5 435.19 339.5 447H336.5Z" fill="#4182FF"/>
<path d="M122.598 361.123C122.043 361.123 121.547 360.988 121.109 360.719C120.676 360.445 120.334 360.049 120.084 359.529C119.834 359.01 119.709 358.381 119.709 357.643V356.494C119.709 355.592 119.844 354.834 120.113 354.221C120.387 353.603 120.762 353.137 121.238 352.82C121.719 352.504 122.27 352.346 122.891 352.346C123.18 352.346 123.467 352.379 123.752 352.445C124.041 352.512 124.279 352.596 124.467 352.697L124.244 353.559C124.061 353.469 123.859 353.396 123.641 353.342C123.422 353.283 123.172 353.254 122.891 353.254C122.293 353.254 121.816 353.48 121.461 353.934C121.109 354.383 120.922 355.062 120.898 355.973L120.922 355.996C121.141 355.793 121.408 355.633 121.725 355.516C122.041 355.395 122.383 355.334 122.75 355.334C123.258 355.334 123.699 355.455 124.074 355.697C124.449 355.936 124.738 356.266 124.941 356.687C125.148 357.109 125.252 357.59 125.252 358.129C125.252 358.719 125.143 359.238 124.924 359.687C124.705 360.137 124.396 360.488 123.998 360.742C123.6 360.996 123.133 361.123 122.598 361.123ZM122.598 360.221C123.07 360.221 123.438 360.021 123.699 359.623C123.965 359.221 124.098 358.723 124.098 358.129C124.098 357.566 123.955 357.103 123.67 356.74C123.389 356.377 122.998 356.195 122.498 356.195C122.104 356.195 121.768 356.275 121.49 356.436C121.213 356.592 121.002 356.803 120.857 357.068V357.754C120.857 358.547 121.021 359.156 121.35 359.582C121.682 360.008 122.098 360.221 122.598 360.221Z" fill="#D7D7D7"/>
<path d="M80.709 437V436.262L82.0274 436.098V429.705L80.6856 429.728V429.008L83.1817 428.469V436.098L84.4942 436.262V437H80.709ZM85.7305 438.822L85.0801 438.389C85.2637 438.107 85.4024 437.82 85.4961 437.527C85.5899 437.234 85.6367 436.924 85.6367 436.596V435.705H86.791V436.578C86.791 436.961 86.6953 437.361 86.5039 437.779C86.3125 438.197 86.0547 438.545 85.7305 438.822ZM90.8692 437V436.209L93.6641 433.103C93.9961 432.732 94.2559 432.416 94.4434 432.154C94.6309 431.889 94.7617 431.648 94.836 431.434C94.9102 431.219 94.9473 430.996 94.9473 430.766C94.9473 430.34 94.8184 429.982 94.5606 429.693C94.3027 429.4 93.9336 429.254 93.4531 429.254C92.9531 429.254 92.5625 429.404 92.2813 429.705C92.0039 430.006 91.8652 430.432 91.8652 430.982H90.7578L90.7461 430.947C90.7344 430.455 90.8379 430.014 91.0567 429.623C91.2754 429.228 91.5918 428.918 92.0059 428.691C92.4238 428.461 92.9199 428.346 93.4942 428.346C94.0332 428.346 94.4961 428.449 94.8828 428.656C95.2735 428.859 95.5742 429.139 95.7852 429.494C95.9961 429.85 96.1016 430.258 96.1016 430.719C96.1016 431.187 95.9629 431.654 95.6856 432.119C95.4121 432.584 95.0254 433.086 94.5254 433.625L92.2813 436.068L92.293 436.098H95.3223L95.416 435.119H96.3945V437H90.8692ZM97.7188 438.822L97.0684 438.389C97.252 438.107 97.3906 437.82 97.4844 437.527C97.5781 437.234 97.625 436.924 97.625 436.596V435.705H98.7793V436.578C98.7793 436.961 98.6836 437.361 98.4922 437.779C98.3008 438.197 98.043 438.545 97.7188 438.822ZM105.395 437.123C104.875 437.123 104.412 437.029 104.006 436.842C103.6 436.65 103.281 436.381 103.051 436.033C102.824 435.682 102.717 435.266 102.729 434.785L102.746 434.75H103.848C103.848 435.199 103.984 435.557 104.258 435.822C104.535 436.088 104.914 436.221 105.395 436.221C105.883 436.221 106.266 436.088 106.543 435.822C106.82 435.557 106.959 435.164 106.959 434.645C106.959 434.117 106.836 433.728 106.59 433.478C106.344 433.228 105.955 433.103 105.424 433.103H104.416V432.201H105.424C105.936 432.201 106.297 432.074 106.508 431.82C106.723 431.562 106.83 431.205 106.83 430.748C106.83 429.752 106.352 429.254 105.395 429.254C104.945 429.254 104.584 429.387 104.311 429.652C104.041 429.914 103.906 430.264 103.906 430.701H102.799L102.787 430.666C102.775 430.236 102.877 429.846 103.092 429.494C103.311 429.143 103.617 428.863 104.012 428.656C104.41 428.449 104.871 428.346 105.395 428.346C106.184 428.346 106.813 428.557 107.281 428.978C107.75 429.396 107.984 429.994 107.984 430.771C107.984 431.123 107.877 431.475 107.662 431.826C107.451 432.174 107.133 432.439 106.707 432.623C107.219 432.791 107.58 433.055 107.791 433.414C108.006 433.773 108.113 434.176 108.113 434.621C108.113 435.141 107.996 435.588 107.762 435.963C107.531 436.334 107.211 436.621 106.801 436.824C106.391 437.023 105.922 437.123 105.395 437.123ZM109.555 438.822L108.904 438.389C109.088 438.107 109.227 437.82 109.32 437.527C109.414 437.234 109.461 436.924 109.461 436.596V435.705H110.615V436.578C110.615 436.961 110.52 437.361 110.328 437.779C110.137 438.197 109.879 438.545 109.555 438.822ZM117.371 437V436.262L118.326 436.098V435.031H114.494V434.381L118.256 428.469H119.475V434.129H120.652V435.031H119.475V436.098L120.43 436.262V437H117.371ZM115.725 434.129H118.326V430.115L118.291 430.103L118.174 430.414L115.725 434.129ZM121.871 438.822L121.221 438.389C121.404 438.107 121.543 437.82 121.637 437.527C121.73 437.234 121.777 436.924 121.777 436.596V435.705H122.932V436.578C122.932 436.961 122.836 437.361 122.645 437.779C122.453 438.197 122.195 438.545 121.871 438.822ZM129.5 437.123C129.02 437.123 128.588 437.035 128.205 436.859C127.826 436.684 127.529 436.424 127.314 436.08C127.1 435.732 126.998 435.303 127.01 434.791L127.021 434.756H128.064C128.064 435.217 128.197 435.576 128.463 435.834C128.732 436.092 129.078 436.221 129.5 436.221C129.988 436.221 130.367 436.049 130.637 435.705C130.906 435.361 131.041 434.891 131.041 434.293C131.041 433.742 130.904 433.293 130.631 432.945C130.361 432.594 129.986 432.418 129.506 432.418C129.053 432.418 128.723 432.486 128.516 432.623C128.313 432.76 128.164 432.969 128.07 433.25L127.109 433.15L127.602 428.469H132.107V430.156H131.24L131.129 429.494H128.58L128.305 431.891C128.48 431.758 128.678 431.648 128.896 431.562C129.119 431.473 129.375 431.424 129.664 431.416C130.449 431.408 131.066 431.664 131.516 432.184C131.969 432.703 132.195 433.402 132.195 434.281C132.195 435.137 131.965 435.824 131.504 436.344C131.047 436.863 130.379 437.123 129.5 437.123Z" fill="#D7D7D7"/>
</svg>
