<svg width="511" height="531" viewBox="0 0 511 531" fill="none" xmlns="http://www.w3.org/2000/svg">
<path d="M40.707 282.793C41.0975 283.183 41.0975 283.817 40.707 284.207L34.343 290.571C33.9525 290.962 33.3193 290.962 32.9288 290.571C32.5383 290.181 32.5383 289.547 32.9288 289.157L38.5857 283.5L32.9288 277.843C32.5383 277.453 32.5383 276.819 32.9288 276.429C33.3193 276.038 33.9525 276.038 34.343 276.429L40.707 282.793ZM40.6356 204.5C17.7628 204.5 4.13737 223.904 3.01522 243.557C2.45566 253.357 5.02835 263.094 11.0383 270.363C17.0282 277.607 26.5132 282.5 39.9999 282.5V284.5C25.9865 284.5 15.909 279.393 9.49693 271.637C3.10489 263.906 0.436072 253.643 1.01847 243.443C2.18027 223.096 16.3727 202.5 40.6356 202.5V204.5Z" fill="#F9F0D5"/>
<path d="M300.707 300.707C300.317 301.098 299.683 301.098 299.293 300.707L292.929 294.343C292.538 293.953 292.538 293.319 292.929 292.929C293.319 292.538 293.953 292.538 294.343 292.929L300 298.586L305.657 292.929C306.047 292.538 306.681 292.538 307.071 292.929C307.462 293.319 307.462 293.953 307.071 294.343L300.707 300.707ZM324.5 275C312.36 275 306.68 277.853 303.9 282.109C302.484 284.276 301.748 286.904 301.375 289.942C301.001 292.987 301 296.36 301 300H299C299 296.39 298.999 292.888 299.39 289.698C299.783 286.502 300.578 283.537 302.225 281.016C305.57 275.897 312.14 273 324.5 273V275Z" fill="#F9F0D5"/>
<path d="M182.793 345.793C183.183 345.402 183.817 345.402 184.207 345.793L190.571 352.157C190.962 352.547 190.962 353.181 190.571 353.571C190.181 353.962 189.547 353.962 189.157 353.571L183.5 347.914L177.843 353.571C177.453 353.962 176.819 353.962 176.429 353.571C176.038 353.181 176.038 352.547 176.429 352.157L182.793 345.793ZM303 458C303 453.832 301.277 450.62 298.169 447.937C295.02 445.219 290.457 443.057 284.843 441.101C279.238 439.147 272.691 437.431 265.616 435.552C258.558 433.678 250.996 431.647 243.428 429.072C228.298 423.924 213.048 416.572 201.585 403.825C190.098 391.052 182.5 372.958 182.5 346.5H184.5C184.5 372.542 191.964 390.135 203.072 402.488C214.202 414.865 229.077 422.076 244.072 427.178C251.567 429.728 259.067 431.744 266.13 433.619C273.177 435.491 279.809 437.228 285.501 439.212C291.183 441.193 296.035 443.453 299.476 446.423C302.957 449.427 305 453.168 305 458H303Z" fill="#F9F0D5"/>
<path d="M41.4022 43.7071C41.7927 43.3166 41.7927 42.6834 41.4022 42.2929L35.0382 35.9289C34.6477 35.5384 34.0146 35.5384 33.624 35.9289C33.2335 36.3195 33.2335 36.9526 33.624 37.3431L39.2809 43L33.624 48.6569C33.2335 49.0474 33.2335 49.6805 33.624 50.0711C34.0146 50.4616 34.6477 50.4616 35.0382 50.0711L41.4022 43.7071ZM40.6951 162C29.4014 162 20.3472 154.826 13.9409 143.749C7.53555 132.674 3.88111 117.844 3.39363 102.967C2.90604 88.0868 5.59069 73.2814 11.7373 62.2363C17.8633 51.2282 27.3866 44 40.6951 44V42C26.5036 42 16.3849 49.7718 9.9897 61.2637C3.6151 72.7186 0.899283 87.9132 1.39471 103.033C1.89025 118.156 5.60231 133.326 12.2096 144.751C18.8161 156.174 28.4208 164 40.6951 164V162Z" fill="#F9F0D5"/>
<path d="M323.5 146.508C323.504 145.956 323.06 145.505 322.508 145.5L313.508 145.427C312.956 145.422 312.505 145.866 312.5 146.418C312.496 146.971 312.94 147.422 313.492 147.427L321.492 147.492L321.427 155.492C321.422 156.044 321.866 156.495 322.418 156.5C322.971 156.504 323.422 156.06 323.427 155.508L323.5 146.508ZM168.701 299.213L323.201 147.213L321.799 145.787L167.299 297.787L168.701 299.213Z" fill="#F9F0D5"/>
<path d="M483.707 202.207C484.098 201.817 484.098 201.183 483.707 200.793L477.343 194.429C476.953 194.038 476.319 194.038 475.929 194.429C475.538 194.819 475.538 195.453 475.929 195.843L481.586 201.5L475.929 207.157C475.538 207.547 475.538 208.181 475.929 208.571C476.319 208.962 476.953 208.962 477.343 208.571L483.707 202.207ZM447 202.5L483 202.5V200.5L447 200.5L447 202.5Z" fill="#F9F0D5"/>
<path d="M446.293 242.707C445.902 242.317 445.902 241.683 446.293 241.293L452.657 234.929C453.047 234.538 453.681 234.538 454.071 234.929C454.462 235.319 454.462 235.953 454.071 236.343L448.414 242L454.071 247.657C454.462 248.047 454.462 248.681 454.071 249.071C453.681 249.462 453.047 249.462 452.657 249.071L446.293 242.707ZM483 243L447 243V241L483 241L483 243Z" fill="#F9F0D5"/>
<path d="M503.707 460.207C503.317 460.598 502.683 460.598 502.293 460.207L495.929 453.843C495.538 453.453 495.538 452.819 495.929 452.429C496.319 452.038 496.953 452.038 497.343 452.429L503 458.086L508.657 452.429C509.047 452.038 509.681 452.038 510.071 452.429C510.462 452.819 510.462 453.453 510.071 453.843L503.707 460.207ZM504 385L504 459.5H502L502 385L504 385Z" fill="#F9F0D5"/>
<path d="M501.793 506.793C502.183 506.402 502.817 506.402 503.207 506.793L509.571 513.157C509.962 513.547 509.962 514.181 509.571 514.571C509.181 514.962 508.547 514.962 508.157 514.571L502.5 508.914L496.843 514.571C496.453 514.962 495.819 514.962 495.429 514.571C495.038 514.181 495.038 513.547 495.429 513.157L501.793 506.793ZM385 507.5C385 512.128 385.072 515.659 385.982 518.449C386.858 521.135 388.528 523.167 391.917 524.724C395.378 526.314 400.609 527.396 408.553 528.069C416.478 528.741 427.005 529 441 529V531C426.995 531 416.397 530.741 408.384 530.062C400.391 529.384 394.872 528.283 391.083 526.542C387.222 524.768 385.142 522.323 384.081 519.069C383.053 515.92 383 512.049 383 507.5L385 507.5ZM441 529C454.242 529 464.678 528.727 472.886 528.038C481.105 527.348 487.025 526.246 491.267 524.617C495.483 522.999 497.985 520.886 499.467 518.185C500.97 515.448 501.5 511.978 501.5 507.5H503.5C503.5 512.089 502.967 515.966 501.221 519.148C499.454 522.366 496.518 524.744 491.984 526.484C487.477 528.214 481.334 529.336 473.053 530.031C464.761 530.727 454.259 531 441 531V529Z" fill="#F9F0D5"/>
<path d="M402.207 160.293C402.598 160.683 402.598 161.317 402.207 161.707L395.843 168.071C395.453 168.462 394.819 168.462 394.429 168.071C394.038 167.681 394.038 167.047 394.429 166.657L400.086 161L394.429 155.343C394.038 154.953 394.038 154.319 394.429 153.929C394.819 153.538 395.453 153.538 395.843 153.929L402.207 160.293ZM401.5 2.49999C396.839 2.49999 393.37 2.51702 390.627 3.67864C388.005 4.78874 385.92 7.01859 384.313 11.8766C382.691 16.7765 381.605 24.2129 380.931 35.5204C380.259 46.8095 380 61.8785 380 82H378C378 61.8715 378.258 46.753 378.935 35.4015C379.61 24.0684 380.706 16.411 382.414 11.2484C384.136 6.04392 386.528 3.24252 389.847 1.83698C393.044 0.482981 396.978 0.499994 401.5 0.499994V2.49999ZM380 82C380 103.866 380.475 119.709 381.416 131.176C382.36 142.668 383.766 149.671 385.58 153.92C386.481 156.03 387.462 157.412 388.494 158.327C389.515 159.233 390.636 159.725 391.895 159.981C393.176 160.241 394.596 160.256 396.216 160.195C397.798 160.135 399.615 160 401.5 160L401.5 162C399.659 162 397.978 162.13 396.291 162.194C394.643 162.256 393.024 162.251 391.497 161.941C389.948 161.626 388.491 160.998 387.167 159.823C385.853 158.658 384.721 157.001 383.741 154.705C381.792 150.141 380.369 142.863 379.423 131.34C378.475 119.791 378 103.884 378 82H380Z" fill="#F9F0D5"/>
</svg>
