<svg width="685" height="638" viewBox="0 0 685 638" fill="none" xmlns="http://www.w3.org/2000/svg">
<path d="M286.293 637.707C286.683 638.098 287.317 638.098 287.707 637.707L294.071 631.343C294.462 630.953 294.462 630.319 294.071 629.929C293.681 629.538 293.047 629.538 292.657 629.929L287 635.586L281.343 629.929C280.953 629.538 280.319 629.538 279.929 629.929C279.538 630.319 279.538 630.953 279.929 631.343L286.293 637.707ZM270 543C273.774 543 276.515 544.073 278.625 546.711C280.8 549.43 282.394 553.916 283.512 560.969C285.747 575.059 286 598.712 286 637H288C288 598.788 287.753 574.941 285.488 560.656C284.356 553.522 282.699 548.602 280.187 545.461C277.61 542.24 274.226 541 270 541V543Z" fill="#F9F0D5"/>
<path d="M188.793 461.207C188.402 460.817 188.402 460.184 188.793 459.793L195.157 453.429C195.547 453.039 196.181 453.039 196.571 453.429C196.962 453.82 196.962 454.453 196.571 454.843L190.914 460.5L196.571 466.157C196.962 466.548 196.962 467.181 196.571 467.571C196.181 467.962 195.547 467.962 195.157 467.571L188.793 461.207ZM223.5 461.5L189.5 461.5L189.5 459.5L223.5 459.5V461.5Z" fill="#F9F0D5"/>
<path d="M190.793 381.207C190.402 380.817 190.402 380.184 190.793 379.793L197.157 373.429C197.547 373.039 198.181 373.039 198.571 373.429C198.962 373.82 198.962 374.453 198.571 374.843L192.914 380.5L198.571 386.157C198.962 386.548 198.962 387.181 198.571 387.571C198.181 387.962 197.547 387.962 197.157 387.571L190.793 381.207ZM247.5 324C247.5 334.92 244.205 349.266 235.553 360.909C226.867 372.596 212.822 381.5 191.5 381.5V379.5C212.178 379.5 225.633 370.905 233.947 359.716C242.295 348.484 245.5 334.58 245.5 324H247.5Z" fill="#F9F0D5"/>
<path d="M326.293 163.293C326.683 162.902 327.317 162.902 327.707 163.293L334.071 169.657C334.462 170.047 334.462 170.681 334.071 171.071C333.681 171.462 333.047 171.462 332.657 171.071L327 165.414L321.343 171.071C320.953 171.462 320.319 171.462 319.929 171.071C319.538 170.681 319.538 170.047 319.929 169.657L326.293 163.293ZM206.5 164C206.5 177.697 213.837 187.747 224.994 194.359C236.183 200.989 251.175 204.123 266.234 203.875C281.291 203.627 296.294 200 307.499 193.238C318.688 186.485 326 176.674 326 164H328C328 177.576 320.125 187.953 308.532 194.95C296.956 201.937 281.585 205.623 266.266 205.875C250.95 206.127 235.567 202.948 223.975 196.079C212.35 189.191 204.5 178.553 204.5 164H206.5Z" fill="#F9F0D5"/>
<path d="M328.707 118.707C328.317 119.098 327.683 119.098 327.293 118.707L320.929 112.343C320.538 111.953 320.538 111.32 320.929 110.929C321.319 110.538 321.953 110.538 322.343 110.929L328 116.586L333.657 110.929C334.047 110.538 334.681 110.538 335.071 110.929C335.462 111.32 335.462 111.953 335.071 112.343L328.707 118.707ZM245.5 118C245.5 103.128 250.687 91.8899 258.543 84.3714C266.386 76.8651 276.829 73.1251 287.25 73.1251C297.672 73.1251 308.114 76.8651 315.957 84.3714C323.813 91.8899 329 103.128 329 118H327C327 103.622 322 92.9227 314.574 85.8163C307.136 78.6976 297.204 75.1251 287.25 75.1251C277.297 75.1251 267.364 78.6976 259.926 85.8163C252.5 92.9227 247.5 103.622 247.5 118H245.5Z" fill="#F9F0D5"/>
<path d="M567.293 162.293C567.683 161.902 568.317 161.902 568.707 162.293L575.071 168.657C575.462 169.047 575.462 169.681 575.071 170.071C574.681 170.462 574.047 170.462 573.657 170.071L568 164.414L562.343 170.071C561.953 170.462 561.319 170.462 560.929 170.071C560.538 169.681 560.538 169.047 560.929 168.657L567.293 162.293ZM607.993 163.122C606.427 175.908 596.227 183.107 586.415 183.499C581.502 183.696 576.634 182.19 572.988 178.777C569.332 175.354 567 170.103 567 163H569C569 169.647 571.168 174.334 574.355 177.317C577.553 180.31 581.873 181.679 586.335 181.501C595.273 181.143 604.573 174.592 606.007 162.879L607.993 163.122Z" fill="#F9F0D5"/>
<path d="M605.793 82.293C606.183 81.9025 606.817 81.9025 607.207 82.293L613.571 88.6569C613.962 89.0475 613.962 89.6806 613.571 90.0712C613.181 90.4617 612.547 90.4617 612.157 90.0712L606.5 84.4143L600.843 90.0712C600.453 90.4617 599.819 90.4617 599.429 90.0712C599.038 89.6806 599.038 89.0475 599.429 88.6569L605.793 82.293ZM565.5 117.5C565.5 113.524 566.14 110.452 567.324 108.085C568.518 105.7 570.235 104.086 572.281 103C574.306 101.924 576.627 101.377 579.028 101.066C581.424 100.755 583.977 100.672 586.456 100.564C591.51 100.342 596.223 100.004 599.706 97.7468C603.069 95.5679 605.5 91.4297 605.5 83.0001H607.5C607.5 91.8205 604.931 96.7448 600.794 99.4253C596.777 102.028 591.49 102.345 586.544 102.562C584.023 102.672 581.576 102.753 579.285 103.049C576.998 103.346 574.944 103.85 573.219 104.766C571.515 105.672 570.107 106.992 569.113 108.98C568.11 110.986 567.5 113.726 567.5 117.5L565.5 117.5Z" fill="#F9F0D5"/>
<path d="M124.293 563.293C124.683 562.903 125.317 562.903 125.707 563.293L132.071 569.657C132.462 570.048 132.462 570.681 132.071 571.071C131.681 571.462 131.047 571.462 130.657 571.071L125 565.415L119.343 571.071C118.953 571.462 118.319 571.462 117.929 571.071C117.538 570.681 117.538 570.048 117.929 569.657L124.293 563.293ZM86 636C86 627.282 88.4477 621.61 92.1747 617.213C95.8336 612.896 100.745 609.817 105.4 606.325C110.103 602.798 114.721 598.745 118.183 592.352C121.647 585.956 124 577.131 124 564H126C126 577.37 123.603 586.544 119.942 593.305C116.279 600.068 111.397 604.328 106.6 607.925C101.755 611.559 97.1664 614.417 93.7003 618.506C90.3023 622.515 88 627.719 88 636H86Z" fill="#F9F0D5"/>
<path d="M544.207 540.707C544.598 540.317 544.598 539.683 544.207 539.293L537.843 532.929C537.453 532.538 536.819 532.538 536.429 532.929C536.038 533.319 536.038 533.953 536.429 534.343L542.086 540L536.429 545.657C536.038 546.047 536.038 546.681 536.429 547.071C536.819 547.462 537.453 547.462 537.843 547.071L544.207 540.707ZM527 636.5C527 618.433 525.243 603.349 523.324 590.895C521.397 578.384 519.337 568.687 518.684 561.164C518.03 553.634 518.849 548.771 522.242 545.694C525.707 542.552 532.126 541 543.5 541V539C532.124 539 524.981 540.51 520.899 544.212C516.745 547.979 516.032 553.741 516.691 561.336C517.351 568.938 519.447 578.866 521.348 591.199C523.257 603.589 525 618.567 525 636.5H527Z" fill="#F9F0D5"/>
<path d="M408.5 464L408.507 465L408.5 464ZM325.793 443.793C326.183 443.403 326.817 443.403 327.207 443.793L333.571 450.157C333.962 450.548 333.962 451.181 333.571 451.571C333.181 451.962 332.547 451.962 332.157 451.571L326.5 445.914L320.843 451.571C320.453 451.962 319.819 451.962 319.429 451.571C319.038 451.181 319.038 450.548 319.429 450.157L325.793 443.793ZM489 444.5C489 448.693 488.195 452.195 485.755 455.002C483.336 457.785 479.441 459.733 473.61 461.141C461.973 463.951 441.967 464.75 408.507 465L408.493 463C442.033 462.75 461.777 461.941 473.14 459.197C478.809 457.828 482.226 456.013 484.245 453.69C486.242 451.393 487 448.449 487 444.5H489ZM408.507 465C375.066 465.25 354.429 465.257 342.173 462.73C336.028 461.463 331.805 459.526 329.141 456.505C326.458 453.464 325.5 449.491 325.5 444.5H327.5C327.5 449.259 328.417 452.661 330.641 455.182C332.882 457.724 336.597 459.538 342.577 460.771C354.571 463.244 374.934 463.251 408.493 463L408.507 465Z" fill="#F9F0D5"/>
<path d="M407.207 38.7071C406.817 39.0976 406.183 39.0976 405.793 38.7071L399.429 32.3431C399.038 31.9526 399.038 31.3195 399.429 30.9289C399.819 30.5384 400.453 30.5384 400.843 30.9289L406.5 36.5858L412.157 30.9289C412.547 30.5384 413.181 30.5384 413.571 30.9289C413.962 31.3195 413.962 31.9526 413.571 32.3431L407.207 38.7071ZM566 38C566 34.4483 565.063 31.6714 562.756 29.4279C560.403 27.1401 556.522 25.3031 550.403 23.9126C538.161 21.1302 517.529 20.2498 484.007 20.5L483.993 18.5C517.471 18.2502 538.339 19.1198 550.847 21.9624C557.103 23.3844 561.409 25.3286 564.15 27.994C566.937 30.7036 568 34.0517 568 38H566ZM484.007 20.5C467.25 20.625 454.047 20.6875 443.655 20.9996C433.252 21.3119 425.734 21.8735 420.325 22.9797C414.909 24.0876 411.784 25.7087 409.971 27.9962C408.156 30.286 407.5 33.4363 407.5 38H405.5C405.5 33.3137 406.156 29.589 408.404 26.7538C410.653 23.9163 414.341 22.1624 419.925 21.0203C425.516 19.8765 433.185 19.3131 443.595 19.0005C454.016 18.6875 467.25 18.625 483.993 18.5L484.007 20.5Z" fill="#F9F0D5"/>
<path d="M407.207 242.293C406.817 241.902 406.183 241.902 405.793 242.293L399.429 248.657C399.038 249.047 399.038 249.681 399.429 250.071C399.819 250.462 400.453 250.462 400.843 250.071L406.5 244.414L412.157 250.071C412.547 250.462 413.181 250.462 413.571 250.071C413.962 249.681 413.962 249.047 413.571 248.657L407.207 242.293ZM566 243C566 246.552 565.063 249.329 562.756 251.572C560.403 253.86 556.522 255.697 550.403 257.087C538.161 259.87 517.529 260.75 484.007 260.5L483.993 262.5C517.471 262.75 538.339 261.88 550.847 259.038C557.103 257.616 561.409 255.671 564.15 253.006C566.937 250.296 568 246.948 568 243H566ZM484.007 260.5C467.25 260.375 454.047 260.313 443.655 260.001C433.252 259.688 425.734 259.127 420.325 258.02C414.909 256.912 411.784 255.291 409.971 253.004C408.156 250.714 407.5 247.564 407.5 243H405.5C405.5 247.686 406.156 251.411 408.404 254.246C410.653 257.084 414.341 258.838 419.925 259.98C425.516 261.124 433.185 261.687 443.595 262C454.016 262.313 467.25 262.375 483.993 262.5L484.007 260.5Z" fill="#F9F0D5"/>
<path d="M23.2477 259.293C23.6382 259.683 23.6382 260.317 23.2477 260.707L16.8837 267.071C16.4932 267.462 15.86 267.462 15.4695 267.071C15.079 266.68 15.079 266.047 15.4695 265.657L21.1264 260L15.4695 254.343C15.079 253.953 15.079 253.319 15.4695 252.929C15.86 252.538 16.4932 252.538 16.8837 252.929L23.2477 259.293ZM23.5406 182C19.7494 182 16.5975 181.973 13.9273 182.519C11.3151 183.052 9.23749 184.121 7.57976 186.294C5.88919 188.51 4.56714 191.961 3.69757 197.4C2.82974 202.828 2.42644 210.139 2.49997 219.993L0.500027 220.007C0.426169 210.11 0.829255 202.672 1.72265 197.084C2.6143 191.507 4.00832 187.678 5.98975 185.081C8.00401 182.441 10.5543 181.166 13.5271 180.559C16.4417 179.964 19.8318 180 23.5406 180V182ZM2.49997 219.993C2.57367 229.868 2.76944 237.266 3.30576 242.818C3.84429 248.393 4.71699 251.978 6.06025 254.314C7.35532 256.566 9.12396 257.719 11.7192 258.331C14.3989 258.963 17.8787 259 22.5406 259V261C17.9525 261 14.2141 260.974 11.2603 260.278C8.22214 259.562 5.94215 258.121 4.32642 255.311C2.75889 252.585 1.85861 248.638 1.31502 243.01C0.769215 237.36 0.573716 229.882 0.500027 220.007L2.49997 219.993Z" fill="#F9F0D5"/>
<path d="M211.061 277.561C210.475 278.146 209.525 278.146 208.939 277.561L199.393 268.015C198.808 267.429 198.808 266.479 199.393 265.893C199.979 265.308 200.929 265.308 201.515 265.893L210 274.379L218.485 265.893C219.071 265.308 220.021 265.308 220.607 265.893C221.192 266.479 221.192 267.429 220.607 268.015L211.061 277.561ZM169 218.5C179.365 218.5 190.265 218.432 198.394 225.962C206.515 233.484 211.5 248.19 211.5 276.5H208.5C208.5 248.311 203.485 234.767 196.356 228.163C189.235 221.568 179.635 221.5 169 221.5V218.5Z" fill="#4182FF"/>
<path d="M70.4393 302.061C69.8536 301.475 69.8536 300.525 70.4393 299.939L79.9853 290.393C80.5711 289.808 81.5208 289.808 82.1066 290.393C82.6924 290.979 82.6924 291.929 82.1066 292.515L73.6213 301L82.1066 309.485C82.6924 310.071 82.6924 311.021 82.1066 311.607C81.5208 312.192 80.5711 312.192 79.9853 311.607L70.4393 302.061ZM166.5 221C148.557 221 137.394 225.995 129.774 233.316C122.089 240.699 117.841 250.591 114.03 260.776C110.265 270.836 106.895 281.31 100.896 289.175C94.7757 297.199 85.9542 302.5 71.5 302.5V299.5C85.0458 299.5 92.9743 294.614 98.5105 287.356C104.167 279.94 107.36 270.039 111.22 259.724C115.034 249.534 119.473 239.052 127.695 231.153C135.981 223.193 147.943 218 166.5 218V221Z" fill="#4182FF"/>
<path d="M169.061 217.939C168.475 217.354 167.525 217.354 166.939 217.939L157.393 227.485C156.808 228.071 156.808 229.021 157.393 229.607C157.979 230.192 158.929 230.192 159.515 229.607L168 221.121L176.485 229.607C177.071 230.192 178.021 230.192 178.607 229.607C179.192 229.021 179.192 228.071 178.607 227.485L169.061 217.939ZM169.5 276V219H166.5V276H169.5Z" fill="#4182FF"/>
<path d="M95.0586 235.123C94.5781 235.123 94.1465 235.035 93.7637 234.859C93.3848 234.684 93.0879 234.424 92.873 234.08C92.6582 233.732 92.5566 233.303 92.5684 232.791L92.5801 232.756H93.623C93.623 233.217 93.7559 233.576 94.0215 233.834C94.291 234.092 94.6367 234.221 95.0586 234.221C95.5469 234.221 95.9258 234.049 96.1953 233.705C96.4648 233.361 96.5996 232.891 96.5996 232.293C96.5996 231.742 96.4629 231.293 96.1895 230.945C95.9199 230.594 95.5449 230.418 95.0645 230.418C94.6113 230.418 94.2812 230.486 94.0742 230.623C93.8711 230.76 93.7227 230.969 93.6289 231.25L92.668 231.15L93.1602 226.469H97.666V228.156H96.7988L96.6875 227.494H94.1387L93.8633 229.891C94.0391 229.758 94.2363 229.648 94.4551 229.563C94.6777 229.473 94.9336 229.424 95.2227 229.416C96.0078 229.408 96.625 229.664 97.0742 230.184C97.5273 230.703 97.7539 231.402 97.7539 232.281C97.7539 233.137 97.5234 233.824 97.0625 234.344C96.6055 234.863 95.9375 235.123 95.0586 235.123ZM99.125 236.822L98.4746 236.389C98.6582 236.107 98.7969 235.82 98.8906 235.527C98.9844 235.234 99.0312 234.924 99.0312 234.596V233.705H100.186V234.578C100.186 234.961 100.09 235.361 99.8984 235.779C99.707 236.197 99.4492 236.545 99.125 236.822ZM107.293 235.123C106.738 235.123 106.242 234.988 105.805 234.719C105.371 234.445 105.029 234.049 104.779 233.529C104.529 233.01 104.404 232.381 104.404 231.643V230.494C104.404 229.592 104.539 228.834 104.809 228.221C105.082 227.604 105.457 227.137 105.934 226.82C106.414 226.504 106.965 226.346 107.586 226.346C107.875 226.346 108.162 226.379 108.447 226.445C108.736 226.512 108.975 226.596 109.162 226.697L108.939 227.559C108.756 227.469 108.555 227.397 108.336 227.342C108.117 227.283 107.867 227.254 107.586 227.254C106.988 227.254 106.512 227.481 106.156 227.934C105.805 228.383 105.617 229.063 105.594 229.973L105.617 229.996C105.836 229.793 106.104 229.633 106.42 229.516C106.736 229.395 107.078 229.334 107.445 229.334C107.953 229.334 108.395 229.455 108.77 229.697C109.145 229.936 109.434 230.266 109.637 230.688C109.844 231.109 109.947 231.59 109.947 232.129C109.947 232.719 109.838 233.238 109.619 233.688C109.4 234.137 109.092 234.488 108.693 234.742C108.295 234.996 107.828 235.123 107.293 235.123ZM107.293 234.221C107.766 234.221 108.133 234.022 108.395 233.623C108.66 233.221 108.793 232.723 108.793 232.129C108.793 231.566 108.65 231.104 108.365 230.74C108.084 230.377 107.693 230.195 107.193 230.195C106.799 230.195 106.463 230.275 106.186 230.436C105.908 230.592 105.697 230.803 105.553 231.068V231.754C105.553 232.547 105.717 233.156 106.045 233.582C106.377 234.008 106.793 234.221 107.293 234.221Z" fill="#D7D7D7"/>
<path d="M219.709 237V236.262L221.027 236.098V229.705L219.686 229.729V229.008L222.182 228.469V236.098L223.494 236.262V237H219.709ZM224.73 238.822L224.08 238.389C224.264 238.107 224.402 237.82 224.496 237.527C224.59 237.234 224.637 236.924 224.637 236.596V235.705H225.791V236.578C225.791 236.961 225.695 237.361 225.504 237.779C225.312 238.197 225.055 238.545 224.73 238.822ZM229.869 237V236.209L232.664 233.104C232.996 232.732 233.256 232.416 233.443 232.154C233.631 231.889 233.762 231.648 233.836 231.434C233.91 231.219 233.947 230.996 233.947 230.766C233.947 230.34 233.818 229.982 233.561 229.693C233.303 229.4 232.934 229.254 232.453 229.254C231.953 229.254 231.562 229.404 231.281 229.705C231.004 230.006 230.865 230.432 230.865 230.982H229.758L229.746 230.947C229.734 230.455 229.838 230.014 230.057 229.623C230.275 229.229 230.592 228.918 231.006 228.691C231.424 228.461 231.92 228.346 232.494 228.346C233.033 228.346 233.496 228.449 233.883 228.656C234.273 228.859 234.574 229.139 234.785 229.494C234.996 229.85 235.102 230.258 235.102 230.719C235.102 231.188 234.963 231.654 234.686 232.119C234.412 232.584 234.025 233.086 233.525 233.625L231.281 236.068L231.293 236.098H234.322L234.416 235.119H235.395V237H229.869ZM236.719 238.822L236.068 238.389C236.252 238.107 236.391 237.82 236.484 237.527C236.578 237.234 236.625 236.924 236.625 236.596V235.705H237.779V236.578C237.779 236.961 237.684 237.361 237.492 237.779C237.301 238.197 237.043 238.545 236.719 238.822ZM244.395 237.123C243.875 237.123 243.412 237.029 243.006 236.842C242.6 236.65 242.281 236.381 242.051 236.033C241.824 235.682 241.717 235.266 241.729 234.785L241.746 234.75H242.848C242.848 235.199 242.984 235.557 243.258 235.822C243.535 236.088 243.914 236.221 244.395 236.221C244.883 236.221 245.266 236.088 245.543 235.822C245.82 235.557 245.959 235.164 245.959 234.645C245.959 234.117 245.836 233.729 245.59 233.479C245.344 233.229 244.955 233.104 244.424 233.104H243.416V232.201H244.424C244.936 232.201 245.297 232.074 245.508 231.82C245.723 231.563 245.83 231.205 245.83 230.748C245.83 229.752 245.352 229.254 244.395 229.254C243.945 229.254 243.584 229.387 243.311 229.652C243.041 229.914 242.906 230.264 242.906 230.701H241.799L241.787 230.666C241.775 230.236 241.877 229.846 242.092 229.494C242.311 229.143 242.617 228.863 243.012 228.656C243.41 228.449 243.871 228.346 244.395 228.346C245.184 228.346 245.812 228.557 246.281 228.979C246.75 229.397 246.984 229.994 246.984 230.772C246.984 231.123 246.877 231.475 246.662 231.826C246.451 232.174 246.133 232.439 245.707 232.623C246.219 232.791 246.58 233.055 246.791 233.414C247.006 233.773 247.113 234.176 247.113 234.621C247.113 235.141 246.996 235.588 246.762 235.963C246.531 236.334 246.211 236.621 245.801 236.824C245.391 237.023 244.922 237.123 244.395 237.123ZM248.555 238.822L247.904 238.389C248.088 238.107 248.227 237.82 248.32 237.527C248.414 237.234 248.461 236.924 248.461 236.596V235.705H249.615V236.578C249.615 236.961 249.52 237.361 249.328 237.779C249.137 238.197 248.879 238.545 248.555 238.822ZM256.371 237V236.262L257.326 236.098V235.031H253.494V234.381L257.256 228.469H258.475V234.129H259.652V235.031H258.475V236.098L259.43 236.262V237H256.371ZM254.725 234.129H257.326V230.115L257.291 230.104L257.174 230.414L254.725 234.129Z" fill="#D7D7D7"/>
<path d="M483 11.5V13V11.5ZM246.441 23.0606C245.855 22.4748 245.855 21.5251 246.441 20.9393L255.987 11.3933C256.573 10.8075 257.522 10.8075 258.108 11.3933C258.694 11.9791 258.694 12.9289 258.108 13.5146L249.623 21.9999L258.108 30.4852C258.694 31.071 258.694 32.0207 258.108 32.6065C257.522 33.1923 256.573 33.1923 255.987 32.6065L246.441 23.0606ZM606.001 38.9999C606.001 36.7844 606.153 34.4324 604.677 31.8647C603.205 29.3038 599.952 26.3048 592.527 23.4634C577.624 17.7597 546.749 13 483 13V10C546.751 10 578.127 14.7403 593.599 20.6616C601.363 23.6326 605.328 26.9773 607.278 30.3696C609.224 33.755 609.001 36.9655 609.001 38.9999L606.001 38.9999ZM483 13C419.29 13 363.138 15.6233 321.567 18.247C300.782 19.5588 283.643 20.8706 271.024 21.8548C258.461 22.8346 250.268 23.4999 247.502 23.4999L247.502 20.4999C250.114 20.4999 258.111 19.8528 270.791 18.8638C283.414 17.8793 300.571 16.5661 321.378 15.2529C362.992 12.6266 419.21 9.99996 483 10V13Z" fill="#4182FF"/>
<path d="M166.545 37.8977C165.773 38.1984 164.903 37.8163 164.602 37.0444L159.703 24.4648C159.402 23.6929 159.784 22.8234 160.556 22.5227C161.328 22.2221 162.198 22.6041 162.498 23.3761L166.853 34.5579L178.035 30.2028C178.807 29.9022 179.677 30.2842 179.977 31.0562C180.278 31.8281 179.896 32.6976 179.124 32.9983L166.545 37.8977ZM248.146 24.2327C229.572 11.3553 212.848 6.69649 199.134 9.10243C185.493 11.4957 174.473 20.945 167.373 37.1034L164.627 35.8966C172.027 19.055 183.757 8.75435 198.616 6.14756C213.402 3.55351 230.928 8.64474 249.855 21.7673L248.146 24.2327Z" fill="#4182FF"/>
<path d="M206.439 115.561C207.025 116.146 207.975 116.146 208.561 115.561L218.107 106.015C218.693 105.429 218.693 104.479 218.107 103.893C217.521 103.308 216.571 103.308 215.985 103.893L207.5 112.379L199.015 103.893C198.429 103.308 197.479 103.308 196.894 103.893C196.308 104.479 196.308 105.429 196.894 106.015L206.439 115.561ZM245.502 23.4297C244.758 39.2868 241.946 49.693 238.22 57.1584C234.502 64.6102 229.823 69.2413 225.117 73.5144C220.436 77.7641 215.572 81.776 211.961 87.8422C208.32 93.96 206 102.056 206 114.5H209C209 102.444 211.243 94.915 214.539 89.3765C217.866 83.7865 222.314 80.1109 227.133 75.7356C231.927 71.3837 236.936 66.4523 240.905 58.4978C244.867 50.557 247.742 39.7132 248.498 23.5702L245.502 23.4297Z" fill="#4182FF"/>
<path d="M204.059 66.123C203.578 66.123 203.146 66.0352 202.764 65.8594C202.385 65.6836 202.088 65.4238 201.873 65.0801C201.658 64.7324 201.557 64.3027 201.568 63.791L201.58 63.7559H202.623C202.623 64.2168 202.756 64.5762 203.021 64.834C203.291 65.0918 203.637 65.2207 204.059 65.2207C204.547 65.2207 204.926 65.0488 205.195 64.7051C205.465 64.3613 205.6 63.8906 205.6 63.293C205.6 62.7422 205.463 62.293 205.189 61.9453C204.92 61.5938 204.545 61.418 204.064 61.418C203.611 61.418 203.281 61.4863 203.074 61.623C202.871 61.7598 202.723 61.9688 202.629 62.25L201.668 62.1504L202.16 57.4688H206.666V59.1562H205.799L205.688 58.4941H203.139L202.863 60.8906C203.039 60.7578 203.236 60.6484 203.455 60.5625C203.678 60.4727 203.934 60.4238 204.223 60.416C205.008 60.4082 205.625 60.6641 206.074 61.1836C206.527 61.7031 206.754 62.4023 206.754 63.2812C206.754 64.1367 206.523 64.8242 206.062 65.3438C205.605 65.8633 204.938 66.123 204.059 66.123ZM208.125 67.8223L207.475 67.3887C207.658 67.1074 207.797 66.8203 207.891 66.5273C207.984 66.2344 208.031 65.9238 208.031 65.5957V64.7051H209.186V65.5781C209.186 65.9609 209.09 66.3613 208.898 66.7793C208.707 67.1973 208.449 67.5449 208.125 67.8223ZM216.293 66.123C215.738 66.123 215.242 65.9883 214.805 65.7188C214.371 65.4453 214.029 65.0488 213.779 64.5293C213.529 64.0098 213.404 63.3809 213.404 62.6426V61.4941C213.404 60.5918 213.539 59.834 213.809 59.2207C214.082 58.6035 214.457 58.1367 214.934 57.8203C215.414 57.5039 215.965 57.3457 216.586 57.3457C216.875 57.3457 217.162 57.3789 217.447 57.4453C217.736 57.5117 217.975 57.5957 218.162 57.6973L217.939 58.5586C217.756 58.4688 217.555 58.3965 217.336 58.3418C217.117 58.2832 216.867 58.2539 216.586 58.2539C215.988 58.2539 215.512 58.4805 215.156 58.9336C214.805 59.3828 214.617 60.0625 214.594 60.9727L214.617 60.9961C214.836 60.793 215.104 60.6328 215.42 60.5156C215.736 60.3945 216.078 60.334 216.445 60.334C216.953 60.334 217.395 60.4551 217.77 60.6973C218.145 60.9355 218.434 61.2656 218.637 61.6875C218.844 62.1094 218.947 62.5898 218.947 63.1289C218.947 63.7188 218.838 64.2383 218.619 64.6875C218.4 65.1367 218.092 65.4883 217.693 65.7422C217.295 65.9961 216.828 66.123 216.293 66.123ZM216.293 65.2207C216.766 65.2207 217.133 65.0215 217.395 64.623C217.66 64.2207 217.793 63.7227 217.793 63.1289C217.793 62.5664 217.65 62.1035 217.365 61.7402C217.084 61.377 216.693 61.1953 216.193 61.1953C215.799 61.1953 215.463 61.2754 215.186 61.4355C214.908 61.5918 214.697 61.8027 214.553 62.0684V62.7539C214.553 63.5469 214.717 64.1562 215.045 64.582C215.377 65.0078 215.793 65.2207 216.293 65.2207Z" fill="#D7D7D7"/>
<path d="M131.709 13V12.2617L133.027 12.0977V5.70508L131.686 5.72852V5.00781L134.182 4.46875V12.0977L135.494 12.2617V13H131.709ZM136.73 14.8223L136.08 14.3887C136.264 14.1074 136.402 13.8203 136.496 13.5273C136.59 13.2344 136.637 12.9238 136.637 12.5957V11.7051H137.791V12.5781C137.791 12.9609 137.695 13.3613 137.504 13.7793C137.312 14.1973 137.055 14.5449 136.73 14.8223ZM141.869 13V12.209L144.664 9.10352C144.996 8.73242 145.256 8.41602 145.443 8.1543C145.631 7.88867 145.762 7.64844 145.836 7.43359C145.91 7.21875 145.947 6.99609 145.947 6.76562C145.947 6.33984 145.818 5.98242 145.561 5.69336C145.303 5.40039 144.934 5.25391 144.453 5.25391C143.953 5.25391 143.562 5.4043 143.281 5.70508C143.004 6.00586 142.865 6.43164 142.865 6.98242H141.758L141.746 6.94727C141.734 6.45508 141.838 6.01367 142.057 5.62305C142.275 5.22852 142.592 4.91797 143.006 4.69141C143.424 4.46094 143.92 4.3457 144.494 4.3457C145.033 4.3457 145.496 4.44922 145.883 4.65625C146.273 4.85938 146.574 5.13867 146.785 5.49414C146.996 5.84961 147.102 6.25781 147.102 6.71875C147.102 7.1875 146.963 7.6543 146.686 8.11914C146.412 8.58398 146.025 9.08594 145.525 9.625L143.281 12.0684L143.293 12.0977H146.322L146.416 11.1191H147.395V13H141.869ZM148.719 14.8223L148.068 14.3887C148.252 14.1074 148.391 13.8203 148.484 13.5273C148.578 13.2344 148.625 12.9238 148.625 12.5957V11.7051H149.779V12.5781C149.779 12.9609 149.684 13.3613 149.492 13.7793C149.301 14.1973 149.043 14.5449 148.719 14.8223ZM156.395 13.123C155.875 13.123 155.412 13.0293 155.006 12.8418C154.6 12.6504 154.281 12.3809 154.051 12.0332C153.824 11.6816 153.717 11.2656 153.729 10.7852L153.746 10.75H154.848C154.848 11.1992 154.984 11.5566 155.258 11.8223C155.535 12.0879 155.914 12.2207 156.395 12.2207C156.883 12.2207 157.266 12.0879 157.543 11.8223C157.82 11.5566 157.959 11.1641 157.959 10.6445C157.959 10.1172 157.836 9.72852 157.59 9.47852C157.344 9.22852 156.955 9.10352 156.424 9.10352H155.416V8.20117H156.424C156.936 8.20117 157.297 8.07422 157.508 7.82031C157.723 7.5625 157.83 7.20508 157.83 6.74805C157.83 5.75195 157.352 5.25391 156.395 5.25391C155.945 5.25391 155.584 5.38672 155.311 5.65234C155.041 5.91406 154.906 6.26367 154.906 6.70117H153.799L153.787 6.66602C153.775 6.23633 153.877 5.8457 154.092 5.49414C154.311 5.14258 154.617 4.86328 155.012 4.65625C155.41 4.44922 155.871 4.3457 156.395 4.3457C157.184 4.3457 157.812 4.55664 158.281 4.97852C158.75 5.39648 158.984 5.99414 158.984 6.77148C158.984 7.12305 158.877 7.47461 158.662 7.82617C158.451 8.17383 158.133 8.43945 157.707 8.62305C158.219 8.79102 158.58 9.05469 158.791 9.41406C159.006 9.77344 159.113 10.1758 159.113 10.6211C159.113 11.1406 158.996 11.5879 158.762 11.9629C158.531 12.334 158.211 12.6211 157.801 12.8242C157.391 13.0234 156.922 13.123 156.395 13.123ZM160.555 14.8223L159.904 14.3887C160.088 14.1074 160.227 13.8203 160.32 13.5273C160.414 13.2344 160.461 12.9238 160.461 12.5957V11.7051H161.615V12.5781C161.615 12.9609 161.52 13.3613 161.328 13.7793C161.137 14.1973 160.879 14.5449 160.555 14.8223ZM168.371 13V12.2617L169.326 12.0977V11.0312H165.494V10.3809L169.256 4.46875H170.475V10.1289H171.652V11.0312H170.475V12.0977L171.43 12.2617V13H168.371ZM166.725 10.1289H169.326V6.11523L169.291 6.10352L169.174 6.41406L166.725 10.1289Z" fill="#D7D7D7"/>
<path d="M646.439 244.939C647.025 244.354 647.975 244.354 648.561 244.939L658.107 254.485C658.692 255.071 658.692 256.021 658.107 256.607C657.521 257.192 656.571 257.192 655.985 256.607L647.5 248.121L639.015 256.607C638.429 257.192 637.479 257.192 636.893 256.607C636.308 256.021 636.308 255.071 636.893 254.485L646.439 244.939ZM608 299.5C618.645 299.5 627.852 299.428 634.593 293.037C641.354 286.625 646 273.457 646 246H649C649 273.543 644.396 287.875 636.657 295.213C628.898 302.572 618.355 302.5 608 302.5V299.5Z" fill="#4182FF"/>
<path d="M429.939 302.561C429.354 301.975 429.354 301.025 429.939 300.439L439.485 290.893C440.071 290.308 441.021 290.308 441.607 290.893C442.192 291.479 442.192 292.429 441.607 293.015L433.121 301.5L441.607 309.985C442.192 310.571 442.192 311.521 441.607 312.107C441.021 312.692 440.071 312.692 439.485 312.107L429.939 302.561ZM607.5 303H431V300H607.5V303Z" fill="#4182FF"/>
<path d="M605.439 302.061C606.025 302.646 606.975 302.646 607.561 302.061L617.107 292.515C617.692 291.929 617.692 290.979 617.107 290.393C616.521 289.808 615.571 289.808 614.985 290.393L606.5 298.879L598.015 290.393C597.429 289.808 596.479 289.808 595.893 290.393C595.308 290.979 595.308 291.929 595.893 292.515L605.439 302.061ZM605 245V301H608V245H605Z" fill="#4182FF"/>
<path d="M540.246 325V324.262L541.201 324.098V323.031H537.369V322.381L541.131 316.469H542.35V322.129H543.527V323.031H542.35V324.098L543.305 324.262V325H540.246ZM538.6 322.129H541.201V318.115L541.166 318.104L541.049 318.414L538.6 322.129ZM544.746 326.822L544.096 326.389C544.279 326.107 544.418 325.82 544.512 325.527C544.605 325.234 544.652 324.924 544.652 324.596V323.705H545.807V324.578C545.807 324.961 545.711 325.361 545.52 325.779C545.328 326.197 545.07 326.545 544.746 326.822ZM552.375 325.123C551.895 325.123 551.463 325.035 551.08 324.859C550.701 324.684 550.404 324.424 550.189 324.08C549.975 323.732 549.873 323.303 549.885 322.791L549.896 322.756H550.939C550.939 323.217 551.072 323.576 551.338 323.834C551.607 324.092 551.953 324.221 552.375 324.221C552.863 324.221 553.242 324.049 553.512 323.705C553.781 323.361 553.916 322.891 553.916 322.293C553.916 321.742 553.779 321.293 553.506 320.945C553.236 320.594 552.861 320.418 552.381 320.418C551.928 320.418 551.598 320.486 551.391 320.623C551.188 320.76 551.039 320.969 550.945 321.25L549.984 321.15L550.477 316.469H554.982V318.156H554.115L554.004 317.494H551.455L551.18 319.891C551.355 319.758 551.553 319.648 551.771 319.563C551.994 319.473 552.25 319.424 552.539 319.416C553.324 319.408 553.941 319.664 554.391 320.184C554.844 320.703 555.07 321.402 555.07 322.281C555.07 323.137 554.84 323.824 554.379 324.344C553.922 324.863 553.254 325.123 552.375 325.123ZM556.441 326.822L555.791 326.389C555.975 326.107 556.113 325.82 556.207 325.527C556.301 325.234 556.348 324.924 556.348 324.596V323.705H557.502V324.578C557.502 324.961 557.406 325.361 557.215 325.779C557.023 326.197 556.766 326.545 556.441 326.822ZM564.609 325.123C564.055 325.123 563.559 324.988 563.121 324.719C562.688 324.445 562.346 324.049 562.096 323.529C561.846 323.01 561.721 322.381 561.721 321.643V320.494C561.721 319.592 561.855 318.834 562.125 318.221C562.398 317.604 562.773 317.137 563.25 316.82C563.73 316.504 564.281 316.346 564.902 316.346C565.191 316.346 565.479 316.379 565.764 316.445C566.053 316.512 566.291 316.596 566.479 316.697L566.256 317.559C566.072 317.469 565.871 317.397 565.652 317.342C565.434 317.283 565.184 317.254 564.902 317.254C564.305 317.254 563.828 317.481 563.473 317.934C563.121 318.383 562.934 319.063 562.91 319.973L562.934 319.996C563.152 319.793 563.42 319.633 563.736 319.516C564.053 319.395 564.395 319.334 564.762 319.334C565.27 319.334 565.711 319.455 566.086 319.697C566.461 319.936 566.75 320.266 566.953 320.688C567.16 321.109 567.264 321.59 567.264 322.129C567.264 322.719 567.154 323.238 566.936 323.688C566.717 324.137 566.408 324.488 566.01 324.742C565.611 324.996 565.145 325.123 564.609 325.123ZM564.609 324.221C565.082 324.221 565.449 324.022 565.711 323.623C565.977 323.221 566.109 322.723 566.109 322.129C566.109 321.566 565.967 321.104 565.682 320.74C565.4 320.377 565.01 320.195 564.51 320.195C564.115 320.195 563.779 320.275 563.502 320.436C563.225 320.592 563.014 320.803 562.869 321.068V321.754C562.869 322.547 563.033 323.156 563.361 323.582C563.693 324.008 564.109 324.221 564.609 324.221Z" fill="#D7D7D7"/>
<path d="M656.709 307V306.262L658.027 306.098V299.705L656.686 299.729V299.008L659.182 298.469V306.098L660.494 306.262V307H656.709ZM661.73 308.822L661.08 308.389C661.264 308.107 661.402 307.82 661.496 307.527C661.59 307.234 661.637 306.924 661.637 306.596V305.705H662.791V306.578C662.791 306.961 662.695 307.361 662.504 307.779C662.312 308.197 662.055 308.545 661.73 308.822ZM666.869 307V306.209L669.664 303.104C669.996 302.732 670.256 302.416 670.443 302.154C670.631 301.889 670.762 301.648 670.836 301.434C670.91 301.219 670.947 300.996 670.947 300.766C670.947 300.34 670.818 299.982 670.561 299.693C670.303 299.4 669.934 299.254 669.453 299.254C668.953 299.254 668.562 299.404 668.281 299.705C668.004 300.006 667.865 300.432 667.865 300.982H666.758L666.746 300.947C666.734 300.455 666.838 300.014 667.057 299.623C667.275 299.229 667.592 298.918 668.006 298.691C668.424 298.461 668.92 298.346 669.494 298.346C670.033 298.346 670.496 298.449 670.883 298.656C671.273 298.859 671.574 299.139 671.785 299.494C671.996 299.85 672.102 300.258 672.102 300.719C672.102 301.188 671.963 301.654 671.686 302.119C671.412 302.584 671.025 303.086 670.525 303.625L668.281 306.068L668.293 306.098H671.322L671.416 305.119H672.395V307H666.869ZM673.719 308.822L673.068 308.389C673.252 308.107 673.391 307.82 673.484 307.527C673.578 307.234 673.625 306.924 673.625 306.596V305.705H674.779V306.578C674.779 306.961 674.684 307.361 674.492 307.779C674.301 308.197 674.043 308.545 673.719 308.822ZM681.395 307.123C680.875 307.123 680.412 307.029 680.006 306.842C679.6 306.65 679.281 306.381 679.051 306.033C678.824 305.682 678.717 305.266 678.729 304.785L678.746 304.75H679.848C679.848 305.199 679.984 305.557 680.258 305.822C680.535 306.088 680.914 306.221 681.395 306.221C681.883 306.221 682.266 306.088 682.543 305.822C682.82 305.557 682.959 305.164 682.959 304.645C682.959 304.117 682.836 303.729 682.59 303.479C682.344 303.229 681.955 303.104 681.424 303.104H680.416V302.201H681.424C681.936 302.201 682.297 302.074 682.508 301.82C682.723 301.563 682.83 301.205 682.83 300.748C682.83 299.752 682.352 299.254 681.395 299.254C680.945 299.254 680.584 299.387 680.311 299.652C680.041 299.914 679.906 300.264 679.906 300.701H678.799L678.787 300.666C678.775 300.236 678.877 299.846 679.092 299.494C679.311 299.143 679.617 298.863 680.012 298.656C680.41 298.449 680.871 298.346 681.395 298.346C682.184 298.346 682.812 298.557 683.281 298.979C683.75 299.397 683.984 299.994 683.984 300.772C683.984 301.123 683.877 301.475 683.662 301.826C683.451 302.174 683.133 302.439 682.707 302.623C683.219 302.791 683.58 303.055 683.791 303.414C684.006 303.773 684.113 304.176 684.113 304.621C684.113 305.141 683.996 305.588 683.762 305.963C683.531 306.334 683.211 306.621 682.801 306.824C682.391 307.023 681.922 307.123 681.395 307.123Z" fill="#D7D7D7"/>
</svg>
