<svg width="652" height="604" viewBox="0 0 652 604" fill="none" xmlns="http://www.w3.org/2000/svg">
<path d="M321.793 602.707C322.184 603.098 322.817 603.098 323.207 602.707L329.571 596.343C329.962 595.953 329.962 595.32 329.571 594.929C329.181 594.539 328.547 594.539 328.157 594.929L322.5 600.586L316.843 594.929C316.453 594.539 315.82 594.539 315.429 594.929C315.038 595.32 315.038 595.953 315.429 596.343L321.793 602.707ZM202.5 602C202.5 596.771 202.975 593.042 204.374 590.316C205.735 587.664 208.041 585.836 212.049 584.579C216.102 583.309 221.801 582.655 229.807 582.327C237.797 582 247.992 582 261 582V580C248.008 580 237.766 580 229.725 580.329C221.7 580.658 215.773 581.316 211.451 582.671C207.084 584.04 204.265 586.149 202.595 589.403C200.963 592.583 200.5 596.73 200.5 602H202.5ZM261 582H261V580H261V582ZM261 582C274.008 582 284.328 582 292.507 582.327C300.699 582.655 306.656 583.309 310.966 584.584C315.245 585.849 317.801 587.696 319.337 590.359C320.904 593.076 321.5 596.792 321.5 602H323.5C323.5 596.708 322.909 592.549 321.069 589.36C319.199 586.117 316.13 584.026 311.534 582.666C306.969 581.316 300.801 580.658 292.587 580.329C284.359 580 273.992 580 261 580V582Z" fill="#F9F0D5"/>
<path d="M439.793 603.207C440.183 603.598 440.817 603.598 441.207 603.207L447.571 596.843C447.962 596.453 447.962 595.82 447.571 595.429C447.181 595.039 446.547 595.039 446.157 595.429L440.5 601.086L434.843 595.429C434.453 595.039 433.819 595.039 433.429 595.429C433.038 595.82 433.038 596.453 433.429 596.843L439.793 603.207ZM522.5 602.5C522.5 597.458 522 593.541 520.681 590.536C519.337 587.473 517.171 585.422 514.017 584.08C510.916 582.76 506.868 582.129 501.733 581.814C496.586 581.5 490.239 581.5 482.5 581.5V583.5C490.261 583.5 496.539 583.501 501.611 583.811C506.695 584.122 510.459 584.74 513.233 585.92C515.954 587.078 517.725 588.777 518.85 591.34C520 593.96 520.5 597.542 520.5 602.5H522.5ZM482.5 581.5H482.5V583.5H482.5V581.5ZM482.5 581.5C474.76 581.5 468.227 581.5 462.801 581.814C457.384 582.128 452.98 582.76 449.522 584.065C446.027 585.383 443.473 587.401 441.823 590.463C440.194 593.486 439.5 597.428 439.5 602.5H441.5C441.5 597.573 442.181 594.014 443.583 591.412C444.964 588.849 447.098 587.117 450.228 585.936C453.395 584.741 457.553 584.122 462.917 583.811C468.273 583.5 474.74 583.5 482.5 583.5V581.5Z" fill="#F9F0D5"/>
<path d="M562.207 569.293C561.817 568.903 561.183 568.903 560.793 569.293L554.429 575.657C554.038 576.048 554.038 576.681 554.429 577.071C554.819 577.462 555.453 577.462 555.843 577.071L561.5 571.414L567.157 577.071C567.547 577.462 568.18 577.462 568.571 577.071C568.962 576.681 568.962 576.048 568.571 575.657L562.207 569.293ZM562.5 603L562.5 570L560.5 570L560.5 603L562.5 603Z" fill="#F9F0D5"/>
<path d="M319.793 242.707C320.184 243.097 320.817 243.097 321.207 242.707L327.571 236.343C327.962 235.952 327.962 235.319 327.571 234.929C327.181 234.538 326.547 234.538 326.157 234.929L320.5 240.586L314.843 234.929C314.453 234.538 313.82 234.538 313.429 234.929C313.039 235.319 313.039 235.952 313.429 236.343L319.793 242.707ZM319.5 89.9997L319.5 242L321.5 242L321.5 89.9997L319.5 89.9997Z" fill="#F9F0D5"/>
<path d="M104.793 144.293C104.402 144.683 104.402 145.317 104.793 145.707L111.156 152.071C111.547 152.462 112.18 152.462 112.571 152.071C112.961 151.681 112.961 151.047 112.571 150.657L106.914 145L112.571 139.343C112.961 138.953 112.961 138.319 112.571 137.929C112.18 137.538 111.547 137.538 111.156 137.929L104.793 144.293ZM161 91C161 112.399 156.515 125.532 147.53 133.372C138.51 141.241 124.712 144 105.5 144V146C124.787 146 139.24 143.259 148.845 134.879C158.484 126.468 163 112.602 163 91L161 91Z" fill="#F9F0D5"/>
<path d="M41.2929 122.207C41.6834 122.598 42.3165 122.598 42.7071 122.207L49.071 115.843C49.4616 115.453 49.4616 114.819 49.071 114.429C48.6805 114.038 48.0473 114.038 47.6568 114.429L42 120.086L36.3431 114.429C35.9526 114.038 35.3194 114.038 34.9289 114.429C34.5384 114.819 34.5384 115.453 34.9289 115.843L41.2929 122.207ZM121.5 89.5C121.5 93.2699 120.327 95.7025 118.401 97.3045C116.427 98.9468 113.52 99.8362 109.828 100.184C102.411 100.883 92.5142 99.3592 82.3519 98.3177C72.3156 97.2891 62.0276 96.736 54.2332 99.6004C50.2988 101.046 46.962 103.374 44.6211 106.967C42.2861 110.55 41 115.302 41 121.5L43 121.5C43 115.573 44.2295 111.231 46.2968 108.059C48.3583 104.895 51.3106 102.805 54.923 101.478C62.2223 98.7952 72.0594 99.2734 82.148 100.307C92.1107 101.328 102.339 102.898 110.016 102.175C113.87 101.812 117.252 100.862 119.68 98.842C122.157 96.7819 123.5 93.73 123.5 89.5H121.5Z" fill="#F9F0D5"/>
<path d="M361.293 201.707C361.684 202.098 362.317 202.098 362.707 201.707L369.071 195.343C369.462 194.953 369.462 194.319 369.071 193.929C368.681 193.538 368.047 193.538 367.657 193.929L362 199.586L356.343 193.929C355.953 193.538 355.32 193.538 354.929 193.929C354.539 194.319 354.539 194.953 354.929 195.343L361.293 201.707ZM361 90L361 201L363 201L363 90L361 90Z" fill="#F9F0D5"/>
<path d="M384.293 467.293C383.902 467.684 383.902 468.317 384.293 468.707L390.657 475.071C391.047 475.462 391.681 475.462 392.071 475.071C392.462 474.681 392.462 474.047 392.071 473.657L386.414 468L392.071 462.343C392.462 461.953 392.462 461.32 392.071 460.929C391.681 460.539 391.047 460.539 390.657 460.929L384.293 467.293ZM482.5 522C482.5 511.736 480.376 503.113 476.142 495.967C471.905 488.818 465.596 483.214 457.336 478.925C440.86 470.37 416.528 467 385 467V469C416.472 469 440.39 472.38 456.414 480.7C464.404 484.848 470.407 490.213 474.421 496.986C478.436 503.762 480.5 512.015 480.5 522H482.5Z" fill="#F9F0D5"/>
<path d="M344.793 425.293C344.402 425.683 344.402 426.317 344.793 426.707L351.157 433.071C351.547 433.462 352.181 433.462 352.571 433.071C352.962 432.68 352.962 432.047 352.571 431.657L346.914 426L352.571 420.343C352.962 419.953 352.962 419.319 352.571 418.929C352.181 418.538 351.547 418.538 351.157 418.929L344.793 425.293ZM401.5 249C401.5 319.801 399.866 363.884 391.979 390.276C388.047 403.436 382.595 412.066 375.128 417.43C367.655 422.798 358.02 425 345.5 425V427C358.23 427 368.345 424.765 376.294 419.054C384.249 413.34 389.891 404.251 393.896 390.849C401.884 364.116 403.5 319.699 403.5 249H401.5Z" fill="#F9F0D5"/>
<path d="M523.707 169.293C523.317 168.902 522.683 168.902 522.293 169.293L515.929 175.657C515.538 176.047 515.538 176.681 515.929 177.071C516.319 177.462 516.953 177.462 517.343 177.071L523 171.414L528.657 177.071C529.047 177.462 529.681 177.462 530.071 177.071C530.462 176.681 530.462 176.047 530.071 175.657L523.707 169.293ZM641.038 169.725C631.711 202.372 602.526 213.85 575.466 211.379C561.938 210.144 549.03 205.419 539.528 198.174C530.032 190.932 524 181.232 524 170H522C522 182.018 528.468 192.255 538.316 199.764C548.158 207.269 561.437 212.106 575.284 213.371C602.974 215.9 633.289 204.128 642.962 170.275L641.038 169.725Z" fill="#F9F0D5"/>
<path d="M523.707 44.4089C523.317 44.7995 522.683 44.7995 522.293 44.4089L515.929 38.045C515.538 37.6545 515.538 37.0213 515.929 36.6308C516.319 36.2402 516.953 36.2402 517.343 36.6308L523 42.2876L528.657 36.6308C529.047 36.2402 529.681 36.2402 530.071 36.6308C530.462 37.0213 530.462 37.6545 530.071 38.045L523.707 44.4089ZM641.038 43.9766C631.711 11.3301 602.526 -0.148528 575.466 2.32269C561.938 3.55813 549.03 8.28311 539.528 15.5283C530.032 22.7694 524 32.4699 524 43.7018H522C522 31.6837 528.468 21.4467 538.316 13.9379C548.158 6.43305 561.437 1.59554 575.284 0.330978C602.974 -2.1978 633.289 9.57363 642.962 43.4271L641.038 43.9766Z" fill="#F9F0D5"/>
<path d="M643.293 603.707C643.683 604.098 644.317 604.098 644.707 603.707L651.071 597.343C651.462 596.953 651.462 596.32 651.071 595.929C650.681 595.539 650.047 595.539 649.657 595.929L644 601.586L638.343 595.929C637.953 595.539 637.319 595.539 636.929 595.929C636.538 596.32 636.538 596.953 636.929 597.343L643.293 603.707ZM599 570C599 572.926 599.735 575.252 601.084 577.095C602.424 578.927 604.311 580.201 606.479 581.137C610.753 582.983 616.435 583.628 621.843 584.488C627.357 585.365 632.647 586.468 636.566 589.111C640.387 591.687 643 595.797 643 603H645C645 595.204 642.113 590.439 637.684 587.452C633.353 584.532 627.643 583.385 622.157 582.513C616.565 581.623 611.247 581.018 607.271 579.301C605.314 578.456 603.763 577.371 602.698 575.914C601.64 574.468 601 572.574 601 570H599Z" fill="#F9F0D5"/>
<path d="M65.4998 277L64.5907 278.193L64.5907 278.193L65.4998 277ZM141.439 366.061C142.025 366.646 142.975 366.646 143.561 366.061L153.107 356.515C153.692 355.929 153.692 354.979 153.107 354.393C152.521 353.808 151.571 353.808 150.985 354.393L142.5 362.879L134.015 354.393C133.429 353.808 132.479 353.808 131.893 354.393C131.308 354.979 131.308 355.929 131.893 356.515L141.439 366.061ZM0.499535 170C0.499535 189.466 0.603034 204.564 8.7851 220.8C16.9449 236.992 33.05 254.162 64.5907 278.193L66.4089 275.807C34.9495 251.838 19.3045 235.008 11.4641 219.45C3.6461 203.936 3.49954 189.534 3.49954 170H0.499535ZM64.5907 278.193C80.3609 290.208 93.0705 299.193 103.232 306.521C113.417 313.867 120.987 319.51 126.585 324.894C132.153 330.247 135.717 335.293 137.916 341.421C140.128 347.582 141 354.944 141 365H144C144 354.806 143.122 347.043 140.74 340.407C138.346 333.738 134.472 328.316 128.665 322.731C122.888 317.177 115.145 311.414 104.987 304.088C94.8042 296.745 82.1388 287.792 66.4089 275.807L64.5907 278.193Z" fill="#4182FF"/>
<path d="M119.439 522.561C120.025 523.146 120.975 523.146 121.561 522.561L131.107 513.015C131.692 512.429 131.692 511.479 131.107 510.893C130.521 510.308 129.571 510.308 128.985 510.893L120.5 519.379L112.015 510.893C111.429 510.308 110.479 510.308 109.893 510.893C109.308 511.479 109.308 512.429 109.893 513.015L119.439 522.561ZM140.5 364C137.469 364 134.897 365.425 132.77 367.851C130.673 370.244 128.954 373.662 127.518 377.858C124.644 386.257 122.758 398.219 121.506 412.62C118.999 441.45 119 480.526 119 521.5H122C122 480.474 122.001 441.55 124.494 412.88C125.742 398.531 127.606 386.868 130.357 378.829C131.733 374.807 133.296 371.803 135.026 369.829C136.728 367.888 138.531 367 140.5 367V364Z" fill="#4182FF"/>
<path d="M164.561 521.561C163.975 522.146 163.025 522.146 162.439 521.561L152.893 512.015C152.308 511.429 152.308 510.479 152.893 509.893C153.479 509.308 154.429 509.308 155.015 509.893L163.5 518.379L171.985 509.893C172.571 509.308 173.521 509.308 174.107 509.893C174.692 510.479 174.692 511.429 174.107 512.015L164.561 521.561ZM142 364C147.304 364 151.934 364.229 155.444 367.449C158.897 370.617 160.954 376.382 162.299 386.362C165.004 406.429 165 445.326 165 520.5H162C162 445.174 161.996 406.571 159.326 386.763C157.984 376.805 156.009 372.039 153.416 369.66C150.879 367.333 147.446 367 142 367V364Z" fill="#4182FF"/>
<path d="M89.0586 441.123C88.5781 441.123 88.1465 441.035 87.7637 440.859C87.3848 440.684 87.0879 440.424 86.873 440.08C86.6582 439.732 86.5566 439.303 86.5684 438.791L86.5801 438.756H87.623C87.623 439.217 87.7559 439.576 88.0215 439.834C88.291 440.092 88.6367 440.221 89.0586 440.221C89.5469 440.221 89.9258 440.049 90.1953 439.705C90.4648 439.361 90.5996 438.891 90.5996 438.293C90.5996 437.742 90.4629 437.293 90.1895 436.945C89.9199 436.594 89.5449 436.418 89.0645 436.418C88.6113 436.418 88.2812 436.486 88.0742 436.623C87.8711 436.76 87.7227 436.969 87.6289 437.25L86.668 437.15L87.1602 432.469H91.666V434.156H90.7988L90.6875 433.494H88.1387L87.8633 435.891C88.0391 435.758 88.2363 435.648 88.4551 435.562C88.6777 435.473 88.9336 435.424 89.2227 435.416C90.0078 435.408 90.625 435.664 91.0742 436.184C91.5273 436.703 91.7539 437.402 91.7539 438.281C91.7539 439.137 91.5234 439.824 91.0625 440.344C90.6055 440.863 89.9375 441.123 89.0586 441.123ZM93.125 442.822L92.4746 442.389C92.6582 442.107 92.7969 441.82 92.8906 441.527C92.9844 441.234 93.0312 440.924 93.0312 440.596V439.705H94.1855V440.578C94.1855 440.961 94.0898 441.361 93.8984 441.779C93.707 442.197 93.4492 442.545 93.125 442.822ZM101.293 441.123C100.738 441.123 100.242 440.988 99.8047 440.719C99.3711 440.445 99.0293 440.049 98.7793 439.529C98.5293 439.01 98.4043 438.381 98.4043 437.643V436.494C98.4043 435.592 98.5391 434.834 98.8086 434.221C99.082 433.604 99.457 433.137 99.9336 432.82C100.414 432.504 100.965 432.346 101.586 432.346C101.875 432.346 102.162 432.379 102.447 432.445C102.736 432.512 102.975 432.596 103.162 432.697L102.939 433.559C102.756 433.469 102.555 433.396 102.336 433.342C102.117 433.283 101.867 433.254 101.586 433.254C100.988 433.254 100.512 433.48 100.156 433.934C99.8047 434.383 99.6172 435.062 99.5938 435.973L99.6172 435.996C99.8359 435.793 100.104 435.633 100.42 435.516C100.736 435.395 101.078 435.334 101.445 435.334C101.953 435.334 102.395 435.455 102.77 435.697C103.145 435.936 103.434 436.266 103.637 436.688C103.844 437.109 103.947 437.59 103.947 438.129C103.947 438.719 103.838 439.238 103.619 439.688C103.4 440.137 103.092 440.488 102.693 440.742C102.295 440.996 101.828 441.123 101.293 441.123ZM101.293 440.221C101.766 440.221 102.133 440.021 102.395 439.623C102.66 439.221 102.793 438.723 102.793 438.129C102.793 437.566 102.65 437.104 102.365 436.74C102.084 436.377 101.693 436.195 101.193 436.195C100.799 436.195 100.463 436.275 100.186 436.436C99.9082 436.592 99.6973 436.803 99.5527 437.068V437.754C99.5527 438.547 99.7168 439.156 100.045 439.582C100.377 440.008 100.793 440.221 101.293 440.221Z" fill="#D7D7D7"/>
<path d="M173.709 441V440.262L175.027 440.098V433.705L173.686 433.729V433.008L176.182 432.469V440.098L177.494 440.262V441H173.709ZM178.73 442.822L178.08 442.389C178.264 442.107 178.402 441.82 178.496 441.527C178.59 441.234 178.637 440.924 178.637 440.596V439.705H179.791V440.578C179.791 440.961 179.695 441.361 179.504 441.779C179.312 442.197 179.055 442.545 178.73 442.822ZM183.869 441V440.209L186.664 437.104C186.996 436.732 187.256 436.416 187.443 436.154C187.631 435.889 187.762 435.648 187.836 435.434C187.91 435.219 187.947 434.996 187.947 434.766C187.947 434.34 187.818 433.982 187.561 433.693C187.303 433.4 186.934 433.254 186.453 433.254C185.953 433.254 185.562 433.404 185.281 433.705C185.004 434.006 184.865 434.432 184.865 434.982H183.758L183.746 434.947C183.734 434.455 183.838 434.014 184.057 433.623C184.275 433.229 184.592 432.918 185.006 432.691C185.424 432.461 185.92 432.346 186.494 432.346C187.033 432.346 187.496 432.449 187.883 432.656C188.273 432.859 188.574 433.139 188.785 433.494C188.996 433.85 189.102 434.258 189.102 434.719C189.102 435.188 188.963 435.654 188.686 436.119C188.412 436.584 188.025 437.086 187.525 437.625L185.281 440.068L185.293 440.098H188.322L188.416 439.119H189.395V441H183.869ZM190.719 442.822L190.068 442.389C190.252 442.107 190.391 441.82 190.484 441.527C190.578 441.234 190.625 440.924 190.625 440.596V439.705H191.779V440.578C191.779 440.961 191.684 441.361 191.492 441.779C191.301 442.197 191.043 442.545 190.719 442.822ZM198.395 441.123C197.875 441.123 197.412 441.029 197.006 440.842C196.6 440.65 196.281 440.381 196.051 440.033C195.824 439.682 195.717 439.266 195.729 438.785L195.746 438.75H196.848C196.848 439.199 196.984 439.557 197.258 439.822C197.535 440.088 197.914 440.221 198.395 440.221C198.883 440.221 199.266 440.088 199.543 439.822C199.82 439.557 199.959 439.164 199.959 438.645C199.959 438.117 199.836 437.729 199.59 437.479C199.344 437.229 198.955 437.104 198.424 437.104H197.416V436.201H198.424C198.936 436.201 199.297 436.074 199.508 435.82C199.723 435.562 199.83 435.205 199.83 434.748C199.83 433.752 199.352 433.254 198.395 433.254C197.945 433.254 197.584 433.387 197.311 433.652C197.041 433.914 196.906 434.264 196.906 434.701H195.799L195.787 434.666C195.775 434.236 195.877 433.846 196.092 433.494C196.311 433.143 196.617 432.863 197.012 432.656C197.41 432.449 197.871 432.346 198.395 432.346C199.184 432.346 199.812 432.557 200.281 432.979C200.75 433.396 200.984 433.994 200.984 434.771C200.984 435.123 200.877 435.475 200.662 435.826C200.451 436.174 200.133 436.439 199.707 436.623C200.219 436.791 200.58 437.055 200.791 437.414C201.006 437.773 201.113 438.176 201.113 438.621C201.113 439.141 200.996 439.588 200.762 439.963C200.531 440.334 200.211 440.621 199.801 440.824C199.391 441.023 198.922 441.123 198.395 441.123ZM202.555 442.822L201.904 442.389C202.088 442.107 202.227 441.82 202.32 441.527C202.414 441.234 202.461 440.924 202.461 440.596V439.705H203.615V440.578C203.615 440.961 203.52 441.361 203.328 441.779C203.137 442.197 202.879 442.545 202.555 442.822ZM210.371 441V440.262L211.326 440.098V439.031H207.494V438.381L211.256 432.469H212.475V438.129H213.652V439.031H212.475V440.098L213.43 440.262V441H210.371ZM208.725 438.129H211.326V434.115L211.291 434.104L211.174 434.414L208.725 438.129Z" fill="#D7D7D7"/>
</svg>
