<svg width="753" height="472" viewBox="0 0 753 472" fill="none" xmlns="http://www.w3.org/2000/svg">
<path d="M42.7071 332.293C43.0976 332.683 43.0976 333.317 42.7071 333.707L36.3431 340.071C35.9526 340.462 35.3195 340.462 34.9289 340.071C34.5384 339.681 34.5384 339.047 34.9289 338.657L40.5858 333L34.9289 327.343C34.5384 326.953 34.5384 326.319 34.9289 325.929C35.3195 325.538 35.9526 325.538 36.3431 325.929L42.7071 332.293ZM42 454C27.4524 454 16.8449 446.249 9.99276 434.762C3.16073 423.309 0.028991 408.111 0.312677 392.981C0.596399 377.849 4.29843 362.666 11.2631 351.23C18.2372 339.779 28.551 332 42 332L42 334C29.449 334 19.7003 341.221 12.9713 352.27C6.23282 363.334 2.5911 378.151 2.31233 393.019C2.03351 407.889 5.12053 422.691 11.7104 433.738C18.2801 444.751 28.2976 452 42 452L42 454Z" fill="#F9F0D5"/>
<path d="M166.793 336.707C166.402 336.317 166.402 335.683 166.793 335.293L173.157 328.929C173.547 328.538 174.181 328.538 174.571 328.929C174.962 329.319 174.962 329.953 174.571 330.343L168.914 336L174.571 341.657C174.962 342.047 174.962 342.681 174.571 343.071C174.181 343.462 173.547 343.462 173.157 343.071L166.793 336.707ZM167.5 289.5C175.277 289.5 181.035 292.461 184.792 296.969C188.529 301.453 190.224 307.391 190.062 313.277C189.74 325.012 181.957 337 167.5 337V335C180.543 335 187.76 324.238 188.063 313.223C188.214 307.734 186.628 302.297 183.255 298.25C179.903 294.226 174.723 291.5 167.5 291.5V289.5Z" fill="#F9F0D5"/>
<path d="M183.707 189.707C183.317 190.098 182.683 190.098 182.293 189.707L175.929 183.343C175.538 182.953 175.538 182.319 175.929 181.929C176.319 181.538 176.953 181.538 177.343 181.929L183 187.586L188.657 181.929C189.047 181.538 189.681 181.538 190.071 181.929C190.462 182.319 190.462 182.953 190.071 183.343L183.707 189.707ZM225.5 189C225.5 177.501 215.293 170.864 204.716 170.499C199.463 170.318 194.271 171.711 190.415 174.74C186.588 177.745 184 182.419 184 189H182C182 181.831 184.85 176.567 189.179 173.167C193.479 169.789 199.162 168.307 204.784 168.501C215.957 168.886 227.5 175.999 227.5 189H225.5Z" fill="#F9F0D5"/>
<path d="M185.293 31.2233C185.683 31.6138 186.317 31.6138 186.707 31.2233L193.071 24.8593C193.462 24.4688 193.462 23.8356 193.071 23.4451C192.681 23.0546 192.047 23.0546 191.657 23.4451L186 29.102L180.343 23.4451C179.953 23.0546 179.319 23.0546 178.929 23.4451C178.538 23.8356 178.538 24.4688 178.929 24.8593L185.293 31.2233ZM105 30.5162C105 20.9141 109.896 13.7979 117.349 9.06202C124.834 4.30586 134.881 1.97403 144.991 2.06649C155.1 2.15895 165.154 4.67438 172.648 9.48157C180.116 14.273 185 21.3013 185 30.5162H187C187 20.473 181.634 12.8702 173.727 7.79819C165.846 2.74196 155.4 0.161616 145.009 0.0665767C134.619 -0.0284554 124.166 2.36049 116.276 7.37398C108.354 12.4078 103 20.1102 103 30.5162H105Z" fill="#F9F0D5"/>
<path d="M226.707 31.1594C226.317 31.55 225.683 31.55 225.293 31.1594L218.929 24.7955C218.538 24.405 218.538 23.7718 218.929 23.3813C219.319 22.9907 219.953 22.9907 220.343 23.3813L226 29.0381L231.657 23.3813C232.047 22.9907 232.681 22.9907 233.071 23.3813C233.462 23.7718 233.462 24.405 233.071 24.7955L226.707 31.1594ZM322.5 14.5C309.56 14.5 297.04 13.1455 285.572 11.7249C274.076 10.3007 263.69 8.81835 254.905 8.53206C246.095 8.24494 239.14 9.17696 234.396 12.3831C229.742 15.5277 227 21.0217 227 30.4523H225C225 20.6248 227.883 14.3707 233.276 10.726C238.579 7.1426 246.093 6.2438 254.97 6.53312C263.873 6.82326 274.393 8.32461 285.818 9.74004C297.272 11.159 309.69 12.5 322.5 12.5L322.5 14.5Z" fill="#F9F0D5"/>
<path d="M540.207 110.207C539.817 110.598 539.183 110.598 538.793 110.207L532.429 103.843C532.038 103.453 532.038 102.819 532.429 102.429C532.819 102.038 533.453 102.038 533.843 102.429L539.5 108.086L545.157 102.429C545.547 102.038 546.181 102.038 546.571 102.429C546.962 102.819 546.962 103.453 546.571 103.843L540.207 110.207ZM601.999 86.5C589.116 86.5 578.798 86.5002 570.552 86.874C562.294 87.2483 556.205 87.995 551.748 89.4506C547.329 90.8933 544.585 93.0075 542.902 96.1028C541.188 99.2531 540.5 103.547 540.5 109.5H538.5C538.5 103.453 539.187 98.7469 541.145 95.1472C543.133 91.4925 546.358 89.1067 551.127 87.5494C555.856 86.005 562.174 85.2517 570.462 84.876C578.763 84.4998 589.133 84.5 601.999 84.5L601.999 86.5Z" fill="#F9F0D5"/>
<path d="M602.207 125.793C602.598 126.183 602.598 126.817 602.207 127.207L595.843 133.571C595.453 133.962 594.82 133.962 594.429 133.571C594.038 133.181 594.038 132.547 594.429 132.157L600.086 126.5L594.429 120.843C594.038 120.453 594.038 119.819 594.429 119.429C594.82 119.038 595.453 119.038 595.843 119.429L602.207 125.793ZM577 150.5C577 145.647 576.998 141.643 577.374 138.408C577.75 135.169 578.517 132.551 580.166 130.551C581.828 128.536 584.27 127.285 587.699 126.531C591.114 125.78 595.61 125.5 601.5 125.5V127.5C595.64 127.5 591.323 127.782 588.129 128.484C584.948 129.184 582.984 130.277 581.709 131.824C580.421 133.386 579.719 135.549 579.36 138.639C579.001 141.732 579 145.603 579 150.5L577 150.5Z" fill="#F9F0D5"/>
<path d="M408.293 181.207C407.902 180.817 407.902 180.183 408.293 179.793L414.657 173.429C415.047 173.038 415.681 173.038 416.071 173.429C416.462 173.819 416.462 174.453 416.071 174.843L410.414 180.5L416.071 186.157C416.462 186.547 416.462 187.181 416.071 187.571C415.681 187.962 415.047 187.962 414.657 187.571L408.293 181.207ZM463.5 157C463.5 162.229 462.609 166.464 460.549 169.841C458.479 173.235 455.297 175.653 450.928 177.368C442.281 180.763 428.704 181.5 409 181.5V179.5C428.796 179.5 441.969 178.737 450.197 175.507C454.265 173.909 457.052 171.734 458.842 168.8C460.641 165.849 461.5 162.021 461.5 157H463.5Z" fill="#F9F0D5"/>
<path d="M422.707 310.707C422.317 311.098 421.683 311.098 421.293 310.707L414.929 304.343C414.538 303.953 414.538 303.319 414.929 302.929C415.319 302.538 415.953 302.538 416.343 302.929L422 308.586L427.657 302.929C428.047 302.538 428.681 302.538 429.071 302.929C429.462 303.319 429.462 303.953 429.071 304.343L422.707 310.707ZM442 250C438.529 250 435.662 251.259 433.266 253.741C430.842 256.254 428.871 260.054 427.333 265.163C424.253 275.388 423 290.513 423 310H421C421 290.487 422.247 275.112 425.417 264.587C427.004 259.321 429.095 255.184 431.827 252.353C434.588 249.491 437.971 248 442 248V250Z" fill="#F9F0D5"/>
<path d="M648.293 333.207C647.902 332.817 647.902 332.183 648.293 331.793L654.657 325.429C655.047 325.038 655.681 325.038 656.071 325.429C656.462 325.819 656.462 326.453 656.071 326.843L650.414 332.5L656.071 338.157C656.462 338.547 656.462 339.181 656.071 339.571C655.681 339.962 655.047 339.962 654.657 339.571L648.293 333.207ZM726.545 449.702C740.297 405.573 747.863 376.249 750.1 357.064C751.22 347.468 750.993 340.504 749.6 335.528C748.22 330.603 745.709 327.65 742.193 325.964C738.612 324.247 733.873 323.787 727.95 324.138C722.039 324.488 715.087 325.636 707.141 327.024C691.281 329.795 671.601 333.5 649 333.5V331.5C671.399 331.5 690.907 327.83 706.797 325.054C714.725 323.669 721.789 322.5 727.831 322.141C733.861 321.784 739.013 322.222 743.057 324.161C747.166 326.131 750.014 329.592 751.525 334.989C753.023 340.335 753.218 347.603 752.087 357.296C749.825 376.689 742.203 406.177 728.455 450.298L726.545 449.702Z" fill="#F9F0D5"/>
<path d="M585.707 311.207C585.317 311.598 584.683 311.598 584.293 311.207L577.929 304.843C577.538 304.453 577.538 303.819 577.929 303.429C578.319 303.038 578.953 303.038 579.343 303.429L585 309.086L590.657 303.429C591.047 303.038 591.681 303.038 592.071 303.429C592.462 303.819 592.462 304.453 592.071 304.843L585.707 311.207ZM586 276C586 282 586 299 586 310.5H584C584 299 584 282 584 276L586 276Z" fill="#F9F0D5"/>
<path d="M262.5 279.5L261.5 279.5L262.5 279.5ZM283.207 333.293C283.598 333.683 283.598 334.317 283.207 334.707L276.843 341.071C276.453 341.462 275.819 341.462 275.429 341.071C275.038 340.681 275.038 340.047 275.429 339.657L281.086 334L275.429 328.343C275.038 327.953 275.038 327.319 275.429 326.929C275.819 326.538 276.453 326.538 276.843 326.929L283.207 333.293ZM282.5 216C279.119 216 276.423 215.983 274.138 216.87C271.953 217.717 270.039 219.447 268.446 223.26C266.835 227.117 265.59 233.026 264.755 242.091C263.92 251.141 263.5 263.262 263.5 279.5L261.5 279.5C261.5 263.237 261.921 251.046 262.763 241.908C263.604 232.785 264.87 226.632 266.6 222.489C268.349 218.303 270.605 216.095 273.414 215.005C276.123 213.954 279.245 214 282.5 214V216ZM263.5 279.5C263.5 292.988 263.856 303.106 264.608 310.698C265.362 318.307 266.507 323.296 268.04 326.577C269.547 329.802 271.408 331.344 273.669 332.134C276.024 332.958 278.881 333 282.5 333V335C278.965 335 275.744 334.979 273.008 334.022C270.177 333.032 267.933 331.073 266.228 327.423C264.549 323.829 263.378 318.568 262.618 310.896C261.856 303.206 261.5 293.012 261.5 279.5L263.5 279.5Z" fill="#F9F0D5"/>
<path d="M585.707 471.207C585.317 471.598 584.683 471.598 584.293 471.207L577.929 464.843C577.538 464.453 577.538 463.819 577.929 463.429C578.319 463.038 578.953 463.038 579.343 463.429L585 469.086L590.657 463.429C591.047 463.038 591.681 463.038 592.071 463.429C592.462 463.819 592.462 464.453 592.071 464.843L585.707 471.207ZM586 436C586 442 586 459 586 470.5H584C584 459 584 442 584 436L586 436Z" fill="#F9F0D5"/>
<path d="M626.707 355.293C626.317 354.902 625.683 354.902 625.293 355.293L618.929 361.657C618.538 362.047 618.538 362.681 618.929 363.071C619.319 363.462 619.953 363.462 620.343 363.071L626 357.414L631.657 363.071C632.047 363.462 632.681 363.462 633.071 363.071C633.462 362.681 633.462 362.047 633.071 361.657L626.707 355.293ZM627 390.5C627 384.5 627 367.5 627 356H625C625 367.5 625 384.5 625 390.5L627 390.5Z" fill="#F9F0D5"/>
</svg>
