<svg width="438" height="436" viewBox="0 0 438 436" fill="none" xmlns="http://www.w3.org/2000/svg">
<path d="M257.43 434.865C257.884 435.18 258.507 435.067 258.821 434.613L263.95 427.218C264.265 426.764 264.152 426.141 263.699 425.826C263.245 425.511 262.622 425.624 262.307 426.078L257.748 432.652L251.174 428.093C250.72 427.778 250.097 427.891 249.782 428.344C249.468 428.798 249.58 429.421 250.034 429.736L257.43 434.865ZM138.759 433.651C159.899 409.029 186.794 393.6 209.689 392.128C221.113 391.394 231.504 394.132 239.741 400.885C247.981 407.641 254.171 418.505 257.016 434.221L258.984 433.865C256.078 417.81 249.706 406.47 241.009 399.339C232.308 392.205 221.387 389.372 209.561 390.132C185.956 391.65 158.601 407.47 137.241 432.348L138.759 433.651Z" fill="#F9F0D5"/>
<path d="M354.207 258.207C354.598 257.817 354.598 257.183 354.207 256.793L347.843 250.429C347.453 250.038 346.819 250.038 346.429 250.429C346.038 250.819 346.038 251.453 346.429 251.843L352.086 257.5L346.429 263.157C346.038 263.547 346.038 264.181 346.429 264.571C346.819 264.962 347.453 264.962 347.843 264.571L354.207 258.207ZM299 313C299 300.652 299.75 291.088 301.527 283.678C303.301 276.283 306.084 271.095 310.111 267.427C314.143 263.753 319.521 261.511 326.658 260.194C333.804 258.876 342.633 258.5 353.5 258.5L353.5 256.5C342.617 256.5 333.633 256.874 326.295 258.228C318.948 259.583 313.17 261.934 308.764 265.948C304.353 269.967 301.418 275.561 299.582 283.212C297.75 290.849 297 300.598 297 313L299 313Z" fill="#F9F0D5"/>
<path d="M401.793 216.793C401.402 217.183 401.402 217.817 401.793 218.207L408.157 224.571C408.547 224.962 409.18 224.962 409.571 224.571C409.961 224.181 409.961 223.547 409.571 223.157L403.914 217.5L409.571 211.843C409.961 211.453 409.961 210.819 409.571 210.429C409.18 210.038 408.547 210.038 408.157 210.429L401.793 216.793ZM402.5 137.5C412.628 137.5 420.213 142.364 425.302 149.725C430.412 157.116 433 167.03 433 177C433 186.97 430.412 196.884 425.302 204.275C420.213 211.636 412.628 216.5 402.5 216.5L402.5 218.5C413.371 218.5 421.537 213.239 426.947 205.412C432.338 197.616 435 187.28 435 177C435 166.72 432.338 156.384 426.947 148.588C421.537 140.761 413.371 135.5 402.5 135.5L402.5 137.5Z" fill="#F9F0D5"/>
<path d="M139.092 120.194C138.647 119.867 138.021 119.963 137.694 120.408L132.365 127.661C132.038 128.106 132.134 128.732 132.579 129.059C133.024 129.386 133.65 129.29 133.977 128.845L138.714 122.398L145.161 127.135C145.606 127.462 146.232 127.366 146.559 126.921C146.886 126.476 146.79 125.85 146.345 125.523L139.092 120.194ZM219.5 79.5C219.5 109.041 214.791 128.908 207.73 141.463C200.692 153.976 191.34 159.206 181.893 159.626C172.385 160.049 162.587 155.606 154.732 148.374C146.882 141.146 141.074 131.218 139.488 120.849L137.511 121.151C139.176 132.032 145.243 142.354 153.377 149.845C161.507 157.331 171.802 162.076 181.982 161.624C192.223 161.169 202.151 155.462 209.473 142.443C216.772 129.467 221.5 109.209 221.5 79.5L219.5 79.5Z" fill="#F9F0D5"/>
<path d="M20.5921 159.694C20.147 159.367 19.5211 159.463 19.1941 159.908L13.8654 167.161C13.5384 167.606 13.6342 168.232 14.0792 168.559C14.5243 168.886 15.1502 168.79 15.4772 168.345L20.2138 161.898L26.6609 166.635C27.1059 166.962 27.7318 166.866 28.0588 166.421C28.3858 165.976 28.2901 165.35 27.845 165.023L20.5921 159.694ZM0.880843 217.993C7.21585 218.753 12.1752 218.272 15.8983 216.297C19.6692 214.297 22.0098 210.853 23.2791 206.069C24.5396 201.318 24.7657 195.173 24.2871 187.616C23.8076 180.047 22.6143 170.979 20.9885 160.349L19.0115 160.651C20.6357 171.271 21.8174 180.266 22.2911 187.743C22.7655 195.233 22.5229 201.12 21.3459 205.556C20.1777 209.959 18.1121 212.859 14.9611 214.531C11.7623 216.228 7.28413 216.747 1.11913 216.007L0.880843 217.993Z" fill="#F9F0D5"/>
<path d="M338.051 33.8164C338.226 34.3403 338.792 34.6235 339.316 34.4488L347.854 31.6028C348.378 31.4281 348.661 30.8618 348.487 30.3379C348.312 29.8139 347.746 29.5307 347.222 29.7054L339.632 32.2352L337.103 24.6458C336.928 24.1218 336.362 23.8386 335.838 24.0133C335.314 24.1879 335.031 24.7543 335.205 25.2782L338.051 33.8164ZM402.955 98.8905C425.177 87.527 435.079 72.4244 436.534 57.3618C437.984 42.3483 431.015 27.6258 420.006 17.0296C408.997 6.43307 393.832 -0.152503 378.713 1.23864C363.538 2.635 348.608 12.0486 338.105 33.0529L339.894 33.9473C350.142 13.4516 364.525 4.55266 378.896 3.23023C393.325 1.90259 407.94 8.19201 418.619 18.4705C429.298 28.7493 435.922 42.9018 434.544 57.1695C433.17 71.3883 423.823 85.9732 402.044 97.1098L402.955 98.8905Z" fill="#F9F0D5"/>
</svg>
