<svg width="580" height="555" viewBox="0 0 580 555" fill="none" xmlns="http://www.w3.org/2000/svg">
<path d="M480.792 475.207C481.182 475.598 481.815 475.598 482.206 475.207L488.57 468.843C488.96 468.453 488.96 467.819 488.57 467.429C488.179 467.038 487.546 467.038 487.156 467.429L481.499 473.086L475.842 467.429C475.451 467.038 474.818 467.038 474.428 467.429C474.037 467.819 474.037 468.453 474.428 468.843L480.792 475.207ZM480.499 402L480.499 474.5L482.499 474.5L482.499 402L480.499 402Z" fill="#F9F0D5"/>
<path d="M241.292 474.207C241.682 474.598 242.315 474.598 242.706 474.207L249.07 467.843C249.46 467.453 249.46 466.819 249.07 466.429C248.679 466.038 248.046 466.038 247.656 466.429L241.999 472.086L236.342 466.429C235.951 466.038 235.318 466.038 234.928 466.429C234.537 466.819 234.537 467.453 234.928 467.843L241.292 474.207ZM240.999 401L240.999 473.5L242.999 473.5L242.999 401L240.999 401Z" fill="#F9F0D5"/>
<path d="M425.292 336.293C424.901 336.683 424.901 337.317 425.292 337.707L431.656 344.071C432.047 344.462 432.68 344.462 433.07 344.071C433.461 343.681 433.461 343.047 433.07 342.657L427.413 337L433.07 331.343C433.461 330.953 433.461 330.319 433.07 329.929C432.68 329.538 432.046 329.538 431.656 329.929L425.292 336.293ZM458.999 336L425.999 336L425.999 338L458.999 338L458.999 336Z" fill="#F9F0D5"/>
<path d="M121.999 440.5L121.999 439.5L121.999 440.5ZM200.792 474.207C201.182 474.598 201.815 474.598 202.206 474.207L208.57 467.843C208.96 467.453 208.96 466.819 208.57 466.429C208.179 466.038 207.546 466.038 207.156 466.429L201.499 472.086L195.842 466.429C195.451 466.038 194.818 466.038 194.428 466.429C194.037 466.819 194.037 467.453 194.428 467.843L200.792 474.207ZM42.9987 473.5C42.9987 466.149 44.5024 460.567 47.5119 456.29C50.5197 452.015 55.1126 448.928 61.5125 446.719C74.3851 442.277 94.2024 441.5 121.999 441.5L121.999 439.5C94.2951 439.5 74.1124 440.255 60.86 444.829C54.1973 447.128 49.1965 450.42 45.8762 455.139C42.5576 459.856 40.9987 465.883 40.9987 473.5H42.9987ZM121.999 441.5C135.876 441.5 147.753 441.591 157.772 442.217C167.799 442.845 175.9 444.005 182.245 446.117C188.575 448.224 193.097 451.257 196.055 455.596C199.02 459.946 200.499 465.731 200.499 473.5H202.499C202.499 465.494 200.977 459.266 197.708 454.47C194.432 449.664 189.485 446.419 182.877 444.22C176.285 442.026 167.98 440.852 157.897 440.221C147.807 439.59 135.871 439.5 121.999 439.5L121.999 441.5Z" fill="#F9F0D5"/>
<path d="M81.9989 554L81.9989 555L81.9989 554ZM160.792 520.293C161.182 519.902 161.815 519.902 162.206 520.293L168.57 526.657C168.96 527.047 168.96 527.68 168.57 528.071C168.179 528.462 167.546 528.462 167.156 528.071L161.499 522.414L155.842 528.071C155.451 528.462 154.818 528.462 154.428 528.071C154.037 527.68 154.037 527.047 154.428 526.657L160.792 520.293ZM2.99887 521C2.99887 528.351 4.50253 533.933 7.51203 538.21C10.5198 542.485 15.1127 545.572 21.5126 547.781C34.3852 552.223 54.2025 553 81.9989 553L81.9989 555C54.2952 555 34.1125 554.245 20.8601 549.671C14.1975 547.372 9.19669 544.08 5.87633 539.361C2.5577 534.644 0.998865 528.617 0.998865 521H2.99887ZM81.9989 553C95.8764 553 107.753 552.909 117.772 552.282C127.799 551.655 135.9 550.495 142.246 548.383C148.575 546.276 153.097 543.243 156.055 538.903C159.021 534.554 160.499 528.769 160.499 521H162.499C162.499 529.006 160.977 535.234 157.708 540.03C154.432 544.836 149.485 548.081 142.877 550.28C136.285 552.474 127.98 553.648 117.897 554.279C107.807 554.91 95.8713 555 81.9989 555L81.9989 553Z" fill="#F9F0D5"/>
<path d="M360.792 314.207C361.183 314.598 361.816 314.598 362.206 314.207L368.57 307.843C368.961 307.453 368.961 306.819 368.57 306.429C368.18 306.038 367.547 306.038 367.156 306.429L361.499 312.086L355.842 306.429C355.452 306.038 354.819 306.038 354.428 306.429C354.038 306.819 354.038 307.453 354.428 307.843L360.792 314.207ZM224.657 260.039C232.843 272.83 245.613 279.527 260.003 283.18C274.373 286.828 290.482 287.469 305.46 288.062C320.514 288.658 334.348 289.207 344.432 292.581C349.45 294.26 353.45 296.613 356.197 299.942C358.93 303.255 360.499 307.628 360.499 313.5L362.499 313.5C362.499 307.247 360.818 302.401 357.739 298.669C354.674 294.954 350.298 292.435 345.067 290.684C334.651 287.199 320.484 286.655 305.539 286.063C290.516 285.469 274.625 284.828 260.495 281.242C246.386 277.66 234.155 271.17 226.341 258.961L224.657 260.039Z" fill="#F9F0D5"/>
<path d="M260.207 139.207C260.597 138.817 260.597 138.183 260.207 137.793L253.843 131.429C253.452 131.038 252.819 131.038 252.429 131.429C252.038 131.819 252.038 132.453 252.429 132.843L258.085 138.5L252.429 144.157C252.038 144.547 252.038 145.181 252.429 145.571C252.819 145.962 253.452 145.962 253.843 145.571L260.207 139.207ZM203 193.5C203 183.854 203.001 175.676 203.89 168.792C204.777 161.92 206.536 156.455 209.966 152.189C213.388 147.934 218.566 144.758 226.514 142.646C234.477 140.53 245.159 139.5 259.5 139.5V137.5C245.09 137.5 234.209 138.532 226.001 140.713C217.777 142.898 212.173 146.253 208.408 150.936C204.651 155.607 202.816 161.486 201.906 168.536C200.998 175.574 201 183.896 201 193.5H203Z" fill="#F9F0D5"/>
<path d="M304.793 137.293C304.402 137.683 304.402 138.317 304.793 138.707L311.157 145.071C311.547 145.462 312.18 145.462 312.571 145.071C312.961 144.681 312.961 144.047 312.571 143.657L306.914 138L312.571 132.343C312.961 131.953 312.961 131.319 312.571 130.929C312.18 130.538 311.547 130.538 311.157 130.929L304.793 137.293ZM404.5 233C404.5 209.88 403.97 192.303 401.76 178.969C399.548 165.628 395.631 156.386 388.738 150.075C381.853 143.773 372.151 140.533 358.695 138.844C345.238 137.155 327.858 137 305.5 137V139C327.891 139 345.137 139.158 358.446 140.828C371.755 142.499 380.959 145.665 387.387 151.55C393.806 157.426 397.608 166.153 399.787 179.296C401.967 192.447 402.5 209.87 402.5 233H404.5Z" fill="#F9F0D5"/>
<path d="M465.793 21.7929C465.402 22.1834 465.402 22.8166 465.793 23.2071L472.157 29.5711C472.547 29.9616 473.181 29.9616 473.571 29.5711C473.962 29.1805 473.962 28.5474 473.571 28.1569L467.914 22.5L473.571 16.8431C473.962 16.4526 473.962 15.8195 473.571 15.4289C473.181 15.0384 472.547 15.0384 472.157 15.4289L465.793 21.7929ZM524 1C524 6.19153 522.647 9.96754 520.173 12.7675C517.681 15.587 513.953 17.5294 508.993 18.846C499.026 21.4918 484.56 21.5 466.5 21.5V23.5C484.44 23.5 499.224 23.5082 509.507 20.779C514.672 19.4081 518.819 17.3192 521.671 14.0919C524.541 10.845 526 6.55847 526 1H524Z" fill="#F9F0D5"/>
<path d="M558.707 0.292893C558.317 -0.0976313 557.683 -0.0976313 557.293 0.292893L550.929 6.65685C550.538 7.04738 550.538 7.68054 550.929 8.07107C551.319 8.46159 551.953 8.46159 552.343 8.07107L558 2.41421L563.657 8.07107C564.047 8.46159 564.681 8.46159 565.071 8.07107C565.462 7.68054 565.462 7.04738 565.071 6.65685L558.707 0.292893ZM579.5 58.5C574.308 58.5 570.532 57.1469 567.733 54.6726C564.913 52.1809 562.971 48.4534 561.654 43.4935C559.008 33.5256 559 19.0602 559 1H557C557 18.9398 556.992 33.7244 559.721 44.0066C561.092 49.1716 563.181 53.3191 566.408 56.1712C569.655 59.0406 573.942 60.5 579.5 60.5V58.5Z" fill="#F9F0D5"/>
</svg>
