<svg width="632" height="417" viewBox="0 0 632 417" fill="none" xmlns="http://www.w3.org/2000/svg">
<path d="M399.293 416.707C399.683 417.097 400.316 417.097 400.707 416.707L407.071 410.343C407.461 409.952 407.461 409.319 407.071 408.929C406.68 408.538 406.047 408.538 405.657 408.929L400 414.585L394.343 408.929C393.952 408.538 393.319 408.538 392.929 408.929C392.538 409.319 392.538 409.952 392.929 410.343L399.293 416.707ZM279.858 376.513C289.289 360.754 301.5 347.9 314.487 339.351C327.482 330.796 341.187 326.59 353.638 327.994C366.043 329.392 377.341 336.374 385.573 350.488C393.826 364.638 399 385.971 399 416H401C401 385.778 395.798 364.05 387.301 349.481C378.783 334.876 366.956 327.483 353.862 326.006C340.812 324.535 326.642 328.954 313.387 337.68C300.124 346.412 287.711 359.496 278.141 375.486L279.858 376.513Z" fill="#F9F0D5"/>
<path d="M216.207 402.207C216.597 401.817 216.597 401.184 216.207 400.793L209.843 394.429C209.452 394.039 208.819 394.039 208.429 394.429C208.038 394.82 208.038 395.453 208.429 395.843L214.086 401.5L208.429 407.157C208.038 407.548 208.038 408.181 208.429 408.571C208.819 408.962 209.452 408.962 209.843 408.571L216.207 402.207ZM0.650682 384.028C4.30752 389.906 9.93931 393.963 18.6716 396.757C27.3698 399.54 39.2107 401.092 55.3851 401.936C87.7322 403.626 137.792 402.5 215.5 402.5L215.5 400.5C137.708 400.5 87.7673 401.625 55.4894 399.939C39.3513 399.096 27.7234 397.554 19.2811 394.852C10.8727 392.162 5.69196 388.345 2.34879 382.972L0.650682 384.028Z" fill="#F9F0D5"/>
<path d="M79.2927 337.707C79.6832 338.098 80.3164 338.098 80.7069 337.707L87.0708 331.343C87.4614 330.953 87.4614 330.319 87.0708 329.929C86.6803 329.538 86.0471 329.538 85.6566 329.929L79.9998 335.586L74.3429 329.929C73.9524 329.538 73.3192 329.538 72.9287 329.929C72.5382 330.319 72.5382 330.953 72.9287 331.343L79.2927 337.707ZM21.4919 262.861C33.394 269.877 42.9202 275.231 50.5683 280.049C58.2098 284.863 63.8793 289.084 68.0651 293.79C76.3691 303.124 78.9998 314.547 78.9998 337H80.9998C80.9998 314.453 78.3805 302.376 69.5594 292.46C65.1828 287.541 59.3209 283.199 51.6343 278.357C43.9543 273.519 34.3555 268.123 22.5076 261.139L21.4919 262.861Z" fill="#F9F0D5"/>
<path d="M199.293 337.207C199.683 337.598 200.316 337.598 200.707 337.207L207.071 330.843C207.461 330.453 207.461 329.819 207.071 329.429C206.68 329.038 206.047 329.038 205.657 329.429L200 335.086L194.343 329.429C193.952 329.038 193.319 329.038 192.929 329.429C192.538 329.819 192.538 330.453 192.929 330.843L199.293 337.207ZM24.249 321.968C58.2353 313.222 102.139 303.998 137.514 303.5C155.216 303.251 170.656 305.19 181.635 310.373C187.111 312.958 191.441 316.333 194.404 320.612C197.362 324.884 199 330.118 199 336.5H201C201 329.757 199.263 324.116 196.048 319.474C192.84 314.839 188.201 311.261 182.489 308.564C171.093 303.185 155.284 301.249 137.486 301.5C101.86 302.002 57.7642 311.278 23.7505 320.032L24.249 321.968Z" fill="#F9F0D5"/>
<path d="M240.293 336.707C240.683 337.098 241.316 337.098 241.707 336.707L248.071 330.343C248.461 329.953 248.461 329.319 248.071 328.929C247.68 328.538 247.047 328.538 246.657 328.929L241 334.586L235.343 328.929C234.952 328.538 234.319 328.538 233.929 328.929C233.538 329.319 233.538 329.953 233.929 330.343L240.293 336.707ZM279 264C279 275.868 276.59 282.85 273.105 287.519C269.599 292.216 264.928 294.698 260.013 297.439C255.135 300.159 250.065 303.116 246.263 308.795C242.458 314.478 240 322.759 240 336H242C242 322.991 244.417 315.147 247.925 309.908C251.435 304.665 256.114 301.903 260.987 299.186C265.822 296.49 270.901 293.815 274.707 288.715C278.535 283.588 281 276.132 281 264L279 264Z" fill="#F9F0D5"/>
<path d="M478.793 177.707C479.183 178.098 479.817 178.098 480.207 177.707L486.571 171.343C486.962 170.953 486.962 170.319 486.571 169.929C486.181 169.538 485.547 169.538 485.157 169.929L479.5 175.586L473.843 169.929C473.453 169.538 472.819 169.538 472.429 169.929C472.038 170.319 472.038 170.953 472.429 171.343L478.793 177.707ZM537 39.9999C521.174 39.9999 509.51 44.4696 500.972 52.3021C492.456 60.1152 487.151 71.1811 483.843 84.1911C477.241 110.16 478.5 144.337 478.5 177H480.5C480.5 144.163 479.259 110.34 485.782 84.6839C489.037 71.8813 494.201 61.2285 502.324 53.7759C510.427 46.3428 521.576 41.9999 537 41.9999V39.9999Z" fill="#F9F0D5"/>
<path d="M519.777 177.19C520.158 177.59 520.791 177.605 521.19 177.223L527.701 171.01C528.101 170.629 528.116 169.996 527.734 169.596C527.353 169.196 526.72 169.182 526.32 169.563L520.533 175.086L515.01 169.299C514.629 168.899 513.996 168.884 513.596 169.266C513.196 169.647 513.182 170.28 513.563 170.68L519.777 177.19ZM535.904 0.00458624C529.304 0.639254 524.064 2.2093 519.98 4.73764C515.882 7.27505 513.001 10.7448 511.078 15.0788C507.264 23.6736 507.224 35.6683 508.692 50.5979C511.643 80.6099 520.748 123.053 519.5 176.477L521.5 176.523C522.752 122.947 513.607 80.1401 510.683 50.4021C509.213 35.4567 509.329 23.9514 512.906 15.89C514.678 11.8959 517.302 8.74838 521.033 6.43813C524.779 4.11882 529.696 2.61074 536.096 1.9954L535.904 0.00458624Z" fill="#F9F0D5"/>
<path d="M439.293 178.207C439.683 178.598 440.316 178.598 440.707 178.207L447.071 171.843C447.461 171.453 447.461 170.819 447.071 170.429C446.68 170.038 446.047 170.038 445.657 170.429L440 176.086L434.343 170.429C433.952 170.038 433.319 170.038 432.929 170.429C432.538 170.819 432.538 171.453 432.929 171.843L439.293 178.207ZM160.389 136.457C171.328 115.194 194.1 101.592 222.342 94.5877C250.567 87.5878 284.1 87.2223 316.282 92.3002C348.466 97.3786 379.214 107.888 401.886 122.566C424.579 137.257 439 155.992 439 177.5L441 177.5C441 155.008 425.92 135.743 402.973 120.887C380.005 106.018 348.972 95.4338 316.593 90.3247C284.212 85.2151 250.401 85.5683 221.861 92.6465C193.338 99.7203 169.922 113.556 158.611 135.542L160.389 136.457Z" fill="#F9F0D5"/>
<path d="M628 184L629.492 184.152L628 184ZM517.272 280.639C516.796 281.317 516.961 282.253 517.639 282.728L528.692 290.478C529.371 290.954 530.306 290.79 530.782 290.111C531.257 289.433 531.093 288.498 530.415 288.022L520.589 281.133L527.478 271.307C527.954 270.629 527.79 269.694 527.111 269.218C526.433 268.743 525.498 268.907 525.022 269.585L517.272 280.639ZM582 81.5C592.753 81.5 601.201 84.0336 607.767 88.6849C614.336 93.3386 619.15 100.203 622.47 109.088C629.138 126.929 629.683 152.629 626.508 183.848L629.492 184.152C632.674 152.871 632.208 126.571 625.28 108.037C621.803 98.7342 616.673 91.3177 609.501 86.2369C602.326 81.1539 593.235 78.5 582 78.5V81.5ZM626.508 183.848C623.333 215.061 617.881 235.088 602.678 249.324C587.401 263.629 562.029 272.33 518.24 280.023L518.759 282.977C562.538 275.287 588.737 266.488 604.729 251.514C620.795 236.47 626.31 215.439 629.492 184.152L626.508 183.848Z" fill="#4182FF"/>
<path d="M437.939 416.061C438.525 416.646 439.475 416.646 440.06 416.061L449.606 406.515C450.192 405.929 450.192 404.979 449.606 404.393C449.021 403.808 448.071 403.808 447.485 404.393L439 412.879L430.514 404.393C429.929 403.808 428.979 403.808 428.393 404.393C427.807 404.979 427.807 405.929 428.393 406.515L437.939 416.061ZM516.049 284.619C510.223 306.807 502.502 318.463 494.348 325.405C486.132 332.399 477.405 334.723 468.884 338.106C460.379 341.482 452.387 345.855 446.628 357.015C440.936 368.045 437.5 385.559 437.5 415H440.5C440.5 385.691 443.939 368.768 449.294 358.391C454.581 348.145 461.808 344.143 469.991 340.894C478.157 337.652 487.587 335.101 496.293 327.689C505.06 320.225 513.027 307.944 518.951 285.381L516.049 284.619Z" fill="#4182FF"/>
<path d="M482.061 221.939C481.475 221.354 480.525 221.354 479.939 221.939L470.393 231.485C469.808 232.071 469.808 233.021 470.393 233.607C470.979 234.192 471.929 234.192 472.515 233.607L481 225.121L489.485 233.607C490.071 234.192 491.021 234.192 491.607 233.607C492.192 233.021 492.192 232.071 491.607 231.485L482.061 221.939ZM517.237 278.523C508.17 280.138 501.582 280.341 496.764 279.131C492.059 277.95 488.99 275.41 486.902 271.263C484.761 267.01 483.634 261.026 483.067 252.965C482.501 244.928 482.5 235.019 482.5 223H479.5C479.5 234.981 479.499 245.01 480.074 253.176C480.647 261.317 481.801 267.802 484.223 272.612C486.697 277.528 490.472 280.644 496.033 282.041C501.48 283.409 508.579 283.112 517.763 281.477L517.237 278.523Z" fill="#4182FF"/>
<path d="M449.709 268V267.262L451.027 267.098V260.705L449.686 260.729V260.008L452.182 259.469V267.098L453.494 267.262V268H449.709ZM454.73 269.822L454.08 269.389C454.264 269.107 454.402 268.82 454.496 268.527C454.59 268.234 454.637 267.924 454.637 267.596V266.705H455.791V267.578C455.791 267.961 455.695 268.361 455.504 268.779C455.312 269.197 455.055 269.545 454.73 269.822ZM459.869 268V267.209L462.664 264.104C462.996 263.732 463.256 263.416 463.443 263.154C463.631 262.889 463.762 262.648 463.836 262.434C463.91 262.219 463.947 261.996 463.947 261.766C463.947 261.34 463.818 260.982 463.561 260.693C463.303 260.4 462.934 260.254 462.453 260.254C461.953 260.254 461.562 260.404 461.281 260.705C461.004 261.006 460.865 261.432 460.865 261.982H459.758L459.746 261.947C459.734 261.455 459.838 261.014 460.057 260.623C460.275 260.229 460.592 259.918 461.006 259.691C461.424 259.461 461.92 259.346 462.494 259.346C463.033 259.346 463.496 259.449 463.883 259.656C464.273 259.859 464.574 260.139 464.785 260.494C464.996 260.85 465.102 261.258 465.102 261.719C465.102 262.188 464.963 262.654 464.686 263.119C464.412 263.584 464.025 264.086 463.525 264.625L461.281 267.068L461.293 267.098H464.322L464.416 266.119H465.395V268H459.869Z" fill="#D7D7D7"/>
<path d="M434.105 320.123C433.586 320.123 433.123 320.029 432.717 319.842C432.311 319.65 431.992 319.381 431.762 319.033C431.535 318.682 431.428 318.266 431.439 317.785L431.457 317.75H432.559C432.559 318.199 432.695 318.557 432.969 318.822C433.246 319.088 433.625 319.221 434.105 319.221C434.594 319.221 434.977 319.088 435.254 318.822C435.531 318.557 435.67 318.164 435.67 317.645C435.67 317.117 435.547 316.729 435.301 316.479C435.055 316.229 434.666 316.104 434.135 316.104H433.127V315.201H434.135C434.646 315.201 435.008 315.074 435.219 314.82C435.434 314.562 435.541 314.205 435.541 313.748C435.541 312.752 435.062 312.254 434.105 312.254C433.656 312.254 433.295 312.387 433.021 312.652C432.752 312.914 432.617 313.264 432.617 313.701H431.51L431.498 313.666C431.486 313.236 431.588 312.846 431.803 312.494C432.021 312.143 432.328 311.863 432.723 311.656C433.121 311.449 433.582 311.346 434.105 311.346C434.895 311.346 435.523 311.557 435.992 311.979C436.461 312.396 436.695 312.994 436.695 313.771C436.695 314.123 436.588 314.475 436.373 314.826C436.162 315.174 435.844 315.439 435.418 315.623C435.93 315.791 436.291 316.055 436.502 316.414C436.717 316.773 436.824 317.176 436.824 317.621C436.824 318.141 436.707 318.588 436.473 318.963C436.242 319.334 435.922 319.621 435.512 319.824C435.102 320.023 434.633 320.123 434.105 320.123ZM438.266 321.822L437.615 321.389C437.799 321.107 437.938 320.82 438.031 320.527C438.125 320.234 438.172 319.924 438.172 319.596V318.705H439.326V319.578C439.326 319.961 439.23 320.361 439.039 320.779C438.848 321.197 438.59 321.545 438.266 321.822ZM446.082 320V319.262L447.037 319.098V318.031H443.205V317.381L446.967 311.469H448.186V317.129H449.363V318.031H448.186V319.098L449.141 319.262V320H446.082ZM444.436 317.129H447.037V313.115L447.002 313.104L446.885 313.414L444.436 317.129ZM450.582 321.822L449.932 321.389C450.115 321.107 450.254 320.82 450.348 320.527C450.441 320.234 450.488 319.924 450.488 319.596V318.705H451.643V319.578C451.643 319.961 451.547 320.361 451.355 320.779C451.164 321.197 450.906 321.545 450.582 321.822ZM458.211 320.123C457.73 320.123 457.299 320.035 456.916 319.859C456.537 319.684 456.24 319.424 456.025 319.08C455.811 318.732 455.709 318.303 455.721 317.791L455.732 317.756H456.775C456.775 318.217 456.908 318.576 457.174 318.834C457.443 319.092 457.789 319.221 458.211 319.221C458.699 319.221 459.078 319.049 459.348 318.705C459.617 318.361 459.752 317.891 459.752 317.293C459.752 316.742 459.615 316.293 459.342 315.945C459.072 315.594 458.697 315.418 458.217 315.418C457.764 315.418 457.434 315.486 457.227 315.623C457.023 315.76 456.875 315.969 456.781 316.25L455.82 316.15L456.312 311.469H460.818V313.156H459.951L459.84 312.494H457.291L457.016 314.891C457.191 314.758 457.389 314.648 457.607 314.562C457.83 314.473 458.086 314.424 458.375 314.416C459.16 314.408 459.777 314.664 460.227 315.184C460.68 315.703 460.906 316.402 460.906 317.281C460.906 318.137 460.676 318.824 460.215 319.344C459.758 319.863 459.09 320.123 458.211 320.123ZM462.277 321.822L461.627 321.389C461.811 321.107 461.949 320.82 462.043 320.527C462.137 320.234 462.184 319.924 462.184 319.596V318.705H463.338V319.578C463.338 319.961 463.242 320.361 463.051 320.779C462.859 321.197 462.602 321.545 462.277 321.822ZM470.445 320.123C469.891 320.123 469.395 319.988 468.957 319.719C468.523 319.445 468.182 319.049 467.932 318.529C467.682 318.01 467.557 317.381 467.557 316.643V315.494C467.557 314.592 467.691 313.834 467.961 313.221C468.234 312.604 468.609 312.137 469.086 311.82C469.566 311.504 470.117 311.346 470.738 311.346C471.027 311.346 471.314 311.379 471.6 311.445C471.889 311.512 472.127 311.596 472.314 311.697L472.092 312.559C471.908 312.469 471.707 312.396 471.488 312.342C471.27 312.283 471.02 312.254 470.738 312.254C470.141 312.254 469.664 312.48 469.309 312.934C468.957 313.383 468.77 314.062 468.746 314.973L468.77 314.996C468.988 314.793 469.256 314.633 469.572 314.516C469.889 314.395 470.23 314.334 470.598 314.334C471.105 314.334 471.547 314.455 471.922 314.697C472.297 314.936 472.586 315.266 472.789 315.687C472.996 316.109 473.1 316.59 473.1 317.129C473.1 317.719 472.99 318.238 472.771 318.687C472.553 319.137 472.244 319.488 471.846 319.742C471.447 319.996 470.98 320.123 470.445 320.123ZM470.445 319.221C470.918 319.221 471.285 319.021 471.547 318.623C471.812 318.221 471.945 317.723 471.945 317.129C471.945 316.566 471.803 316.104 471.518 315.74C471.236 315.377 470.846 315.195 470.346 315.195C469.951 315.195 469.615 315.275 469.338 315.436C469.061 315.592 468.85 315.803 468.705 316.068V316.754C468.705 317.547 468.869 318.156 469.197 318.582C469.529 319.008 469.945 319.221 470.445 319.221Z" fill="#D7D7D7"/>
</svg>
