<svg width="606" height="552" viewBox="0 0 606 552" fill="none" xmlns="http://www.w3.org/2000/svg">
<path d="M492.061 424.061C491.475 424.646 490.525 424.646 489.939 424.061L480.393 414.515C479.808 413.929 479.808 412.979 480.393 412.393C480.979 411.808 481.929 411.808 482.515 412.393L491 420.879L499.485 412.393C500.071 411.808 501.021 411.808 501.607 412.393C502.192 412.979 502.192 413.929 501.607 414.515L492.061 424.061ZM448 256C458.824 256 467.286 257.371 473.729 261.958C480.207 266.569 484.363 274.223 487.087 286.102C489.81 297.975 491.155 314.305 491.827 336.556C492.5 358.826 492.5 387.134 492.5 423H489.5C489.5 387.116 489.5 358.861 488.829 336.647C488.157 314.414 486.815 298.338 484.163 286.773C481.512 275.215 477.605 268.399 471.989 264.402C466.339 260.379 458.676 259 448 259V256Z" fill="#4182FF"/>
<path d="M577.561 136.439C578.146 137.025 578.146 137.975 577.561 138.561L568.015 148.107C567.429 148.692 566.479 148.692 565.893 148.107C565.308 147.521 565.308 146.571 565.893 145.985L574.379 137.5L565.893 129.015C565.308 128.429 565.308 127.479 565.893 126.893C566.479 126.308 567.429 126.308 568.015 126.893L577.561 136.439ZM448.5 255C462.618 255 472.311 247.934 480.297 237.02C488.351 226.015 494.499 211.342 501.581 196.359C508.616 181.478 516.538 166.384 528.097 155.024C539.717 143.604 554.965 136 576.5 136V139C555.785 139 541.283 146.271 530.2 157.164C519.056 168.116 511.322 182.772 504.294 197.641C497.313 212.408 490.993 227.485 482.718 238.792C474.377 250.191 463.882 258 448.5 258L448.5 255Z" fill="#4182FF"/>
<path d="M321.439 375.061C320.854 374.475 320.854 373.525 321.439 372.939L330.985 363.393C331.571 362.808 332.521 362.808 333.107 363.393C333.692 363.979 333.692 364.929 333.107 365.515L324.621 374L333.107 382.485C333.692 383.071 333.692 384.021 333.107 384.607C332.521 385.192 331.571 385.192 330.985 384.607L321.439 375.061ZM448 258.5C430.25 258.5 418.952 265.569 410.585 276.208C402.124 286.969 396.675 301.351 390.767 316.059C384.904 330.655 378.599 345.532 368.39 356.729C358.1 368.016 343.914 375.5 322.5 375.5V372.5C343.086 372.5 356.463 365.359 366.173 354.708C375.964 343.968 382.096 329.595 387.983 314.941C393.825 300.399 399.438 285.531 408.227 274.354C417.111 263.056 429.25 255.5 448 255.5V258.5Z" fill="#4182FF"/>
<path d="M446.939 258.561C447.525 259.146 448.475 259.146 449.061 258.561L458.607 249.015C459.192 248.429 459.192 247.479 458.607 246.893C458.021 246.308 457.071 246.308 456.485 246.893L448 255.379L439.515 246.893C438.929 246.308 437.979 246.308 437.393 246.893C436.808 247.479 436.808 248.429 437.393 249.015L446.939 258.561ZM446.5 77.5V257.5H449.5V77.5H446.5Z" fill="#4182FF"/>
<path d="M385.709 270V269.262L387.027 269.098V262.705L385.686 262.729V262.008L388.182 261.469V269.098L389.494 269.262V270H385.709ZM390.73 271.822L390.08 271.389C390.264 271.107 390.402 270.82 390.496 270.527C390.59 270.234 390.637 269.924 390.637 269.596V268.705H391.791V269.578C391.791 269.961 391.695 270.361 391.504 270.779C391.312 271.197 391.055 271.545 390.73 271.822ZM395.869 270V269.209L398.664 266.104C398.996 265.732 399.256 265.416 399.443 265.154C399.631 264.889 399.762 264.648 399.836 264.434C399.91 264.219 399.947 263.996 399.947 263.766C399.947 263.34 399.818 262.982 399.561 262.693C399.303 262.4 398.934 262.254 398.453 262.254C397.953 262.254 397.562 262.404 397.281 262.705C397.004 263.006 396.865 263.432 396.865 263.982H395.758L395.746 263.947C395.734 263.455 395.838 263.014 396.057 262.623C396.275 262.229 396.592 261.918 397.006 261.691C397.424 261.461 397.92 261.346 398.494 261.346C399.033 261.346 399.496 261.449 399.883 261.656C400.273 261.859 400.574 262.139 400.785 262.494C400.996 262.85 401.102 263.258 401.102 263.719C401.102 264.188 400.963 264.654 400.686 265.119C400.412 265.584 400.025 266.086 399.525 266.625L397.281 269.068L397.293 269.098H400.322L400.416 268.119H401.395V270H395.869Z" fill="#D7D7D7"/>
<path d="M463.105 315.123C462.586 315.123 462.123 315.029 461.717 314.842C461.311 314.65 460.992 314.381 460.762 314.033C460.535 313.682 460.428 313.266 460.439 312.785L460.457 312.75H461.559C461.559 313.199 461.695 313.557 461.969 313.822C462.246 314.088 462.625 314.221 463.105 314.221C463.594 314.221 463.977 314.088 464.254 313.822C464.531 313.557 464.67 313.164 464.67 312.645C464.67 312.117 464.547 311.729 464.301 311.479C464.055 311.229 463.666 311.104 463.135 311.104H462.127V310.201H463.135C463.646 310.201 464.008 310.074 464.219 309.82C464.434 309.562 464.541 309.205 464.541 308.748C464.541 307.752 464.062 307.254 463.105 307.254C462.656 307.254 462.295 307.387 462.021 307.652C461.752 307.914 461.617 308.264 461.617 308.701H460.51L460.498 308.666C460.486 308.236 460.588 307.846 460.803 307.494C461.021 307.143 461.328 306.863 461.723 306.656C462.121 306.449 462.582 306.346 463.105 306.346C463.895 306.346 464.523 306.557 464.992 306.979C465.461 307.396 465.695 307.994 465.695 308.771C465.695 309.123 465.588 309.475 465.373 309.826C465.162 310.174 464.844 310.439 464.418 310.623C464.93 310.791 465.291 311.055 465.502 311.414C465.717 311.773 465.824 312.176 465.824 312.621C465.824 313.141 465.707 313.588 465.473 313.963C465.242 314.334 464.922 314.621 464.512 314.824C464.102 315.023 463.633 315.123 463.105 315.123ZM467.266 316.822L466.615 316.389C466.799 316.107 466.938 315.82 467.031 315.527C467.125 315.234 467.172 314.924 467.172 314.596V313.705H468.326V314.578C468.326 314.961 468.23 315.361 468.039 315.779C467.848 316.197 467.59 316.545 467.266 316.822ZM475.082 315V314.262L476.037 314.098V313.031H472.205V312.381L475.967 306.469H477.186V312.129H478.363V313.031H477.186V314.098L478.141 314.262V315H475.082ZM473.436 312.129H476.037V308.115L476.002 308.104L475.885 308.414L473.436 312.129Z" fill="#D7D7D7"/>
<path d="M512.059 224.123C511.578 224.123 511.146 224.035 510.764 223.859C510.385 223.684 510.088 223.424 509.873 223.08C509.658 222.732 509.557 222.303 509.568 221.791L509.58 221.756H510.623C510.623 222.217 510.756 222.576 511.021 222.834C511.291 223.092 511.637 223.221 512.059 223.221C512.547 223.221 512.926 223.049 513.195 222.705C513.465 222.361 513.6 221.891 513.6 221.293C513.6 220.742 513.463 220.293 513.189 219.945C512.92 219.594 512.545 219.418 512.064 219.418C511.611 219.418 511.281 219.486 511.074 219.623C510.871 219.76 510.723 219.969 510.629 220.25L509.668 220.15L510.16 215.469H514.666V217.156H513.799L513.688 216.494H511.139L510.863 218.891C511.039 218.758 511.236 218.648 511.455 218.562C511.678 218.473 511.934 218.424 512.223 218.416C513.008 218.408 513.625 218.664 514.074 219.184C514.527 219.703 514.754 220.402 514.754 221.281C514.754 222.137 514.523 222.824 514.062 223.344C513.605 223.863 512.938 224.123 512.059 224.123ZM516.125 225.822L515.475 225.389C515.658 225.107 515.797 224.82 515.891 224.527C515.984 224.234 516.031 223.924 516.031 223.596V222.705H517.186V223.578C517.186 223.961 517.09 224.361 516.898 224.779C516.707 225.197 516.449 225.545 516.125 225.822ZM524.293 224.123C523.738 224.123 523.242 223.988 522.805 223.719C522.371 223.445 522.029 223.049 521.779 222.529C521.529 222.01 521.404 221.381 521.404 220.643V219.494C521.404 218.592 521.539 217.834 521.809 217.221C522.082 216.604 522.457 216.137 522.934 215.82C523.414 215.504 523.965 215.346 524.586 215.346C524.875 215.346 525.162 215.379 525.447 215.445C525.736 215.512 525.975 215.596 526.162 215.697L525.939 216.559C525.756 216.469 525.555 216.396 525.336 216.342C525.117 216.283 524.867 216.254 524.586 216.254C523.988 216.254 523.512 216.48 523.156 216.934C522.805 217.383 522.617 218.062 522.594 218.973L522.617 218.996C522.836 218.793 523.104 218.633 523.42 218.516C523.736 218.395 524.078 218.334 524.445 218.334C524.953 218.334 525.395 218.455 525.77 218.697C526.145 218.936 526.434 219.266 526.637 219.688C526.844 220.109 526.947 220.59 526.947 221.129C526.947 221.719 526.838 222.238 526.619 222.688C526.4 223.137 526.092 223.488 525.693 223.742C525.295 223.996 524.828 224.123 524.293 224.123ZM524.293 223.221C524.766 223.221 525.133 223.021 525.395 222.623C525.66 222.221 525.793 221.723 525.793 221.129C525.793 220.566 525.65 220.104 525.365 219.74C525.084 219.377 524.693 219.195 524.193 219.195C523.799 219.195 523.463 219.275 523.186 219.436C522.908 219.592 522.697 219.803 522.553 220.068V220.754C522.553 221.547 522.717 222.156 523.045 222.582C523.377 223.008 523.793 223.221 524.293 223.221Z" fill="#D7D7D7"/>
<path d="M448.655 476.465C448.95 475.999 449.568 475.86 450.035 476.155L457.64 480.967C458.107 481.262 458.246 481.88 457.951 482.346C457.656 482.813 457.038 482.952 456.571 482.657L449.81 478.38L445.533 485.14C445.238 485.607 444.62 485.746 444.154 485.451C443.687 485.155 443.548 484.538 443.843 484.071L448.655 476.465ZM530.486 457.831C533.517 475.512 530.85 489.455 524.817 499.454C518.782 509.457 509.421 515.436 499.236 517.235C478.836 520.838 455.377 507.678 448.524 477.219L450.476 476.78C457.123 506.322 479.664 518.661 498.889 515.265C508.517 513.564 517.374 507.918 523.105 498.421C528.837 488.92 531.483 475.488 528.514 458.169L530.486 457.831Z" fill="#F9F0D5"/>
<path d="M272.293 254.707C271.902 254.317 271.902 253.683 272.293 253.293L278.657 246.929C279.047 246.538 279.681 246.538 280.071 246.929C280.462 247.319 280.462 247.953 280.071 248.343L274.414 254L280.071 259.657C280.462 260.047 280.462 260.681 280.071 261.071C279.681 261.462 279.047 261.462 278.657 261.071L272.293 254.707ZM293.571 333.097C318.657 321.174 332.566 301.483 330.88 285.102C330.042 276.961 325.351 269.474 315.994 263.988C306.608 258.484 292.523 255 273 255V253C292.727 253 307.205 256.516 317.006 262.262C326.836 268.026 331.958 276.039 332.87 284.898C334.684 302.517 319.843 322.825 294.429 334.903L293.571 333.097Z" fill="#F9F0D5"/>
<path d="M603.842 333.46C604.14 333.925 604.005 334.544 603.54 334.842L595.964 339.701C595.499 339.999 594.881 339.864 594.583 339.399C594.284 338.934 594.42 338.315 594.884 338.017L601.618 333.698L597.299 326.964C597.001 326.499 597.136 325.881 597.601 325.583C598.066 325.284 598.685 325.42 598.983 325.884L603.842 333.46ZM605.065 176.498C592.055 177.341 581.71 186.527 574.424 200.38C567.145 214.22 563.027 232.547 562.437 251.219C561.847 269.89 564.786 288.809 571.53 303.833C578.273 318.856 588.755 329.864 603.213 333.023L602.787 334.977C587.495 331.636 576.603 320.019 569.705 304.652C562.807 289.285 559.841 270.048 560.438 251.156C561.035 232.266 565.199 213.624 572.654 199.449C580.103 185.285 590.945 175.409 604.935 174.502L605.065 176.498Z" fill="#F9F0D5"/>
<path d="M489.951 38.8923C489.459 39.1416 488.857 38.9442 488.608 38.4513L484.545 30.4205C484.296 29.9277 484.493 29.3261 484.986 29.0768C485.479 28.8275 486.08 29.0249 486.33 29.5177L489.941 36.6562L497.079 33.0449C497.572 32.7956 498.174 32.993 498.423 33.4859C498.672 33.9787 498.475 34.5803 497.982 34.8296L489.951 38.8923ZM569.574 71.1228C576.621 53.8149 576.395 39.2449 571.893 28.1091C567.39 16.9681 558.568 9.16338 548.224 5.44088C527.574 -1.99075 500.777 6.83978 490.45 38.3117L488.55 37.6882C499.223 5.16013 527.176 -4.25932 548.901 3.55903C559.745 7.46153 569.017 15.6568 573.747 27.3595C578.48 39.0674 578.629 54.1849 571.426 71.877L569.574 71.1228Z" fill="#F9F0D5"/>
<path d="M276.488 131.346C276.573 131.891 276.2 132.403 275.654 132.488L266.762 133.876C266.216 133.961 265.705 133.588 265.62 133.042C265.535 132.497 265.908 131.985 266.454 131.9L274.358 130.666L273.124 122.762C273.039 122.216 273.412 121.705 273.958 121.62C274.503 121.534 275.015 121.908 275.1 122.453L276.488 131.346ZM234.956 216.839C194.205 190.426 186.649 156.273 198.563 134.827C204.506 124.13 215.248 116.744 228.851 115.233C242.445 113.722 258.814 118.082 276.09 130.692L274.91 132.308C257.936 119.918 242.056 115.778 229.071 117.22C216.096 118.662 205.932 125.682 200.312 135.798C189.101 155.976 195.795 189.074 236.044 215.161L234.956 216.839Z" fill="#F9F0D5"/>
<path d="M7.49998 441.04L6.49998 441.04V441.04H7.49998ZM8.20709 551.707C7.81657 552.097 7.1834 552.097 6.79288 551.707L0.428918 545.343C0.038394 544.952 0.038394 544.319 0.428918 543.929C0.819443 543.538 1.45261 543.538 1.84313 543.929L7.49999 549.585L13.1568 543.929C13.5474 543.538 14.1805 543.538 14.5711 543.929C14.9616 544.319 14.9616 544.952 14.5711 545.343L8.20709 551.707ZM26.5 376.5C22.9125 376.5 20.1052 377.333 17.8519 379.253C15.5759 381.194 13.7455 384.344 12.3356 389.22C9.50638 399.004 8.49998 415.247 8.49998 441.04H6.49998C6.49998 415.293 7.4936 398.765 10.4143 388.665C11.8795 383.598 13.8615 380.027 16.5544 377.731C19.2698 375.417 22.5875 374.5 26.5 374.5L26.5 376.5ZM8.49998 441.04L8.49999 551L6.49999 551L6.49998 441.04L8.49998 441.04Z" fill="#F9F0D5"/>
<path d="M297.501 494.5L297.501 493.5L297.501 493.5L297.501 494.5ZM297.5 494.5L297.5 495.5L297.5 495.5L297.5 494.5ZM294.047 494.5L294.047 493.5L294.047 494.5ZM191.793 495.207C191.402 494.816 191.402 494.183 191.793 493.793L198.157 487.429C198.547 487.038 199.181 487.038 199.571 487.429C199.962 487.819 199.962 488.452 199.571 488.843L193.914 494.5L199.571 500.157C199.962 500.547 199.962 501.18 199.571 501.571C199.181 501.961 198.547 501.961 198.157 501.571L191.793 495.207ZM370.5 457C370.5 466.59 367.648 473.862 362.871 479.337C358.11 484.793 351.505 488.386 344.119 490.764C329.38 495.509 311.213 495.5 297.501 495.5L297.501 493.5C311.288 493.5 329.121 493.491 343.506 488.86C350.683 486.55 356.921 483.113 361.364 478.022C365.789 472.95 368.5 466.16 368.5 457H370.5ZM297.501 495.5L297.5 495.5L297.5 493.5L297.501 493.5L297.501 495.5ZM297.5 495.5L294.047 495.5L294.047 493.5L297.5 493.5L297.5 495.5ZM294.047 495.5C268.28 495.5 248.045 495.5 192.5 495.5L192.5 493.5C248.045 493.5 268.28 493.5 294.047 493.5L294.047 495.5Z" fill="#F9F0D5"/>
</svg>
