<svg width="662" height="596" viewBox="0 0 662 596" fill="none" xmlns="http://www.w3.org/2000/svg">
<path d="M29.2071 58.7928C29.5976 59.1834 29.5976 59.8165 29.2071 60.2071L22.8431 66.571C22.4526 66.9615 21.8195 66.9615 21.4289 66.571C21.0384 66.1805 21.0384 65.5473 21.4289 65.1568L27.0858 59.5L21.4289 53.8431C21.0384 53.4526 21.0384 52.8194 21.4289 52.4289C21.8195 52.0384 22.4526 52.0384 22.8431 52.4289L29.2071 58.7928ZM28.5 139.5C20.3934 139.5 13.7481 134.246 9.01938 126.687C4.28359 119.116 1.35478 109.074 0.689694 99.0663C0.0250647 89.0652 1.61359 78.9732 6.04949 71.3412C10.5166 63.6556 17.8619 58.5 28.5 58.5V60.5C18.6381 60.5 11.9209 65.2193 7.77863 72.3462C3.60515 79.5267 2.03742 89.1847 2.68529 98.9336C3.33271 108.676 6.18514 118.384 10.715 125.626C15.2518 132.879 21.3565 137.5 28.5 137.5V139.5Z" fill="#F9F0D5"/>
<path d="M29.2071 457.793C29.5976 458.183 29.5976 458.816 29.2071 459.207L22.8431 465.571C22.4526 465.962 21.8195 465.962 21.4289 465.571C21.0384 465.18 21.0384 464.547 21.4289 464.157L27.0858 458.5L21.4289 452.843C21.0384 452.453 21.0384 451.819 21.4289 451.429C21.8195 451.038 22.4526 451.038 22.8431 451.429L29.2071 457.793ZM28.5 380.5C21.3566 380.5 15.2518 385.121 10.715 392.374C6.18515 399.616 3.33271 409.324 2.68529 419.066C2.03742 428.815 3.60515 438.473 7.77863 445.654C11.9209 452.781 18.6381 457.5 28.5 457.5V459.5C17.8619 459.5 10.5166 454.344 6.04949 446.659C1.61358 439.027 0.0250649 428.935 0.689695 418.934C1.35478 408.926 4.28359 398.884 9.01938 391.313C13.7481 383.754 20.3934 378.5 28.5 378.5V380.5Z" fill="#F9F0D5"/>
<path d="M131.707 475.707C131.317 476.098 130.683 476.098 130.293 475.707L123.929 469.343C123.538 468.953 123.538 468.319 123.929 467.929C124.319 467.538 124.953 467.538 125.343 467.929L131 473.586L136.657 467.929C137.047 467.538 137.681 467.538 138.071 467.929C138.462 468.319 138.462 468.953 138.071 469.343L131.707 475.707ZM132 401.5L132 475L130 475L130 401.5H132Z" fill="#F9F0D5"/>
<path d="M532.707 475.207C532.317 475.598 531.683 475.598 531.293 475.207L524.929 468.843C524.538 468.453 524.538 467.819 524.929 467.429C525.319 467.038 525.953 467.038 526.343 467.429L532 473.086L537.657 467.429C538.047 467.038 538.681 467.038 539.071 467.429C539.462 467.819 539.462 468.453 539.071 468.843L532.707 475.207ZM533 401L533 474.5L531 474.5L531 401H533Z" fill="#F9F0D5"/>
<path d="M589.707 58.2929C590.098 58.6834 590.098 59.3166 589.707 59.7071L583.343 66.0711C582.953 66.4616 582.319 66.4616 581.929 66.0711C581.538 65.6805 581.538 65.0474 581.929 64.6568L587.586 59L581.929 53.3431C581.538 52.9526 581.538 52.3194 581.929 51.9289C582.319 51.5384 582.953 51.5384 583.343 51.9289L589.707 58.2929ZM533.5 2.99998C533.5 24.6352 538.229 38.2879 547.359 46.5719C556.512 54.8759 570.316 58 589 58V60C570.184 60 555.738 56.8741 546.016 48.0531C536.271 39.212 531.5 24.8647 531.5 2.99998H533.5Z" fill="#F9F0D5"/>
<path d="M133.707 595.207C133.317 595.598 132.683 595.598 132.293 595.207L125.929 588.843C125.538 588.453 125.538 587.82 125.929 587.429C126.319 587.039 126.953 587.039 127.343 587.429L133 593.086L138.657 587.429C139.047 587.039 139.681 587.039 140.071 587.429C140.462 587.82 140.462 588.453 140.071 588.843L133.707 595.207ZM75.5 537C90.5919 537 105.238 539.762 116.122 548.405C127.052 557.084 134 571.541 134 594.5H132C132 571.96 125.198 558.166 114.878 549.971C104.512 541.739 90.4081 539 75.5 539V537Z" fill="#F9F0D5"/>
<path d="M322.207 594.207C321.817 594.598 321.183 594.598 320.793 594.207L314.429 587.843C314.038 587.453 314.038 586.82 314.429 586.429C314.819 586.039 315.453 586.039 315.843 586.429L321.5 592.086L327.157 586.429C327.547 586.039 328.181 586.039 328.571 586.429C328.962 586.82 328.962 587.453 328.571 587.843L322.207 594.207ZM237.357 499.986C258.227 534.769 279.303 546.538 295.232 555.312C303.185 559.692 310.051 563.417 314.879 568.961C319.764 574.571 322.5 581.951 322.5 593.5H320.5C320.5 582.3 317.861 575.43 313.371 570.274C308.824 565.053 302.315 561.496 294.268 557.064C278.197 548.212 256.773 536.232 235.643 501.015L237.357 499.986Z" fill="#F9F0D5"/>
<path d="M342.293 594.707C342.683 595.098 343.317 595.098 343.707 594.707L350.071 588.343C350.462 587.953 350.462 587.32 350.071 586.929C349.681 586.539 349.047 586.539 348.657 586.929L343 592.586L337.343 586.929C336.953 586.539 336.319 586.539 335.929 586.929C335.538 587.32 335.538 587.953 335.929 588.343L342.293 594.707ZM427.143 500.486C406.273 535.269 385.197 547.038 369.268 555.812C361.315 560.192 354.449 563.917 349.621 569.461C344.736 575.071 342 582.451 342 594H344C344 582.8 346.639 575.93 351.129 570.774C355.676 565.553 362.185 561.996 370.232 557.564C386.303 548.712 407.727 536.732 428.857 501.515L427.143 500.486Z" fill="#F9F0D5"/>
<path d="M634.793 339.793C634.402 340.183 634.402 340.816 634.793 341.207L641.157 347.571C641.547 347.962 642.181 347.962 642.571 347.571C642.962 347.18 642.962 346.547 642.571 346.157L636.914 340.5L642.571 334.843C642.962 334.453 642.962 333.819 642.571 333.429C642.181 333.038 641.547 333.038 641.157 333.429L634.793 339.793ZM635.5 181C641.504 181 645.911 182.935 649.215 186.552C652.557 190.21 654.851 195.677 656.397 202.882C659.494 217.31 659.5 238.18 659.5 264H661.5C661.5 238.279 661.506 217.149 658.353 202.462C656.774 195.11 654.38 189.241 650.691 185.203C646.964 181.122 641.996 179 635.5 179V181ZM659.5 264C659.5 289.832 659.493 308.804 656.404 321.338C654.866 327.582 652.591 332.093 649.286 335.049C646.002 337.987 641.578 339.5 635.5 339.5V341.5C641.922 341.5 646.873 339.893 650.62 336.54C654.346 333.206 656.759 328.256 658.346 321.817C661.507 308.986 661.5 289.708 661.5 264H659.5Z" fill="#F9F0D5"/>
<path d="M190.823 196.746C191.516 197.201 191.709 198.13 191.254 198.823L183.847 210.11C183.393 210.802 182.463 210.995 181.77 210.541C181.078 210.086 180.885 209.156 181.339 208.464L187.923 198.431L177.89 191.847C177.198 191.393 177.005 190.463 177.459 189.77C177.914 189.078 178.844 188.885 179.536 189.339L190.823 196.746ZM89 235.5C89 227.963 94.1192 222.192 101.549 217.737C109.002 213.269 119.129 209.898 129.954 207.231C140.8 204.559 152.462 202.566 163.04 200.901C173.656 199.23 183.118 197.897 189.695 196.531L190.305 199.469C183.632 200.854 174.031 202.208 163.507 203.865C152.944 205.528 141.387 207.504 130.671 210.144C119.933 212.79 110.155 216.075 103.092 220.31C96.0058 224.558 92 229.537 92 235.5H89Z" fill="#4182FF"/>
<path d="M132.439 160.439C133.025 159.854 133.975 159.854 134.561 160.439L144.107 169.985C144.692 170.571 144.692 171.521 144.107 172.107C143.521 172.692 142.571 172.692 141.985 172.107L133.5 163.621L125.015 172.107C124.429 172.692 123.479 172.692 122.893 172.107C122.308 171.521 122.308 170.571 122.893 169.985L132.439 160.439ZM189 199C177.403 199 163.267 197.368 151.973 191.913C146.309 189.178 141.306 185.455 137.718 180.444C134.118 175.416 132 169.169 132 161.5H135C135 168.581 136.944 174.209 140.157 178.697C143.381 183.201 147.941 186.635 153.277 189.212C163.983 194.382 177.597 196 189 196V199Z" fill="#4182FF"/>
<path d="M532.439 235.561C533.025 236.147 533.975 236.147 534.561 235.561L544.107 226.015C544.692 225.429 544.692 224.479 544.107 223.893C543.521 223.308 542.571 223.308 541.985 223.893L533.5 232.379L525.015 223.893C524.429 223.308 523.479 223.308 522.893 223.893C522.308 224.479 522.308 225.429 522.893 226.015L532.439 235.561ZM189 199.5C354.557 199.5 440.571 199.502 485.223 204.055C496.372 205.192 504.884 206.607 511.383 208.359C517.888 210.114 522.288 212.182 525.284 214.571C531.127 219.23 532 225.402 532 234.5H535C535 225.348 534.185 217.832 527.154 212.226C523.712 209.482 518.878 207.273 512.164 205.463C505.444 203.651 496.753 202.215 485.527 201.07C440.679 196.498 354.443 196.5 189 196.5V199.5Z" fill="#4182FF"/>
<path d="M91.709 195V194.262L93.0273 194.098V187.705L91.6855 187.729V187.008L94.1816 186.469V194.098L95.4941 194.262V195H91.709ZM96.7305 196.822L96.0801 196.389C96.2637 196.107 96.4023 195.82 96.4961 195.527C96.5898 195.234 96.6367 194.924 96.6367 194.596V193.705H97.791V194.578C97.791 194.961 97.6953 195.361 97.5039 195.779C97.3125 196.197 97.0547 196.545 96.7305 196.822ZM101.869 195V194.209L104.664 191.104C104.996 190.732 105.256 190.416 105.443 190.154C105.631 189.889 105.762 189.648 105.836 189.434C105.91 189.219 105.947 188.996 105.947 188.766C105.947 188.34 105.818 187.982 105.561 187.693C105.303 187.4 104.934 187.254 104.453 187.254C103.953 187.254 103.562 187.404 103.281 187.705C103.004 188.006 102.865 188.432 102.865 188.982H101.758L101.746 188.947C101.734 188.455 101.838 188.014 102.057 187.623C102.275 187.229 102.592 186.918 103.006 186.691C103.424 186.461 103.92 186.346 104.494 186.346C105.033 186.346 105.496 186.449 105.883 186.656C106.273 186.859 106.574 187.139 106.785 187.494C106.996 187.85 107.102 188.258 107.102 188.719C107.102 189.188 106.963 189.654 106.686 190.119C106.412 190.584 106.025 191.086 105.525 191.625L103.281 194.068L103.293 194.098H106.322L106.416 193.119H107.395V195H101.869ZM108.719 196.822L108.068 196.389C108.252 196.107 108.391 195.82 108.484 195.527C108.578 195.234 108.625 194.924 108.625 194.596V193.705H109.779V194.578C109.779 194.961 109.684 195.361 109.492 195.779C109.301 196.197 109.043 196.545 108.719 196.822ZM116.395 195.123C115.875 195.123 115.412 195.029 115.006 194.842C114.6 194.65 114.281 194.381 114.051 194.033C113.824 193.682 113.717 193.266 113.729 192.785L113.746 192.75H114.848C114.848 193.199 114.984 193.557 115.258 193.822C115.535 194.088 115.914 194.221 116.395 194.221C116.883 194.221 117.266 194.088 117.543 193.822C117.82 193.557 117.959 193.164 117.959 192.645C117.959 192.117 117.836 191.729 117.59 191.479C117.344 191.229 116.955 191.104 116.424 191.104H115.416V190.201H116.424C116.936 190.201 117.297 190.074 117.508 189.82C117.723 189.562 117.83 189.205 117.83 188.748C117.83 187.752 117.352 187.254 116.395 187.254C115.945 187.254 115.584 187.387 115.311 187.652C115.041 187.914 114.906 188.264 114.906 188.701H113.799L113.787 188.666C113.775 188.236 113.877 187.846 114.092 187.494C114.311 187.143 114.617 186.863 115.012 186.656C115.41 186.449 115.871 186.346 116.395 186.346C117.184 186.346 117.812 186.557 118.281 186.979C118.75 187.396 118.984 187.994 118.984 188.771C118.984 189.123 118.877 189.475 118.662 189.826C118.451 190.174 118.133 190.439 117.707 190.623C118.219 190.791 118.58 191.055 118.791 191.414C119.006 191.773 119.113 192.176 119.113 192.621C119.113 193.141 118.996 193.588 118.762 193.963C118.531 194.334 118.211 194.621 117.801 194.824C117.391 195.023 116.922 195.123 116.395 195.123ZM120.555 196.822L119.904 196.389C120.088 196.107 120.227 195.82 120.32 195.527C120.414 195.234 120.461 194.924 120.461 194.596V193.705H121.615V194.578C121.615 194.961 121.52 195.361 121.328 195.779C121.137 196.197 120.879 196.545 120.555 196.822ZM128.371 195V194.262L129.326 194.098V193.031H125.494V192.381L129.256 186.469H130.475V192.129H131.652V193.031H130.475V194.098L131.43 194.262V195H128.371ZM126.725 192.129H129.326V188.115L129.291 188.104L129.174 188.414L126.725 192.129Z" fill="#D7D7D7"/>
<path d="M229.059 187.123C228.578 187.123 228.146 187.035 227.764 186.859C227.385 186.684 227.088 186.424 226.873 186.08C226.658 185.732 226.557 185.303 226.568 184.791L226.58 184.756H227.623C227.623 185.217 227.756 185.576 228.021 185.834C228.291 186.092 228.637 186.221 229.059 186.221C229.547 186.221 229.926 186.049 230.195 185.705C230.465 185.361 230.6 184.891 230.6 184.293C230.6 183.742 230.463 183.293 230.189 182.945C229.92 182.594 229.545 182.418 229.064 182.418C228.611 182.418 228.281 182.486 228.074 182.623C227.871 182.76 227.723 182.969 227.629 183.25L226.668 183.15L227.16 178.469H231.666V180.156H230.799L230.688 179.494H228.139L227.863 181.891C228.039 181.758 228.236 181.648 228.455 181.563C228.678 181.473 228.934 181.424 229.223 181.416C230.008 181.408 230.625 181.664 231.074 182.184C231.527 182.703 231.754 183.402 231.754 184.281C231.754 185.137 231.523 185.824 231.062 186.344C230.605 186.863 229.938 187.123 229.059 187.123ZM233.125 188.822L232.475 188.389C232.658 188.107 232.797 187.82 232.891 187.527C232.984 187.234 233.031 186.924 233.031 186.596V185.705H234.186V186.578C234.186 186.961 234.09 187.361 233.898 187.779C233.707 188.197 233.449 188.545 233.125 188.822ZM241.293 187.123C240.738 187.123 240.242 186.988 239.805 186.719C239.371 186.445 239.029 186.049 238.779 185.529C238.529 185.01 238.404 184.381 238.404 183.643V182.494C238.404 181.592 238.539 180.834 238.809 180.221C239.082 179.604 239.457 179.137 239.934 178.82C240.414 178.504 240.965 178.346 241.586 178.346C241.875 178.346 242.162 178.379 242.447 178.445C242.736 178.512 242.975 178.596 243.162 178.697L242.939 179.559C242.756 179.469 242.555 179.396 242.336 179.342C242.117 179.283 241.867 179.254 241.586 179.254C240.988 179.254 240.512 179.48 240.156 179.934C239.805 180.383 239.617 181.063 239.594 181.973L239.617 181.996C239.836 181.793 240.104 181.633 240.42 181.516C240.736 181.395 241.078 181.334 241.445 181.334C241.953 181.334 242.395 181.455 242.77 181.697C243.145 181.936 243.434 182.266 243.637 182.688C243.844 183.109 243.947 183.59 243.947 184.129C243.947 184.719 243.838 185.238 243.619 185.688C243.4 186.137 243.092 186.488 242.693 186.742C242.295 186.996 241.828 187.123 241.293 187.123ZM241.293 186.221C241.766 186.221 242.133 186.021 242.395 185.623C242.66 185.221 242.793 184.723 242.793 184.129C242.793 183.566 242.65 183.104 242.365 182.74C242.084 182.377 241.693 182.195 241.193 182.195C240.799 182.195 240.463 182.275 240.186 182.436C239.908 182.592 239.697 182.803 239.553 183.068V183.754C239.553 184.547 239.717 185.156 240.045 185.582C240.377 186.008 240.793 186.221 241.293 186.221Z" fill="#D7D7D7"/>
<path d="M333.561 100.561C332.975 101.146 332.025 101.146 331.44 100.561L321.894 91.0146C321.308 90.4288 321.308 89.4791 321.894 88.8933C322.479 88.3075 323.429 88.3075 324.015 88.8933L332.5 97.3786L340.986 88.8933C341.571 88.3075 342.521 88.3075 343.107 88.8933C343.693 89.4791 343.693 90.4288 343.107 91.0146L333.561 100.561ZM334 0.999907V99.4999H331V0.999907H334Z" fill="#4182FF"/>
<path d="M451.94 0.939245C452.525 0.35346 453.475 0.35346 454.061 0.939245L463.607 10.4852C464.193 11.071 464.193 12.0207 463.607 12.6065C463.021 13.1923 462.071 13.1923 461.486 12.6065L453 4.12123L444.515 12.6065C443.929 13.1923 442.979 13.1923 442.394 12.6065C441.808 12.0207 441.808 11.071 442.394 10.4852L451.94 0.939245ZM330.765 97.6494C354.849 62.6643 385.604 55.053 409.887 47.874C422.091 44.2662 432.434 40.8251 439.778 34.3077C447.008 27.8918 451.5 18.3196 451.5 1.99991H454.5C454.5 18.9303 449.805 29.4206 441.769 36.5516C433.848 43.5811 422.846 47.1713 410.738 50.7509C386.396 57.947 356.652 65.3356 333.236 99.3505L330.765 97.6494Z" fill="#4182FF"/>
<path d="M350.709 147V146.262L352.027 146.098V139.705L350.686 139.729V139.008L353.182 138.469V146.098L354.494 146.262V147H350.709ZM355.73 148.822L355.08 148.389C355.264 148.107 355.402 147.82 355.496 147.527C355.59 147.234 355.637 146.924 355.637 146.596V145.705H356.791V146.578C356.791 146.961 356.695 147.361 356.504 147.779C356.312 148.197 356.055 148.545 355.73 148.822ZM360.869 147V146.209L363.664 143.104C363.996 142.732 364.256 142.416 364.443 142.154C364.631 141.889 364.762 141.648 364.836 141.434C364.91 141.219 364.947 140.996 364.947 140.766C364.947 140.34 364.818 139.982 364.561 139.693C364.303 139.4 363.934 139.254 363.453 139.254C362.953 139.254 362.562 139.404 362.281 139.705C362.004 140.006 361.865 140.432 361.865 140.982H360.758L360.746 140.947C360.734 140.455 360.838 140.014 361.057 139.623C361.275 139.229 361.592 138.918 362.006 138.691C362.424 138.461 362.92 138.346 363.494 138.346C364.033 138.346 364.496 138.449 364.883 138.656C365.273 138.859 365.574 139.139 365.785 139.494C365.996 139.85 366.102 140.258 366.102 140.719C366.102 141.188 365.963 141.654 365.686 142.119C365.412 142.584 365.025 143.086 364.525 143.625L362.281 146.068L362.293 146.098H365.322L365.416 145.119H366.395V147H360.869ZM367.719 148.822L367.068 148.389C367.252 148.107 367.391 147.82 367.484 147.527C367.578 147.234 367.625 146.924 367.625 146.596V145.705H368.779V146.578C368.779 146.961 368.684 147.361 368.492 147.779C368.301 148.197 368.043 148.545 367.719 148.822ZM375.395 147.123C374.875 147.123 374.412 147.029 374.006 146.842C373.6 146.65 373.281 146.381 373.051 146.033C372.824 145.682 372.717 145.266 372.729 144.785L372.746 144.75H373.848C373.848 145.199 373.984 145.557 374.258 145.822C374.535 146.088 374.914 146.221 375.395 146.221C375.883 146.221 376.266 146.088 376.543 145.822C376.82 145.557 376.959 145.164 376.959 144.645C376.959 144.117 376.836 143.729 376.59 143.479C376.344 143.229 375.955 143.104 375.424 143.104H374.416V142.201H375.424C375.936 142.201 376.297 142.074 376.508 141.82C376.723 141.562 376.83 141.205 376.83 140.748C376.83 139.752 376.352 139.254 375.395 139.254C374.945 139.254 374.584 139.387 374.311 139.652C374.041 139.914 373.906 140.264 373.906 140.701H372.799L372.787 140.666C372.775 140.236 372.877 139.846 373.092 139.494C373.311 139.143 373.617 138.863 374.012 138.656C374.41 138.449 374.871 138.346 375.395 138.346C376.184 138.346 376.812 138.557 377.281 138.979C377.75 139.396 377.984 139.994 377.984 140.771C377.984 141.123 377.877 141.475 377.662 141.826C377.451 142.174 377.133 142.439 376.707 142.623C377.219 142.791 377.58 143.055 377.791 143.414C378.006 143.773 378.113 144.176 378.113 144.621C378.113 145.141 377.996 145.588 377.762 145.963C377.531 146.334 377.211 146.621 376.801 146.824C376.391 147.023 375.922 147.123 375.395 147.123ZM379.555 148.822L378.904 148.389C379.088 148.107 379.227 147.82 379.32 147.527C379.414 147.234 379.461 146.924 379.461 146.596V145.705H380.615V146.578C380.615 146.961 380.52 147.361 380.328 147.779C380.137 148.197 379.879 148.545 379.555 148.822ZM387.371 147V146.262L388.326 146.098V145.031H384.494V144.381L388.256 138.469H389.475V144.129H390.652V145.031H389.475V146.098L390.43 146.262V147H387.371ZM385.725 144.129H388.326V140.115L388.291 140.104L388.174 140.414L385.725 144.129Z" fill="#D7D7D7"/>
<path d="M411.059 79.123C410.578 79.123 410.146 79.0352 409.764 78.8594C409.385 78.6836 409.088 78.4238 408.873 78.0801C408.658 77.7324 408.557 77.3027 408.568 76.791L408.58 76.7559H409.623C409.623 77.2168 409.756 77.5762 410.021 77.834C410.291 78.0918 410.637 78.2207 411.059 78.2207C411.547 78.2207 411.926 78.0488 412.195 77.7051C412.465 77.3613 412.6 76.8906 412.6 76.293C412.6 75.7422 412.463 75.293 412.189 74.9453C411.92 74.5938 411.545 74.418 411.064 74.418C410.611 74.418 410.281 74.4863 410.074 74.623C409.871 74.7598 409.723 74.9688 409.629 75.25L408.668 75.1504L409.16 70.4688H413.666V72.1562H412.799L412.688 71.4941H410.139L409.863 73.8906C410.039 73.7578 410.236 73.6484 410.455 73.5625C410.678 73.4727 410.934 73.4238 411.223 73.416C412.008 73.4082 412.625 73.6641 413.074 74.1836C413.527 74.7031 413.754 75.4023 413.754 76.2812C413.754 77.1367 413.523 77.8242 413.062 78.3438C412.605 78.8633 411.938 79.123 411.059 79.123ZM415.125 80.8223L414.475 80.3887C414.658 80.1074 414.797 79.8203 414.891 79.5273C414.984 79.2344 415.031 78.9238 415.031 78.5957V77.7051H416.186V78.5781C416.186 78.9609 416.09 79.3613 415.898 79.7793C415.707 80.1973 415.449 80.5449 415.125 80.8223ZM423.293 79.123C422.738 79.123 422.242 78.9883 421.805 78.7188C421.371 78.4453 421.029 78.0488 420.779 77.5293C420.529 77.0098 420.404 76.3809 420.404 75.6426V74.4941C420.404 73.5918 420.539 72.834 420.809 72.2207C421.082 71.6035 421.457 71.1367 421.934 70.8203C422.414 70.5039 422.965 70.3457 423.586 70.3457C423.875 70.3457 424.162 70.3789 424.447 70.4453C424.736 70.5117 424.975 70.5957 425.162 70.6973L424.939 71.5586C424.756 71.4688 424.555 71.3965 424.336 71.3418C424.117 71.2832 423.867 71.2539 423.586 71.2539C422.988 71.2539 422.512 71.4805 422.156 71.9336C421.805 72.3828 421.617 73.0625 421.594 73.9727L421.617 73.9961C421.836 73.793 422.104 73.6328 422.42 73.5156C422.736 73.3945 423.078 73.334 423.445 73.334C423.953 73.334 424.395 73.4551 424.77 73.6973C425.145 73.9355 425.434 74.2656 425.637 74.6875C425.844 75.1094 425.947 75.5898 425.947 76.1289C425.947 76.7188 425.838 77.2383 425.619 77.6875C425.4 78.1367 425.092 78.4883 424.693 78.7422C424.295 78.9961 423.828 79.123 423.293 79.123ZM423.293 78.2207C423.766 78.2207 424.133 78.0215 424.395 77.623C424.66 77.2207 424.793 76.7227 424.793 76.1289C424.793 75.5664 424.65 75.1035 424.365 74.7402C424.084 74.377 423.693 74.1953 423.193 74.1953C422.799 74.1953 422.463 74.2754 422.186 74.4355C421.908 74.5918 421.697 74.8027 421.553 75.0684V75.7539C421.553 76.5469 421.717 77.1562 422.045 77.582C422.377 78.0078 422.793 78.2207 423.293 78.2207Z" fill="#D7D7D7"/>
<path d="M331.439 301.061C332.025 301.646 332.975 301.646 333.561 301.061L343.107 291.515C343.692 290.929 343.692 289.979 343.107 289.393C342.521 288.808 341.571 288.808 340.985 289.393L332.5 297.879L324.015 289.393C323.429 288.808 322.479 288.808 321.893 289.393C321.308 289.979 321.308 290.929 321.893 291.515L331.439 301.061ZM331 100V300H334V100H331Z" fill="#4182FF"/>
<path d="M589.561 339.561C590.146 338.975 590.146 338.025 589.561 337.439L580.015 327.893C579.429 327.308 578.479 327.308 577.893 327.893C577.308 328.479 577.308 329.429 577.893 330.015L586.379 338.5L577.893 346.985C577.308 347.571 577.308 348.521 577.893 349.107C578.479 349.692 579.429 349.692 580.015 349.107L589.561 339.561ZM334.039 301.9C367.219 289.119 398.083 298.401 437.285 311.176C476.409 323.926 523.487 340 588.5 340V337C524.013 337 477.341 321.074 438.215 308.324C399.167 295.599 367.281 285.881 332.961 299.1L334.039 301.9Z" fill="#4182FF"/>
<path d="M330.939 568.561C331.525 569.147 332.475 569.147 333.061 568.561L342.607 559.015C343.192 558.429 343.192 557.479 342.607 556.893C342.021 556.308 341.071 556.308 340.485 556.893L332 565.379L323.515 556.893C322.929 556.308 321.979 556.308 321.393 556.893C320.808 557.479 320.808 558.429 321.393 559.015L330.939 568.561ZM330.5 532.5L330.5 567.5L333.5 567.5L333.5 532.5H330.5Z" fill="#4182FF"/>
<path d="M332.5 300.5L332.5 427L321.5 436.5L351 446.5L306.5 453.5L343.5 468.5L321.5 476L358.5 492.5L304.5 500.5L343.5 517L332.5 533.5" stroke="#4182FF" stroke-width="3"/>
<path d="M273.709 354V353.262L275.027 353.098V346.705L273.686 346.729V346.008L276.182 345.469V353.098L277.494 353.262V354H273.709ZM278.73 355.822L278.08 355.389C278.264 355.107 278.402 354.82 278.496 354.527C278.59 354.234 278.637 353.924 278.637 353.596V352.705H279.791V353.578C279.791 353.961 279.695 354.361 279.504 354.779C279.312 355.197 279.055 355.545 278.73 355.822ZM283.869 354V353.209L286.664 350.104C286.996 349.732 287.256 349.416 287.443 349.154C287.631 348.889 287.762 348.648 287.836 348.434C287.91 348.219 287.947 347.996 287.947 347.766C287.947 347.34 287.818 346.982 287.561 346.693C287.303 346.4 286.934 346.254 286.453 346.254C285.953 346.254 285.562 346.404 285.281 346.705C285.004 347.006 284.865 347.432 284.865 347.982H283.758L283.746 347.947C283.734 347.455 283.838 347.014 284.057 346.623C284.275 346.229 284.592 345.918 285.006 345.691C285.424 345.461 285.92 345.346 286.494 345.346C287.033 345.346 287.496 345.449 287.883 345.656C288.273 345.859 288.574 346.139 288.785 346.494C288.996 346.85 289.102 347.258 289.102 347.719C289.102 348.188 288.963 348.654 288.686 349.119C288.412 349.584 288.025 350.086 287.525 350.625L285.281 353.068L285.293 353.098H288.322L288.416 352.119H289.395V354H283.869ZM290.719 355.822L290.068 355.389C290.252 355.107 290.391 354.82 290.484 354.527C290.578 354.234 290.625 353.924 290.625 353.596V352.705H291.779V353.578C291.779 353.961 291.684 354.361 291.492 354.779C291.301 355.197 291.043 355.545 290.719 355.822ZM298.395 354.123C297.875 354.123 297.412 354.029 297.006 353.842C296.6 353.65 296.281 353.381 296.051 353.033C295.824 352.682 295.717 352.266 295.729 351.785L295.746 351.75H296.848C296.848 352.199 296.984 352.557 297.258 352.822C297.535 353.088 297.914 353.221 298.395 353.221C298.883 353.221 299.266 353.088 299.543 352.822C299.82 352.557 299.959 352.164 299.959 351.645C299.959 351.117 299.836 350.729 299.59 350.479C299.344 350.229 298.955 350.104 298.424 350.104H297.416V349.201H298.424C298.936 349.201 299.297 349.074 299.508 348.82C299.723 348.562 299.83 348.205 299.83 347.748C299.83 346.752 299.352 346.254 298.395 346.254C297.945 346.254 297.584 346.387 297.311 346.652C297.041 346.914 296.906 347.264 296.906 347.701H295.799L295.787 347.666C295.775 347.236 295.877 346.846 296.092 346.494C296.311 346.143 296.617 345.863 297.012 345.656C297.41 345.449 297.871 345.346 298.395 345.346C299.184 345.346 299.812 345.557 300.281 345.979C300.75 346.396 300.984 346.994 300.984 347.771C300.984 348.123 300.877 348.475 300.662 348.826C300.451 349.174 300.133 349.439 299.707 349.623C300.219 349.791 300.58 350.055 300.791 350.414C301.006 350.773 301.113 351.176 301.113 351.621C301.113 352.141 300.996 352.588 300.762 352.963C300.531 353.334 300.211 353.621 299.801 353.824C299.391 354.023 298.922 354.123 298.395 354.123Z" fill="#D7D7D7"/>
<path d="M387.246 336V335.262L388.201 335.098V334.031H384.369V333.381L388.131 327.469H389.35V333.129H390.527V334.031H389.35V335.098L390.305 335.262V336H387.246ZM385.6 333.129H388.201V329.115L388.166 329.104L388.049 329.414L385.6 333.129ZM391.746 337.822L391.096 337.389C391.279 337.107 391.418 336.82 391.512 336.527C391.605 336.234 391.652 335.924 391.652 335.596V334.705H392.807V335.578C392.807 335.961 392.711 336.361 392.52 336.779C392.328 337.197 392.07 337.545 391.746 337.822ZM399.375 336.123C398.895 336.123 398.463 336.035 398.08 335.859C397.701 335.684 397.404 335.424 397.189 335.08C396.975 334.732 396.873 334.303 396.885 333.791L396.896 333.756H397.939C397.939 334.217 398.072 334.576 398.338 334.834C398.607 335.092 398.953 335.221 399.375 335.221C399.863 335.221 400.242 335.049 400.512 334.705C400.781 334.361 400.916 333.891 400.916 333.293C400.916 332.742 400.779 332.293 400.506 331.945C400.236 331.594 399.861 331.418 399.381 331.418C398.928 331.418 398.598 331.486 398.391 331.623C398.188 331.76 398.039 331.969 397.945 332.25L396.984 332.15L397.477 327.469H401.982V329.156H401.115L401.004 328.494H398.455L398.18 330.891C398.355 330.758 398.553 330.648 398.771 330.562C398.994 330.473 399.25 330.424 399.539 330.416C400.324 330.408 400.941 330.664 401.391 331.184C401.844 331.703 402.07 332.402 402.07 333.281C402.07 334.137 401.84 334.824 401.379 335.344C400.922 335.863 400.254 336.123 399.375 336.123ZM403.441 337.822L402.791 337.389C402.975 337.107 403.113 336.82 403.207 336.527C403.301 336.234 403.348 335.924 403.348 335.596V334.705H404.502V335.578C404.502 335.961 404.406 336.361 404.215 336.779C404.023 337.197 403.766 337.545 403.441 337.822ZM411.609 336.123C411.055 336.123 410.559 335.988 410.121 335.719C409.688 335.445 409.346 335.049 409.096 334.529C408.846 334.01 408.721 333.381 408.721 332.643V331.494C408.721 330.592 408.855 329.834 409.125 329.221C409.398 328.604 409.773 328.137 410.25 327.82C410.73 327.504 411.281 327.346 411.902 327.346C412.191 327.346 412.479 327.379 412.764 327.445C413.053 327.512 413.291 327.596 413.479 327.697L413.256 328.559C413.072 328.469 412.871 328.396 412.652 328.342C412.434 328.283 412.184 328.254 411.902 328.254C411.305 328.254 410.828 328.48 410.473 328.934C410.121 329.383 409.934 330.062 409.91 330.973L409.934 330.996C410.152 330.793 410.42 330.633 410.736 330.516C411.053 330.395 411.395 330.334 411.762 330.334C412.27 330.334 412.711 330.455 413.086 330.697C413.461 330.936 413.75 331.266 413.953 331.688C414.16 332.109 414.264 332.59 414.264 333.129C414.264 333.719 414.154 334.238 413.936 334.688C413.717 335.137 413.408 335.488 413.01 335.742C412.611 335.996 412.145 336.123 411.609 336.123ZM411.609 335.221C412.082 335.221 412.449 335.021 412.711 334.623C412.977 334.221 413.109 333.723 413.109 333.129C413.109 332.566 412.967 332.104 412.682 331.74C412.4 331.377 412.01 331.195 411.51 331.195C411.115 331.195 410.779 331.275 410.502 331.436C410.225 331.592 410.014 331.803 409.869 332.068V332.754C409.869 333.547 410.033 334.156 410.361 334.582C410.693 335.008 411.109 335.221 411.609 335.221Z" fill="#D7D7D7"/>
</svg>
