<svg width="492" height="594" viewBox="0 0 492 594" fill="none" xmlns="http://www.w3.org/2000/svg">
<path d="M58.207 539.207C58.5976 538.817 58.5976 538.183 58.207 537.793L51.8431 531.429C51.4525 531.038 50.8194 531.038 50.4289 531.429C50.0383 531.819 50.0383 532.453 50.4289 532.843L56.0857 538.5L50.4289 544.157C50.0383 544.547 50.0383 545.18 50.4289 545.571C50.8194 545.962 51.4525 545.962 51.8431 545.571L58.207 539.207ZM2.5 592C2.50004 579.696 2.77779 566.647 9.69773 556.631C16.5547 546.706 30.1532 539.5 57.4999 539.5V537.5C29.8466 537.5 15.4453 544.794 8.05226 555.494C0.722251 566.103 0.500038 579.804 0.5 592L2.5 592Z" fill="#F9F0D5"/>
<path d="M104.293 577.793C103.902 578.183 103.902 578.817 104.293 579.207L110.657 585.571C111.047 585.962 111.681 585.962 112.071 585.571C112.462 585.181 112.462 584.547 112.071 584.157L106.414 578.5L112.071 572.843C112.462 572.453 112.462 571.819 112.071 571.429C111.681 571.038 111.047 571.038 110.657 571.429L104.293 577.793ZM218 577.5L105 577.5L105 579.5L218 579.5L218 577.5Z" fill="#F9F0D5"/>
<path d="M200.709 514.457C201.237 514.617 201.796 514.319 201.957 513.791L204.577 505.181C204.738 504.653 204.44 504.094 203.912 503.933C203.383 503.772 202.825 504.07 202.664 504.599L200.334 512.252L192.681 509.923C192.153 509.762 191.594 510.06 191.433 510.588C191.272 511.117 191.57 511.675 192.099 511.836L200.709 514.457ZM158.5 481C158.5 484.952 160.626 487.6 163.747 489.655C166.807 491.671 170.998 493.232 175.377 494.99C184.248 498.551 194.303 503.067 200.118 513.971L201.882 513.029C195.697 501.433 185.002 496.699 176.123 493.134C171.627 491.33 167.693 489.86 164.847 487.985C162.061 486.15 160.5 484.048 160.5 481H158.5Z" fill="#F9F0D5"/>
<path d="M202.209 433.457C202.737 433.618 203.296 433.32 203.457 432.791L206.077 424.181C206.238 423.653 205.94 423.094 205.412 422.933C204.883 422.772 204.325 423.07 204.164 423.599L201.835 431.252L194.181 428.923C193.653 428.762 193.094 429.06 192.933 429.588C192.772 430.117 193.07 430.675 193.599 430.836L202.209 433.457ZM160 400C160 403.952 162.126 406.6 165.247 408.655C168.307 410.672 172.498 412.233 176.877 413.991C185.748 417.551 195.803 422.067 201.618 432.971L203.382 432.029C197.197 420.433 186.502 415.699 177.623 412.135C173.127 410.33 169.193 408.86 166.347 406.985C163.562 405.15 162 403.048 162 400H160Z" fill="#F9F0D5"/>
<path d="M361.189 593.45C361.713 593.622 362.278 593.336 362.45 592.812L365.253 584.259C365.425 583.734 365.139 583.169 364.614 582.997C364.09 582.825 363.525 583.111 363.353 583.636L360.861 591.238L353.259 588.747C352.734 588.575 352.169 588.861 351.997 589.386C351.825 589.911 352.111 590.475 352.636 590.647L361.189 593.45ZM282.881 592.972C290.225 579.265 304.805 569.589 319.967 568.183C335.05 566.784 350.789 573.56 360.608 592.952L362.392 592.048C352.211 571.94 335.7 564.716 319.783 566.192C303.945 567.661 288.775 577.735 281.119 592.028L282.881 592.972Z" fill="#F9F0D5"/>
<path d="M447.495 536L446.604 535.546L446.604 535.546L447.495 536ZM427.038 572.774C427.19 573.305 427.743 573.613 428.274 573.462L436.93 570.996C437.461 570.844 437.769 570.291 437.617 569.76C437.466 569.229 436.913 568.921 436.382 569.072L428.688 571.264L426.496 563.57C426.344 563.039 425.791 562.731 425.26 562.883C424.729 563.034 424.421 563.587 424.572 564.118L427.038 572.774ZM466 379.5C471.022 379.5 476.503 380.838 480.893 384.815C485.274 388.783 488.706 395.504 489.395 406.549C490.775 428.714 481.076 467.879 446.604 535.546L448.386 536.454C482.875 468.753 492.808 429.168 491.391 406.425C490.68 395.016 487.106 387.744 482.235 383.332C477.374 378.929 471.358 377.5 466 377.5L466 379.5ZM446.604 535.546C440.827 546.887 434.355 559.024 427.126 572.014L428.874 572.986C436.114 559.978 442.597 547.818 448.386 536.454L446.604 535.546Z" fill="#F9F0D5"/>
<path d="M246 352.5L247 352.5L247 352.5L246 352.5ZM227.293 329.293C226.902 329.684 226.902 330.317 227.293 330.707L233.657 337.071C234.047 337.462 234.681 337.462 235.071 337.071C235.462 336.681 235.462 336.047 235.071 335.657L229.414 330L235.071 324.343C235.462 323.953 235.462 323.32 235.071 322.929C234.681 322.538 234.047 322.538 233.657 322.929L227.293 329.293ZM247 352.5V352.5H245V352.5H247ZM247 352.5C247 348.142 247.001 344.494 246.714 341.506C246.428 338.522 245.845 336.062 244.587 334.14C242.012 330.207 236.959 329 228 329V331C237.041 331 240.988 332.293 242.913 335.235C243.905 336.751 244.447 338.822 244.723 341.697C244.999 344.569 245 348.108 245 352.5L247 352.5Z" fill="#F9F0D5"/>
<path d="M180.207 259.207C180.598 258.817 180.598 258.183 180.207 257.793L173.843 251.429C173.453 251.038 172.819 251.038 172.429 251.429C172.038 251.819 172.038 252.453 172.429 252.843L178.086 258.5L172.429 264.157C172.038 264.547 172.038 265.181 172.429 265.571C172.819 265.962 173.453 265.962 173.843 265.571L180.207 259.207ZM162 201.5C162 208.036 160.982 214.837 159.95 221.431C158.923 227.987 157.875 234.373 157.875 239.938C157.875 245.501 158.918 250.457 162.273 254.007C165.637 257.566 171.12 259.5 179.5 259.5V257.5C171.38 257.5 166.551 255.622 163.727 252.633C160.894 249.637 159.875 245.312 159.875 239.938C159.875 234.565 160.889 228.357 161.925 221.741C162.955 215.163 164 208.214 164 201.5H162Z" fill="#F9F0D5"/>
<path d="M201.293 233.707C201.683 234.098 202.317 234.098 202.707 233.707L209.071 227.343C209.462 226.953 209.462 226.32 209.071 225.929C208.681 225.538 208.047 225.538 207.657 225.929L202 231.586L196.343 225.929C195.953 225.538 195.319 225.538 194.929 225.929C194.538 226.32 194.538 226.953 194.929 227.343L201.293 233.707ZM201 200V233H203V200H201Z" fill="#F9F0D5"/>
<path d="M156.793 152.707C157.183 153.098 157.817 153.098 158.207 152.707L164.571 146.343C164.962 145.953 164.962 145.319 164.571 144.929C164.181 144.538 163.547 144.538 163.157 144.929L157.5 150.586L151.843 144.929C151.453 144.538 150.819 144.538 150.429 144.929C150.038 145.319 150.038 145.953 150.429 146.343L156.793 152.707ZM178 128C176.457 128 174.984 127.946 173.561 127.902C172.148 127.858 170.78 127.824 169.489 127.868C166.918 127.956 164.515 128.357 162.498 129.737C160.46 131.131 158.967 133.417 157.982 136.959C157.001 140.485 156.5 145.34 156.5 152H158.5C158.5 145.41 158.999 140.765 159.909 137.495C160.814 134.239 162.102 132.431 163.627 131.388C165.173 130.33 167.113 129.95 169.558 129.867C170.775 129.825 172.083 129.857 173.499 129.901C174.907 129.945 176.418 130 178 130L178 128Z" fill="#F9F0D5"/>
<path d="M82.2929 152.707C82.6834 153.098 83.3166 153.098 83.7071 152.707L90.0711 146.343C90.4616 145.953 90.4616 145.319 90.0711 144.929C89.6805 144.538 89.0474 144.538 88.6569 144.929L83 150.586L77.3431 144.929C76.9526 144.538 76.3195 144.538 75.9289 144.929C75.5384 145.319 75.5384 145.953 75.9289 146.343L82.2929 152.707ZM125 152C125 133.614 114.46 123.638 103.518 123.438C98.0825 123.338 92.6728 125.68 88.6409 130.474C84.6129 135.263 82 142.446 82 152H84C84 142.804 86.5121 136.112 90.1716 131.761C93.8272 127.414 98.6675 125.349 103.482 125.437C113.04 125.612 123 134.386 123 152H125Z" fill="#F9F0D5"/>
<path d="M322.707 199.293C322.317 198.902 321.683 198.902 321.293 199.293L314.929 205.657C314.538 206.047 314.538 206.681 314.929 207.071C315.319 207.462 315.953 207.462 316.343 207.071L322 201.414L327.657 207.071C328.047 207.462 328.681 207.462 329.071 207.071C329.462 206.681 329.462 206.047 329.071 205.657L322.707 199.293ZM243 233.5C243 231.207 244.027 229.638 245.95 228.489C247.948 227.296 250.896 226.576 254.61 226.166C262.053 225.344 271.909 225.814 282.019 225.625C292.02 225.437 302.21 224.598 309.918 221.049C313.794 219.264 317.081 216.778 319.394 213.315C321.709 209.848 323 205.475 323 200H321C321 205.15 319.791 209.121 317.731 212.204C315.669 215.292 312.706 217.564 309.082 219.232C301.79 222.59 291.98 223.438 281.981 223.625C272.091 223.811 261.947 223.344 254.39 224.178C250.604 224.596 247.302 225.352 244.925 226.772C242.473 228.237 241 230.419 241 233.5H243Z" fill="#F9F0D5"/>
<path d="M59.8222 217.069C60.1366 216.615 60.0233 215.992 59.5692 215.678L52.1695 210.555C51.7154 210.241 51.0924 210.354 50.7781 210.808C50.4637 211.262 50.577 211.885 51.0311 212.199L57.6086 216.753L53.0549 223.331C52.7406 223.785 52.8538 224.408 53.3079 224.722C53.762 225.036 54.3849 224.923 54.6993 224.469L59.8222 217.069ZM59.5344 298.155C37.974 284.525 27.2483 266.177 27.1875 250.434C27.1571 242.575 29.7776 235.338 35.0577 229.574C40.3426 223.805 48.3481 219.453 59.1789 217.484L58.8211 215.516C47.6519 217.547 39.2199 222.07 33.583 228.223C27.9412 234.381 25.1554 242.113 25.1875 250.441C25.2517 267.073 36.526 285.975 58.4656 299.845L59.5344 298.155Z" fill="#F9F0D5"/>
<path d="M241.293 153.207C241.683 153.598 242.317 153.598 242.707 153.207L249.071 146.843C249.462 146.453 249.462 145.819 249.071 145.429C248.681 145.038 248.047 145.038 247.657 145.429L242 151.086L236.343 145.429C235.953 145.038 235.319 145.038 234.929 145.429C234.538 145.819 234.538 146.453 234.929 146.843L241.293 153.207ZM225.5 59C228.494 59 230.924 59.583 232.909 60.6627C234.891 61.7404 236.487 63.3443 237.768 65.4761C240.355 69.7807 241.629 76.1827 242.127 84.4973C242.623 92.7855 242.345 102.816 241.938 114.285C241.532 125.738 241 138.603 241 152.5H243C243 138.647 243.53 125.824 243.937 114.356C244.343 102.903 244.627 92.777 244.123 84.3777C243.621 76.0048 242.332 69.188 239.482 64.4458C238.045 62.0542 236.203 60.1775 233.864 58.9057C231.529 57.6357 228.756 57 225.5 57L225.5 59Z" fill="#F9F0D5"/>
<path d="M281.293 154.207C281.683 154.598 282.317 154.598 282.707 154.207L289.071 147.843C289.462 147.453 289.462 146.819 289.071 146.429C288.681 146.038 288.047 146.038 287.657 146.429L282 152.086L276.343 146.429C275.953 146.038 275.319 146.038 274.929 146.429C274.538 146.819 274.538 147.453 274.929 147.843L281.293 154.207ZM226.5 98.5C241.171 98.5 251.884 98.2195 259.786 98.74C267.71 99.2621 272.486 100.582 275.487 103.526C278.487 106.469 279.927 111.244 280.558 119.305C281.187 127.339 281 138.338 281 153.5H283C283 138.412 283.188 127.286 282.552 119.149C281.917 111.037 280.45 105.593 276.888 102.099C273.327 98.6054 267.883 97.2692 259.917 96.7443C251.928 96.218 241.079 96.5 226.5 96.5L226.5 98.5Z" fill="#F9F0D5"/>
<path d="M179.207 58.7071C179.598 58.3166 179.598 57.6834 179.207 57.2929L172.843 50.9289C172.453 50.5384 171.819 50.5384 171.429 50.9289C171.038 51.3194 171.038 51.9526 171.429 52.3431L177.086 58L171.429 63.6568C171.038 64.0474 171.038 64.6805 171.429 65.0711C171.819 65.4616 172.453 65.4616 172.843 65.0711L179.207 58.7071ZM119 0.5C119 12.5107 119.468 22.1859 120.987 29.927C122.509 37.6793 125.102 43.5757 129.413 47.9518C133.723 52.328 139.651 55.0802 147.64 56.7446C155.619 58.4068 165.733 59 178.5 59V57C165.767 57 155.819 56.4057 148.048 54.7866C140.287 53.1698 134.777 50.547 130.837 46.5482C126.898 42.5493 124.428 37.0707 122.95 29.5417C121.47 22.0016 121 12.4893 121 0.5H119Z" fill="#F9F0D5"/>
</svg>
