<svg width="60" height="39" viewBox="0 0 60 39" fill="none" xmlns="http://www.w3.org/2000/svg">
<path d="M46.7992 30.2718C47.454 30.7793 48.3962 30.6598 48.9037 30.005L57.1732 19.3343C57.6807 18.6795 57.5612 17.7373 56.9064 17.2298C56.2516 16.7224 55.3094 16.8418 54.802 17.4966L47.4513 26.9817L37.9662 19.631C37.3113 19.1236 36.3691 19.243 35.8617 19.8978C35.3542 20.5526 35.4737 21.4948 36.1285 22.0023L46.7992 30.2718ZM6.82957 29.0862C6.82958 18.9698 15.6156 10.5991 25.0851 9.00664C29.752 8.22182 34.4566 9.11655 38.2536 12.1853C42.0559 15.2584 45.1387 20.6672 46.23 29.2749L49.2061 28.8975C48.0474 19.7577 44.7066 13.5434 40.1393 9.85205C35.5666 6.15641 29.9553 5.14551 24.5876 6.04819C13.9879 7.83072 3.82958 17.2076 3.82957 29.0862L6.82957 29.0862Z" fill="#2946DA"/>
</svg>
