<svg width="40" height="40" viewBox="0 0 40 40" fill="none" xmlns="http://www.w3.org/2000/svg">
<g filter="url(#filter0_i)">
<rect width="40" height="40" rx="2" fill="#FFF6DF"/>
</g>
<rect x="0.5" y="0.5" width="39" height="39" rx="1.5" stroke="#464646"/>
<path d="M12.5801 31.6611H15.3555V32.8574H12.5801V36.002H11.3086V32.8574H8.5332V31.6611H11.3086V28.7559H12.5801V31.6611ZM17.3516 32.0098L17.8574 27.0469H22.957V28.2158H18.9307L18.6299 30.9297C19.1175 30.6426 19.6712 30.499 20.291 30.499C21.1979 30.499 21.918 30.7998 22.4512 31.4014C22.9844 31.9984 23.251 32.8073 23.251 33.8281C23.251 34.8535 22.973 35.6624 22.417 36.2549C21.8656 36.8428 21.0931 37.1367 20.0996 37.1367C19.2201 37.1367 18.5023 36.8929 17.9463 36.4053C17.3903 35.9176 17.0736 35.2432 16.9961 34.3818H18.1924C18.2699 34.9515 18.4727 35.3822 18.8008 35.6738C19.1289 35.9609 19.5618 36.1045 20.0996 36.1045C20.6875 36.1045 21.1478 35.904 21.4805 35.5029C21.8177 35.1019 21.9863 34.5482 21.9863 33.8418C21.9863 33.1764 21.804 32.6432 21.4395 32.2422C21.0794 31.8366 20.5986 31.6338 19.9971 31.6338C19.4456 31.6338 19.0127 31.7546 18.6982 31.9961L18.3633 32.2695L17.3516 32.0098ZM30.873 32.7549C30.873 34.236 30.6201 35.3366 30.1143 36.0566C29.6084 36.7767 28.8177 37.1367 27.7422 37.1367C26.6803 37.1367 25.8942 36.7858 25.3838 36.084C24.8734 35.3776 24.609 34.3249 24.5908 32.9258V31.2373C24.5908 29.7744 24.8438 28.6875 25.3496 27.9766C25.8555 27.2656 26.6484 26.9102 27.7285 26.9102C28.7995 26.9102 29.5879 27.2542 30.0938 27.9424C30.5996 28.626 30.8594 29.6833 30.873 31.1143V32.7549ZM29.6084 31.0254C29.6084 29.9544 29.458 29.1751 29.1572 28.6875C28.8564 28.1953 28.3802 27.9492 27.7285 27.9492C27.0814 27.9492 26.6097 28.193 26.3135 28.6807C26.0173 29.1683 25.8646 29.918 25.8555 30.9297V32.9531C25.8555 34.0286 26.0104 34.8239 26.3203 35.3389C26.6348 35.8493 27.1087 36.1045 27.7422 36.1045C28.3665 36.1045 28.8291 35.863 29.1299 35.3799C29.4352 34.8968 29.5947 34.1357 29.6084 33.0967V31.0254Z" fill="#00BB07"/>
<defs>
<filter id="filter0_i" x="0" y="0" width="40" height="40" filterUnits="userSpaceOnUse" color-interpolation-filters="sRGB">
<feFlood flood-opacity="0" result="BackgroundImageFix"/>
<feBlend mode="normal" in="SourceGraphic" in2="BackgroundImageFix" result="shape"/>
<feColorMatrix in="SourceAlpha" type="matrix" values="0 0 0 0 0 0 0 0 0 0 0 0 0 0 0 0 0 0 127 0" result="hardAlpha"/>
<feMorphology radius="4" operator="erode" in="SourceAlpha" result="effect1_innerShadow"/>
<feOffset/>
<feGaussianBlur stdDeviation="3.5"/>
<feComposite in2="hardAlpha" operator="arithmetic" k2="-1" k3="1"/>
<feColorMatrix type="matrix" values="0 0 0 0 0.621094 0 0 0 0 0.607166 0 0 0 0 0.272905 0 0 0 0.59 0"/>
<feBlend mode="normal" in2="shape" result="effect1_innerShadow"/>
</filter>
</defs>
</svg>
