<svg width="51" height="25" viewBox="0 0 51 25" fill="none" xmlns="http://www.w3.org/2000/svg">
<path d="M43.1055 23.8766C43.542 24.2149 44.1702 24.1353 44.5085 23.6988L50.0215 16.5849C50.3598 16.1484 50.2802 15.5203 49.8436 15.1819C49.4071 14.8436 48.779 14.9233 48.4407 15.3598L43.5402 21.6832L37.2168 16.7827C36.7802 16.4444 36.1521 16.5241 35.8138 16.9606C35.4755 17.3972 35.5551 18.0253 35.9917 18.3636L43.1055 23.8766ZM2.32957 23.0862C2.32958 12.6761 11.3443 4.13772 21.0022 2.51357C25.7859 1.7091 30.6416 2.62319 34.5679 5.79642C38.4977 8.97253 41.6235 14.5156 42.726 23.212L44.7101 22.9604C43.5626 13.9093 40.2649 7.8292 35.825 4.24092C31.3816 0.649764 25.9214 -0.341772 20.6705 0.541263C10.2591 2.29212 0.329576 11.5013 0.329574 23.0862L2.32957 23.0862Z" fill="black"/>
</svg>
